<?xml version="1.0" encoding="UTF-8" standalone="no"?>
<!DOCTYPE svg PUBLIC "-//W3C//DTD SVG 1.1//EN"
 "http://www.w3.org/Graphics/SVG/1.1/DTD/svg11.dtd">
<!-- Generated by graphviz version 2.40.1 (20161225.0304)
 -->
<!-- Title: finite_state_machine Pages: 1 -->
<svg width="221pt" height="87pt"
 viewBox="0.00 0.00 221.21 86.80" xmlns="http://www.w3.org/2000/svg" xmlns:xlink="http://www.w3.org/1999/xlink">
<g id="graph0" class="graph" transform="scale(1 1) rotate(0) translate(4 82.8)">
<title>finite_state_machine</title>
<polygon fill="#ffffff" stroke="transparent" points="-4,4 -4,-82.8 217.2146,-82.8 217.2146,4 -4,4"/>
<!-- 2 -->
<g id="node1" class="node">
<title>2</title>
<ellipse fill="none" stroke="#000000" cx="191.2146" cy="-22" rx="18" ry="18"/>
<ellipse fill="none" stroke="#000000" cx="191.2146" cy="-22" rx="22" ry="22"/>
<text text-anchor="middle" x="191.2146" y="-17.8" font-family="Times,serif" font-size="14.00" fill="#000000">2</text>
</g>
<!-- 2&#45;&gt;2 -->
<g id="edge4" class="edge">
<title>2&#45;&gt;2</title>
<path fill="none" stroke="#000000" d="M183.5319,-42.9908C182.5834,-53.0872 185.1443,-62 191.2146,-62 195.1034,-62 197.5519,-58.3422 198.5602,-53.0587"/>
<polygon fill="#000000" stroke="#000000" points="202.0606,-53.1023 198.8973,-42.9908 195.0645,-52.868 202.0606,-53.1023"/>
<text text-anchor="middle" x="191.2146" y="-66.2" font-family="Times,serif" font-size="14.00" fill="#000000">a, b</text>
</g>
<g id="node2" class="node">
<title></title>
</g>
<!-- 1 -->
<g id="node3" class="node">
<title>1</title>
<ellipse fill="none" stroke="#000000" cx="109" cy="-22" rx="18" ry="18"/>
<text text-anchor="middle" x="109" y="-17.8" font-family="Times,serif" font-size="14.00" fill="#000000">1</text>
</g>
<!-- &#45;&gt;1 -->
<g id="edge1" class="edge">
<title>&#45;&gt;1</title>
<path fill="none" stroke="#000000" d="M54.3048,-22C62.6909,-22 71.9407,-22 80.4103,-22"/>
<polygon fill="#000000" stroke="#000000" points="80.5976,-25.5001 90.5976,-22 80.5976,-18.5001 80.5976,-25.5001"/>
</g>
<!-- 1&#45;&gt;2 -->
<g id="edge3" class="edge">
<title>1&#45;&gt;2</title>
<path fill="none" stroke="#000000" d="M127.2461,-22C136.4709,-22 147.9479,-22 158.6234,-22"/>
<polygon fill="#000000" stroke="#000000" points="158.9188,-25.5001 168.9187,-22 158.9187,-18.5001 158.9188,-25.5001"/>
<text text-anchor="middle" x="148.1073" y="-26.2" font-family="Times,serif" font-size="14.00" fill="#000000">c</text>
</g>
<!-- 1&#45;&gt;1 -->
<g id="edge2" class="edge">
<title>1&#45;&gt;1</title>
<path fill="none" stroke="#000000" d="M102.6208,-39.0373C101.3189,-48.8579 103.4453,-58 109,-58 112.4717,-58 114.6042,-54.4289 115.3975,-49.3529"/>
<polygon fill="#000000" stroke="#000000" points="118.8971,-49.031 115.3792,-39.0373 111.8971,-49.0435 118.8971,-49.031"/>
<text text-anchor="middle" x="109" y="-62.2" font-family="Times,serif" font-size="14.00" fill="#000000">a, b</text>
</g>
</g>
</svg>
