<?xml version="1.0" encoding="UTF-8" standalone="no"?>
<!DOCTYPE svg PUBLIC "-//W3C//DTD SVG 1.1//EN"
 "http://www.w3.org/Graphics/SVG/1.1/DTD/svg11.dtd">
<!-- Generated by graphviz version 2.40.1 (20161225.0304)
 -->
<!-- Title: finite_state_machine Pages: 1 -->
<svg width="583pt" height="188pt"
 viewBox="0.00 0.00 582.50 188.43" xmlns="http://www.w3.org/2000/svg" xmlns:xlink="http://www.w3.org/1999/xlink">
<g id="graph0" class="graph" transform="scale(1 1) rotate(0) translate(4 184.4324)">
<title>finite_state_machine</title>
<polygon fill="#ffffff" stroke="transparent" points="-4,4 -4,-184.4324 578.504,-184.4324 578.504,4 -4,4"/>
<!-- q4q6 -->
<g id="node1" class="node">
<title>q4q6</title>
<ellipse fill="none" stroke="#000000" cx="436.4528" cy="-57.6324" rx="30.2188" ry="30.2188"/>
<ellipse fill="none" stroke="#000000" cx="436.4528" cy="-57.6324" rx="34.2014" ry="34.2014"/>
<text text-anchor="middle" x="436.4528" y="-53.4324" font-family="Times,serif" font-size="14.00" fill="#000000">q4q6</text>
</g>
<!-- q4q5 -->
<g id="node9" class="node">
<title>q4q5</title>
<ellipse fill="none" stroke="#000000" cx="544.1536" cy="-83.6324" rx="30.2015" ry="30.2015"/>
<text text-anchor="middle" x="544.1536" y="-79.4324" font-family="Times,serif" font-size="14.00" fill="#000000">q4q5</text>
</g>
<!-- q4q6&#45;&gt;q4q5 -->
<g id="edge9" class="edge">
<title>q4q6&#45;&gt;q4q5</title>
<path fill="none" stroke="#000000" d="M466.7356,-73.9405C473.7924,-77.05 481.4099,-79.878 488.8032,-81.6324 493.525,-82.7529 498.5363,-83.5093 503.5394,-84.0016"/>
<polygon fill="#000000" stroke="#000000" points="503.493,-87.5061 513.7021,-84.6734 503.9548,-80.5214 503.493,-87.5061"/>
<text text-anchor="middle" x="492.3032" y="-87.8324" font-family="Times,serif" font-size="14.00" fill="#000000">a</text>
</g>
<!-- q4q6&#45;&gt;q4q5 -->
<g id="edge17" class="edge">
<title>q4q6&#45;&gt;q4q5</title>
<path fill="none" stroke="#000000" d="M471.0003,-57.245C479.2215,-57.7688 487.8992,-58.8373 495.8032,-60.8324 499.9031,-61.8673 504.0752,-63.256 508.1639,-64.8398"/>
<polygon fill="#000000" stroke="#000000" points="506.9083,-68.1093 517.4796,-68.8149 509.6556,-61.671 506.9083,-68.1093"/>
<text text-anchor="middle" x="492.3032" y="-65.8324" font-family="Times,serif" font-size="14.00" fill="#000000">b</text>
</g>
<g id="node2" class="node">
<title></title>
</g>
<!-- q1q5 -->
<g id="node3" class="node">
<title>q1q5</title>
<ellipse fill="none" stroke="#000000" cx="121.3504" cy="-39.6324" rx="30.2015" ry="30.2015"/>
<text text-anchor="middle" x="121.3504" y="-35.4324" font-family="Times,serif" font-size="14.00" fill="#000000">q1q5</text>
</g>
<!-- &#45;&gt;q1q5 -->
<g id="edge1" class="edge">
<title>&#45;&gt;q1q5</title>
<path fill="none" stroke="#000000" d="M54.037,-39.6324C62.4246,-39.6324 71.8578,-39.6324 80.9483,-39.6324"/>
<polygon fill="#000000" stroke="#000000" points="80.9923,-43.1325 90.9922,-39.6324 80.9922,-36.1325 80.9923,-43.1325"/>
</g>
<!-- q2q6 -->
<g id="node4" class="node">
<title>q2q6</title>
<ellipse fill="none" stroke="#000000" cx="225.0512" cy="-39.6324" rx="30.2015" ry="30.2015"/>
<text text-anchor="middle" x="225.0512" y="-35.4324" font-family="Times,serif" font-size="14.00" fill="#000000">q2q6</text>
</g>
<!-- q1q5&#45;&gt;q2q6 -->
<g id="edge2" class="edge">
<title>q1q5&#45;&gt;q2q6</title>
<path fill="none" stroke="#000000" d="M151.9032,-39.6324C162.0448,-39.6324 173.5021,-39.6324 184.288,-39.6324"/>
<polygon fill="#000000" stroke="#000000" points="184.3585,-43.1325 194.3584,-39.6324 184.3584,-36.1325 184.3585,-43.1325"/>
<text text-anchor="middle" x="173.2008" y="-43.8324" font-family="Times,serif" font-size="14.00" fill="#000000">a</text>
</g>
<!-- q1q5&#45;&gt;q2q6 -->
<g id="edge10" class="edge">
<title>q1q5&#45;&gt;q2q6</title>
<path fill="none" stroke="#000000" d="M148.5893,-25.6408C155.3191,-22.827 162.6302,-20.2887 169.7008,-18.8324 176.2331,-17.4869 183.0147,-18.164 189.4984,-19.9238"/>
<polygon fill="#000000" stroke="#000000" points="188.7685,-23.3795 199.3631,-23.4451 191.1218,-16.7869 188.7685,-23.3795"/>
<text text-anchor="middle" x="173.2008" y="-23.8324" font-family="Times,serif" font-size="14.00" fill="#000000">b</text>
</g>
<!-- q3q5 -->
<g id="node8" class="node">
<title>q3q5</title>
<ellipse fill="none" stroke="#000000" cx="328.752" cy="-39.6324" rx="30.2015" ry="30.2015"/>
<text text-anchor="middle" x="328.752" y="-35.4324" font-family="Times,serif" font-size="14.00" fill="#000000">q3q5</text>
</g>
<!-- q2q6&#45;&gt;q3q5 -->
<g id="edge5" class="edge">
<title>q2q6&#45;&gt;q3q5</title>
<path fill="none" stroke="#000000" d="M255.604,-39.6324C265.7456,-39.6324 277.2029,-39.6324 287.9888,-39.6324"/>
<polygon fill="#000000" stroke="#000000" points="288.0593,-43.1325 298.0592,-39.6324 288.0592,-36.1325 288.0593,-43.1325"/>
<text text-anchor="middle" x="276.9016" y="-43.8324" font-family="Times,serif" font-size="14.00" fill="#000000">a</text>
</g>
<!-- q2q6&#45;&gt;q3q5 -->
<g id="edge13" class="edge">
<title>q2q6&#45;&gt;q3q5</title>
<path fill="none" stroke="#000000" d="M250.7393,-23.4451C259.9147,-19.4283 270.4476,-16.7822 280.4016,-18.8324 284.2683,-19.6288 288.207,-20.7488 292.0831,-22.0605"/>
<polygon fill="#000000" stroke="#000000" points="290.9219,-25.3634 301.5131,-25.6408 293.4066,-18.8192 290.9219,-25.3634"/>
<text text-anchor="middle" x="276.9016" y="-23.8324" font-family="Times,serif" font-size="14.00" fill="#000000">b</text>
</g>
<!-- q1q6 -->
<g id="node5" class="node">
<title>q1q6</title>
<ellipse fill="none" stroke="#000000" cx="225.0512" cy="-128.6324" rx="30.2015" ry="30.2015"/>
<text text-anchor="middle" x="225.0512" y="-124.4324" font-family="Times,serif" font-size="14.00" fill="#000000">q1q6</text>
</g>
<!-- q2q5 -->
<g id="node6" class="node">
<title>q2q5</title>
<ellipse fill="none" stroke="#000000" cx="328.752" cy="-128.6324" rx="30.2015" ry="30.2015"/>
<text text-anchor="middle" x="328.752" y="-124.4324" font-family="Times,serif" font-size="14.00" fill="#000000">q2q5</text>
</g>
<!-- q1q6&#45;&gt;q2q5 -->
<g id="edge3" class="edge">
<title>q1q6&#45;&gt;q2q5</title>
<path fill="none" stroke="#000000" d="M255.4922,-131.2145C263.5849,-131.6459 272.3217,-131.8828 280.4016,-131.6324 282.9392,-131.5537 285.5507,-131.4519 288.1833,-131.3335"/>
<polygon fill="#000000" stroke="#000000" points="288.5249,-134.8206 298.3306,-130.8083 288.163,-127.83 288.5249,-134.8206"/>
<text text-anchor="middle" x="276.9016" y="-135.8324" font-family="Times,serif" font-size="14.00" fill="#000000">a</text>
</g>
<!-- q1q6&#45;&gt;q2q5 -->
<g id="edge11" class="edge">
<title>q1q6&#45;&gt;q2q5</title>
<path fill="none" stroke="#000000" d="M252.9648,-116.4673C259.5449,-114.1328 266.6208,-112.0409 273.4016,-110.8324 279.4495,-109.7545 285.7501,-110.1951 291.8413,-111.4931"/>
<polygon fill="#000000" stroke="#000000" points="291.235,-114.9609 301.8134,-114.3704 293.1756,-108.2352 291.235,-114.9609"/>
<text text-anchor="middle" x="276.9016" y="-115.8324" font-family="Times,serif" font-size="14.00" fill="#000000">b</text>
</g>
<!-- q3q6 -->
<g id="node7" class="node">
<title>q3q6</title>
<ellipse fill="none" stroke="#000000" cx="436.4528" cy="-149.6324" rx="30.2015" ry="30.2015"/>
<text text-anchor="middle" x="436.4528" y="-145.4324" font-family="Times,serif" font-size="14.00" fill="#000000">q3q6</text>
</g>
<!-- q2q5&#45;&gt;q3q6 -->
<g id="edge4" class="edge">
<title>q2q5&#45;&gt;q3q6</title>
<path fill="none" stroke="#000000" d="M358.7527,-134.4821C370.423,-136.7576 383.9661,-139.3983 396.4452,-141.8315"/>
<polygon fill="#000000" stroke="#000000" points="396.128,-145.3355 406.613,-143.8141 397.4677,-138.4649 396.128,-145.3355"/>
<text text-anchor="middle" x="380.6024" y="-142.8324" font-family="Times,serif" font-size="14.00" fill="#000000">a</text>
</g>
<!-- q2q5&#45;&gt;q3q6 -->
<g id="edge12" class="edge">
<title>q2q5&#45;&gt;q3q6</title>
<path fill="none" stroke="#000000" d="M357.0985,-117.2349C365.8228,-115.1573 375.4147,-114.3356 384.1024,-116.8324 390.8203,-118.7631 397.5105,-121.8365 403.7518,-125.3457"/>
<polygon fill="#000000" stroke="#000000" points="402.1695,-128.4808 412.5257,-130.7166 405.8241,-122.5105 402.1695,-128.4808"/>
<text text-anchor="middle" x="380.6024" y="-121.8324" font-family="Times,serif" font-size="14.00" fill="#000000">b</text>
</g>
<!-- q3q6&#45;&gt;q4q5 -->
<g id="edge7" class="edge">
<title>q3q6&#45;&gt;q4q5</title>
<path fill="none" stroke="#000000" d="M463.974,-162.8357C474.4414,-165.947 486.1588,-167.0011 495.8032,-161.6324 511.3662,-152.969 522.5573,-136.9968 530.2269,-121.7515"/>
<polygon fill="#000000" stroke="#000000" points="533.5203,-122.9692 534.5549,-112.425 527.1707,-120.0226 533.5203,-122.9692"/>
<text text-anchor="middle" x="492.3032" y="-167.8324" font-family="Times,serif" font-size="14.00" fill="#000000">a</text>
</g>
<!-- q3q6&#45;&gt;q4q5 -->
<g id="edge15" class="edge">
<title>q3q6&#45;&gt;q4q5</title>
<path fill="none" stroke="#000000" d="M462.5241,-133.6556C476.5752,-125.045 494.101,-114.3051 509.3075,-104.9864"/>
<polygon fill="#000000" stroke="#000000" points="511.2514,-107.9001 517.949,-99.6908 507.5939,-101.9316 511.2514,-107.9001"/>
<text text-anchor="middle" x="492.3032" y="-120.8324" font-family="Times,serif" font-size="14.00" fill="#000000">b</text>
</g>
<!-- q3q5&#45;&gt;q4q6 -->
<g id="edge6" class="edge">
<title>q3q5&#45;&gt;q4q6</title>
<path fill="none" stroke="#000000" d="M356.6554,-51.9336C363.236,-54.2944 370.3147,-56.4099 377.1024,-57.6324 381.859,-58.4891 386.8651,-59.0318 391.8695,-59.3469"/>
<polygon fill="#000000" stroke="#000000" points="391.9432,-62.8515 402.059,-59.7016 392.1868,-55.8557 391.9432,-62.8515"/>
<text text-anchor="middle" x="380.6024" y="-62.8324" font-family="Times,serif" font-size="14.00" fill="#000000">a</text>
</g>
<!-- q3q5&#45;&gt;q4q6 -->
<g id="edge14" class="edge">
<title>q3q5&#45;&gt;q4q6</title>
<path fill="none" stroke="#000000" d="M359.0962,-35.4957C367.2691,-35.0873 376.0697,-35.2951 384.1024,-36.8324 387.937,-37.5663 391.8488,-38.5771 395.7204,-39.7607"/>
<polygon fill="#000000" stroke="#000000" points="394.5999,-43.0764 405.1945,-42.9991 396.8641,-36.4527 394.5999,-43.0764"/>
<text text-anchor="middle" x="380.6024" y="-41.8324" font-family="Times,serif" font-size="14.00" fill="#000000">b</text>
</g>
<!-- q4q5&#45;&gt;q4q6 -->
<g id="edge8" class="edge">
<title>q4q5&#45;&gt;q4q6</title>
<path fill="none" stroke="#000000" d="M529.6509,-56.9083C521.4713,-44.7277 510.0239,-31.5499 495.8032,-24.8324 486.9547,-20.6525 477.5949,-22.6454 468.9889,-27.243"/>
<polygon fill="#000000" stroke="#000000" points="466.8459,-24.4606 460.3463,-32.8276 470.645,-30.34 466.8459,-24.4606"/>
<text text-anchor="middle" x="492.3032" y="-29.8324" font-family="Times,serif" font-size="14.00" fill="#000000">a</text>
</g>
<!-- q4q5&#45;&gt;q4q6 -->
<g id="edge16" class="edge">
<title>q4q5&#45;&gt;q4q6</title>
<path fill="none" stroke="#000000" d="M535.1532,-54.6468C527.763,-36.2422 515.2857,-13.8784 495.8032,-2.8324 481.8314,5.0892 468.4826,-5.0438 457.9957,-18.663"/>
<polygon fill="#000000" stroke="#000000" points="455.0434,-16.7771 452.1687,-26.9746 460.7751,-20.7955 455.0434,-16.7771"/>
<text text-anchor="middle" x="492.3032" y="-7.8324" font-family="Times,serif" font-size="14.00" fill="#000000">b</text>
</g>
</g>
</svg>
