<?xml version="1.0" encoding="UTF-8" standalone="no"?>
<!DOCTYPE svg PUBLIC "-//W3C//DTD SVG 1.1//EN"
 "http://www.w3.org/Graphics/SVG/1.1/DTD/svg11.dtd">
<!-- Generated by graphviz version 2.40.1 (20161225.0304)
 -->
<!-- Title: finite_state_machine Pages: 1 -->
<svg width="583pt" height="498pt"
 viewBox="0.00 0.00 582.50 497.84" xmlns="http://www.w3.org/2000/svg" xmlns:xlink="http://www.w3.org/1999/xlink">
<g id="graph0" class="graph" transform="scale(1 1) rotate(0) translate(4 493.8439)">
<title>finite_state_machine</title>
<polygon fill="#ffffff" stroke="transparent" points="-4,4 -4,-493.8439 578.504,-493.8439 578.504,4 -4,4"/>
<!-- q1 -->
<g id="node1" class="node">
<title>q1</title>
<ellipse fill="none" stroke="#000000" cx="121.3504" cy="-24.6935" rx="20.8887" ry="20.8887"/>
<text text-anchor="middle" x="121.3504" y="-20.4935" font-family="Times,serif" font-size="14.00" fill="#000000">q1</text>
</g>
<!-- q1&#45;&gt;q1 -->
<g id="edge3" class="edge">
<title>q1&#45;&gt;q1</title>
<path fill="none" stroke="#000000" d="M112.7217,-43.8056C111.2554,-54.052 114.1316,-63.3869 121.3504,-63.3869 125.9749,-63.3869 128.8172,-59.5559 129.8774,-54.1084"/>
<polygon fill="#000000" stroke="#000000" points="133.3801,-53.8397 129.9791,-43.8056 126.3805,-53.7705 133.3801,-53.8397"/>
<text text-anchor="middle" x="121.3504" y="-67.5869" font-family="Times,serif" font-size="14.00" fill="#000000">b</text>
</g>
<!-- q2 -->
<g id="node2" class="node">
<title>q2</title>
<ellipse fill="none" stroke="#000000" cx="225.0512" cy="-24.6935" rx="20.8887" ry="20.8887"/>
<text text-anchor="middle" x="225.0512" y="-20.4935" font-family="Times,serif" font-size="14.00" fill="#000000">q2</text>
</g>
<!-- q1&#45;&gt;q2 -->
<g id="edge2" class="edge">
<title>q1&#45;&gt;q2</title>
<path fill="none" stroke="#000000" d="M142.3358,-24.6935C157.0946,-24.6935 177.0989,-24.6935 193.7378,-24.6935"/>
<polygon fill="#000000" stroke="#000000" points="194.097,-28.1935 204.097,-24.6935 194.097,-21.1935 194.097,-28.1935"/>
<text text-anchor="middle" x="173.2008" y="-28.8935" font-family="Times,serif" font-size="14.00" fill="#000000">a</text>
</g>
<!-- q2&#45;&gt;q2 -->
<g id="edge5" class="edge">
<title>q2&#45;&gt;q2</title>
<path fill="none" stroke="#000000" d="M216.1248,-43.4059C214.4585,-53.808 217.434,-63.3869 225.0512,-63.3869 230.05,-63.3869 233.0497,-59.2616 234.0505,-53.4856"/>
<polygon fill="#000000" stroke="#000000" points="237.5499,-53.3803 233.9776,-43.4059 230.5501,-53.431 237.5499,-53.3803"/>
<text text-anchor="middle" x="225.0512" y="-67.5869" font-family="Times,serif" font-size="14.00" fill="#000000">b</text>
</g>
<!-- q3 -->
<g id="node13" class="node">
<title>q3</title>
<ellipse fill="none" stroke="#000000" cx="328.752" cy="-24.6935" rx="20.8568" ry="20.8568"/>
<ellipse fill="none" stroke="#000000" cx="328.752" cy="-24.6935" rx="24.8884" ry="24.8884"/>
<text text-anchor="middle" x="328.752" y="-20.4935" font-family="Times,serif" font-size="14.00" fill="#000000">q3</text>
</g>
<!-- q2&#45;&gt;q3 -->
<g id="edge4" class="edge">
<title>q2&#45;&gt;q3</title>
<path fill="none" stroke="#000000" d="M246.0366,-24.6935C259.7273,-24.6935 277.9318,-24.6935 293.7766,-24.6935"/>
<polygon fill="#000000" stroke="#000000" points="293.777,-28.1936 303.777,-24.6935 293.7769,-21.1936 293.777,-28.1936"/>
<text text-anchor="middle" x="276.9016" y="-28.8935" font-family="Times,serif" font-size="14.00" fill="#000000">a</text>
</g>
<!-- q4 -->
<g id="node3" class="node">
<title>q4</title>
<ellipse fill="none" stroke="#000000" cx="121.3504" cy="-125.6935" rx="20.8887" ry="20.8887"/>
<text text-anchor="middle" x="121.3504" y="-121.4935" font-family="Times,serif" font-size="14.00" fill="#000000">q4</text>
</g>
<!-- q4&#45;&gt;q4 -->
<g id="edge9" class="edge">
<title>q4&#45;&gt;q4</title>
<path fill="none" stroke="#000000" d="M112.7217,-144.8056C111.2554,-155.052 114.1316,-164.3869 121.3504,-164.3869 125.9749,-164.3869 128.8172,-160.5559 129.8774,-155.1084"/>
<polygon fill="#000000" stroke="#000000" points="133.3801,-154.8397 129.9791,-144.8056 126.3805,-154.7705 133.3801,-154.8397"/>
<text text-anchor="middle" x="121.3504" y="-168.5869" font-family="Times,serif" font-size="14.00" fill="#000000">a</text>
</g>
<!-- q5 -->
<g id="node4" class="node">
<title>q5</title>
<ellipse fill="none" stroke="#000000" cx="225.0512" cy="-125.6935" rx="20.8887" ry="20.8887"/>
<text text-anchor="middle" x="225.0512" y="-121.4935" font-family="Times,serif" font-size="14.00" fill="#000000">q5</text>
</g>
<!-- q4&#45;&gt;q5 -->
<g id="edge8" class="edge">
<title>q4&#45;&gt;q5</title>
<path fill="none" stroke="#000000" d="M142.3358,-125.6935C157.0946,-125.6935 177.0989,-125.6935 193.7378,-125.6935"/>
<polygon fill="#000000" stroke="#000000" points="194.097,-129.1935 204.097,-125.6935 194.097,-122.1935 194.097,-129.1935"/>
<text text-anchor="middle" x="173.2008" y="-129.8935" font-family="Times,serif" font-size="14.00" fill="#000000">b</text>
</g>
<!-- q5&#45;&gt;q5 -->
<g id="edge11" class="edge">
<title>q5&#45;&gt;q5</title>
<path fill="none" stroke="#000000" d="M216.1248,-144.4059C214.4585,-154.808 217.434,-164.3869 225.0512,-164.3869 230.05,-164.3869 233.0497,-160.2616 234.0505,-154.4856"/>
<polygon fill="#000000" stroke="#000000" points="237.5499,-154.3803 233.9776,-144.4059 230.5501,-154.431 237.5499,-154.3803"/>
<text text-anchor="middle" x="225.0512" y="-168.5869" font-family="Times,serif" font-size="14.00" fill="#000000">a</text>
</g>
<!-- q6 -->
<g id="node14" class="node">
<title>q6</title>
<ellipse fill="none" stroke="#000000" cx="328.752" cy="-125.6935" rx="20.8568" ry="20.8568"/>
<ellipse fill="none" stroke="#000000" cx="328.752" cy="-125.6935" rx="24.8884" ry="24.8884"/>
<text text-anchor="middle" x="328.752" y="-121.4935" font-family="Times,serif" font-size="14.00" fill="#000000">q6</text>
</g>
<!-- q5&#45;&gt;q6 -->
<g id="edge10" class="edge">
<title>q5&#45;&gt;q6</title>
<path fill="none" stroke="#000000" d="M246.0366,-125.6935C259.7273,-125.6935 277.9318,-125.6935 293.7766,-125.6935"/>
<polygon fill="#000000" stroke="#000000" points="293.777,-129.1936 303.777,-125.6935 293.7769,-122.1936 293.777,-129.1936"/>
<text text-anchor="middle" x="276.9016" y="-129.8935" font-family="Times,serif" font-size="14.00" fill="#000000">b</text>
</g>
<!-- q1q4 -->
<g id="node5" class="node">
<title>q1q4</title>
<ellipse fill="none" stroke="#000000" cx="121.3504" cy="-321.6935" rx="30.2015" ry="30.2015"/>
<text text-anchor="middle" x="121.3504" y="-317.4935" font-family="Times,serif" font-size="14.00" fill="#000000">q1q4</text>
</g>
<!-- q2q4 -->
<g id="node6" class="node">
<title>q2q4</title>
<ellipse fill="none" stroke="#000000" cx="225.0512" cy="-370.6935" rx="30.2015" ry="30.2015"/>
<text text-anchor="middle" x="225.0512" y="-366.4935" font-family="Times,serif" font-size="14.00" fill="#000000">q2q4</text>
</g>
<!-- q1q4&#45;&gt;q2q4 -->
<g id="edge14" class="edge">
<title>q1q4&#45;&gt;q2q4</title>
<path fill="none" stroke="#000000" d="M148.868,-334.6959C160.9391,-340.3996 175.2856,-347.1786 188.256,-353.3072"/>
<polygon fill="#000000" stroke="#000000" points="186.8682,-356.5225 197.405,-357.6302 189.8588,-350.1934 186.8682,-356.5225"/>
<text text-anchor="middle" x="173.2008" y="-351.8935" font-family="Times,serif" font-size="14.00" fill="#000000">a</text>
</g>
<!-- q1q5 -->
<g id="node7" class="node">
<title>q1q5</title>
<ellipse fill="none" stroke="#000000" cx="225.0512" cy="-291.6935" rx="30.2015" ry="30.2015"/>
<text text-anchor="middle" x="225.0512" y="-287.4935" font-family="Times,serif" font-size="14.00" fill="#000000">q1q5</text>
</g>
<!-- q1q4&#45;&gt;q1q5 -->
<g id="edge15" class="edge">
<title>q1q4&#45;&gt;q1q5</title>
<path fill="none" stroke="#000000" d="M150.5128,-313.2569C161.5581,-310.0616 174.3143,-306.3713 186.1169,-302.9569"/>
<polygon fill="#000000" stroke="#000000" points="187.1149,-306.3118 195.7484,-300.1706 185.1696,-299.5875 187.1149,-306.3118"/>
<text text-anchor="middle" x="173.2008" y="-311.8935" font-family="Times,serif" font-size="14.00" fill="#000000">b</text>
</g>
<!-- q3q4 -->
<g id="node8" class="node">
<title>q3q4</title>
<ellipse fill="none" stroke="#000000" cx="328.752" cy="-424.6935" rx="30.2015" ry="30.2015"/>
<text text-anchor="middle" x="328.752" y="-420.4935" font-family="Times,serif" font-size="14.00" fill="#000000">q3q4</text>
</g>
<!-- q2q4&#45;&gt;q3q4 -->
<g id="edge16" class="edge">
<title>q2q4&#45;&gt;q3q4</title>
<path fill="none" stroke="#000000" d="M252.0266,-384.7404C264.4116,-391.1896 279.278,-398.9309 292.6132,-405.8749"/>
<polygon fill="#000000" stroke="#000000" points="291.0653,-409.015 301.5513,-410.5293 294.2984,-402.8063 291.0653,-409.015"/>
<text text-anchor="middle" x="276.9016" y="-402.8935" font-family="Times,serif" font-size="14.00" fill="#000000">a</text>
</g>
<!-- q2q5 -->
<g id="node9" class="node">
<title>q2q5</title>
<ellipse fill="none" stroke="#000000" cx="328.752" cy="-345.6935" rx="30.2015" ry="30.2015"/>
<text text-anchor="middle" x="328.752" y="-341.4935" font-family="Times,serif" font-size="14.00" fill="#000000">q2q5</text>
</g>
<!-- q2q4&#45;&gt;q2q5 -->
<g id="edge17" class="edge">
<title>q2q4&#45;&gt;q2q5</title>
<path fill="none" stroke="#000000" d="M254.7677,-363.5295C265.5071,-360.9404 277.8061,-357.9754 289.2524,-355.2159"/>
<polygon fill="#000000" stroke="#000000" points="290.13,-358.6047 299.0312,-352.8585 288.4894,-351.7997 290.13,-358.6047"/>
<text text-anchor="middle" x="276.9016" y="-362.8935" font-family="Times,serif" font-size="14.00" fill="#000000">b</text>
</g>
<!-- q1q5&#45;&gt;q2q5 -->
<g id="edge26" class="edge">
<title>q1q5&#45;&gt;q2q5</title>
<path fill="none" stroke="#000000" d="M252.0266,-305.7404C264.4116,-312.1896 279.278,-319.9309 292.6132,-326.8749"/>
<polygon fill="#000000" stroke="#000000" points="291.0653,-330.015 301.5513,-331.5293 294.2984,-323.8063 291.0653,-330.015"/>
<text text-anchor="middle" x="276.9016" y="-324.8935" font-family="Times,serif" font-size="14.00" fill="#000000">a</text>
</g>
<!-- q1q6 -->
<g id="node10" class="node">
<title>q1q6</title>
<ellipse fill="none" stroke="#000000" cx="328.752" cy="-232.6935" rx="30.2015" ry="30.2015"/>
<text text-anchor="middle" x="328.752" y="-228.4935" font-family="Times,serif" font-size="14.00" fill="#000000">q1q6</text>
</g>
<!-- q1q5&#45;&gt;q1q6 -->
<g id="edge27" class="edge">
<title>q1q5&#45;&gt;q1q6</title>
<path fill="none" stroke="#000000" d="M251.4876,-276.6526C264.2861,-269.371 279.8292,-260.5278 293.6094,-252.6876"/>
<polygon fill="#000000" stroke="#000000" points="295.4029,-255.6941 302.3639,-247.7068 291.9413,-249.6099 295.4029,-255.6941"/>
<text text-anchor="middle" x="276.9016" y="-268.8935" font-family="Times,serif" font-size="14.00" fill="#000000">b</text>
</g>
<!-- q3q4&#45;&gt;q3q4 -->
<g id="edge18" class="edge">
<title>q3q4&#45;&gt;q3q4</title>
<path fill="none" stroke="#000000" d="M319.3861,-453.9624C319.1847,-464.4739 322.3067,-473.0439 328.752,-473.0439 332.881,-473.0439 335.6461,-469.5268 337.0473,-464.2352"/>
<polygon fill="#000000" stroke="#000000" points="340.5624,-464.2713 338.1178,-453.9624 333.6001,-463.5457 340.5624,-464.2713"/>
<text text-anchor="middle" x="328.752" y="-477.2439" font-family="Times,serif" font-size="14.00" fill="#000000">a</text>
</g>
<!-- q3q5 -->
<g id="node12" class="node">
<title>q3q5</title>
<ellipse fill="none" stroke="#000000" cx="432.4528" cy="-389.6935" rx="30.2015" ry="30.2015"/>
<text text-anchor="middle" x="432.4528" y="-385.4935" font-family="Times,serif" font-size="14.00" fill="#000000">q3q5</text>
</g>
<!-- q3q4&#45;&gt;q3q5 -->
<g id="edge19" class="edge">
<title>q3q4&#45;&gt;q3q5</title>
<path fill="none" stroke="#000000" d="M357.6384,-414.944C368.7817,-411.183 381.6983,-406.8236 393.6305,-402.7963"/>
<polygon fill="#000000" stroke="#000000" points="395.006,-406.0262 403.3616,-399.512 392.7674,-399.3937 395.006,-406.0262"/>
<text text-anchor="middle" x="380.6024" y="-411.8935" font-family="Times,serif" font-size="14.00" fill="#000000">b</text>
</g>
<!-- q2q6 -->
<g id="node11" class="node">
<title>q2q6</title>
<ellipse fill="none" stroke="#000000" cx="432.4528" cy="-276.6935" rx="30.2015" ry="30.2015"/>
<text text-anchor="middle" x="432.4528" y="-272.4935" font-family="Times,serif" font-size="14.00" fill="#000000">q2q6</text>
</g>
<!-- q2q5&#45;&gt;q2q6 -->
<g id="edge22" class="edge">
<title>q2q5&#45;&gt;q2q6</title>
<path fill="none" stroke="#000000" d="M354.1201,-328.8142C367.4278,-319.9595 383.9171,-308.9879 398.3291,-299.3985"/>
<polygon fill="#000000" stroke="#000000" points="400.6006,-302.0912 406.9872,-293.6376 396.7229,-296.2633 400.6006,-302.0912"/>
<text text-anchor="middle" x="380.6024" y="-317.8935" font-family="Times,serif" font-size="14.00" fill="#000000">b</text>
</g>
<!-- q2q5&#45;&gt;q3q5 -->
<g id="edge20" class="edge">
<title>q2q5&#45;&gt;q3q5</title>
<path fill="none" stroke="#000000" d="M356.8149,-357.6005C368.5735,-362.5896 382.4159,-368.4629 395.0227,-373.812"/>
<polygon fill="#000000" stroke="#000000" points="393.7947,-377.0929 404.3674,-377.7769 396.5289,-370.6489 393.7947,-377.0929"/>
<text text-anchor="middle" x="380.6024" y="-372.8935" font-family="Times,serif" font-size="14.00" fill="#000000">a</text>
</g>
<!-- q1q6&#45;&gt;q1q6 -->
<g id="edge28" class="edge">
<title>q1q6&#45;&gt;q1q6</title>
<path fill="none" stroke="#000000" d="M319.3861,-261.9624C319.1847,-272.4739 322.3067,-281.0439 328.752,-281.0439 332.881,-281.0439 335.6461,-277.5268 337.0473,-272.2352"/>
<polygon fill="#000000" stroke="#000000" points="340.5624,-272.2713 338.1178,-261.9624 333.6001,-271.5457 340.5624,-272.2713"/>
<text text-anchor="middle" x="328.752" y="-285.2439" font-family="Times,serif" font-size="14.00" fill="#000000">b</text>
</g>
<!-- q1q6&#45;&gt;q2q6 -->
<g id="edge29" class="edge">
<title>q1q6&#45;&gt;q2q6</title>
<path fill="none" stroke="#000000" d="M356.8149,-244.6005C368.5735,-249.5896 382.4159,-255.4629 395.0227,-260.812"/>
<polygon fill="#000000" stroke="#000000" points="393.7947,-264.0929 404.3674,-264.7769 396.5289,-257.6489 393.7947,-264.0929"/>
<text text-anchor="middle" x="380.6024" y="-260.8935" font-family="Times,serif" font-size="14.00" fill="#000000">a</text>
</g>
<!-- q2q6&#45;&gt;q2q6 -->
<g id="edge24" class="edge">
<title>q2q6&#45;&gt;q2q6</title>
<path fill="none" stroke="#000000" d="M423.0869,-305.9624C422.8855,-316.4739 426.0075,-325.0439 432.4528,-325.0439 436.5818,-325.0439 439.3469,-321.5268 440.7481,-316.2352"/>
<polygon fill="#000000" stroke="#000000" points="444.2632,-316.2713 441.8186,-305.9624 437.3009,-315.5457 444.2632,-316.2713"/>
<text text-anchor="middle" x="432.4528" y="-329.2439" font-family="Times,serif" font-size="14.00" fill="#000000">b</text>
</g>
<!-- q3q6 -->
<g id="node15" class="node">
<title>q3q6</title>
<ellipse fill="none" stroke="#000000" cx="540.1536" cy="-332.6935" rx="30.2188" ry="30.2188"/>
<ellipse fill="none" stroke="#000000" cx="540.1536" cy="-332.6935" rx="34.2014" ry="34.2014"/>
<text text-anchor="middle" x="540.1536" y="-328.4935" font-family="Times,serif" font-size="14.00" fill="#000000">q3q6</text>
</g>
<!-- q2q6&#45;&gt;q3q6 -->
<g id="edge25" class="edge">
<title>q2q6&#45;&gt;q3q6</title>
<path fill="none" stroke="#000000" d="M459.6302,-290.8246C471.9843,-297.2482 486.844,-304.9746 500.4167,-312.0319"/>
<polygon fill="#000000" stroke="#000000" points="499.074,-315.2786 509.561,-316.7865 502.3033,-309.0679 499.074,-315.2786"/>
<text text-anchor="middle" x="484.3032" y="-308.8935" font-family="Times,serif" font-size="14.00" fill="#000000">a</text>
</g>
<!-- q3q5&#45;&gt;q3q5 -->
<g id="edge21" class="edge">
<title>q3q5&#45;&gt;q3q5</title>
<path fill="none" stroke="#000000" d="M423.0869,-418.9624C422.8855,-429.4739 426.0075,-438.0439 432.4528,-438.0439 436.5818,-438.0439 439.3469,-434.5268 440.7481,-429.2352"/>
<polygon fill="#000000" stroke="#000000" points="444.2632,-429.2713 441.8186,-418.9624 437.3009,-428.5457 444.2632,-429.2713"/>
<text text-anchor="middle" x="432.4528" y="-442.2439" font-family="Times,serif" font-size="14.00" fill="#000000">a</text>
</g>
<!-- q3q5&#45;&gt;q3q6 -->
<g id="edge23" class="edge">
<title>q3q5&#45;&gt;q3q6</title>
<path fill="none" stroke="#000000" d="M459.3524,-375.457C471.7044,-368.9198 486.6053,-361.0336 500.2293,-353.8232"/>
<polygon fill="#000000" stroke="#000000" points="502.2089,-356.7354 509.4102,-348.9642 498.9345,-350.5485 502.2089,-356.7354"/>
<text text-anchor="middle" x="484.3032" y="-366.8935" font-family="Times,serif" font-size="14.00" fill="#000000">b</text>
</g>
<!-- q3&#45;&gt;q3 -->
<g id="edge6" class="edge">
<title>q3&#45;&gt;q3</title>
<path fill="none" stroke="#000000" d="M319.5235,-47.9685C318.6446,-58.3813 321.7207,-67.3869 328.752,-67.3869 333.2564,-67.3869 336.1376,-63.691 337.3957,-58.2969"/>
<polygon fill="#000000" stroke="#000000" points="340.9095,-58.1504 337.9805,-47.9685 333.9207,-57.7546 340.9095,-58.1504"/>
<text text-anchor="middle" x="328.752" y="-71.5869" font-family="Times,serif" font-size="14.00" fill="#000000">a,b</text>
</g>
<!-- q6&#45;&gt;q6 -->
<g id="edge12" class="edge">
<title>q6&#45;&gt;q6</title>
<path fill="none" stroke="#000000" d="M319.5235,-148.9685C318.6446,-159.3813 321.7207,-168.3869 328.752,-168.3869 333.2564,-168.3869 336.1376,-164.691 337.3957,-159.2969"/>
<polygon fill="#000000" stroke="#000000" points="340.9095,-159.1504 337.9805,-148.9685 333.9207,-158.7546 340.9095,-159.1504"/>
<text text-anchor="middle" x="328.752" y="-172.5869" font-family="Times,serif" font-size="14.00" fill="#000000">a,b</text>
</g>
<!-- q3q6&#45;&gt;q3q6 -->
<g id="edge30" class="edge">
<title>q3q6&#45;&gt;q3q6</title>
<path fill="none" stroke="#000000" d="M530.0292,-365.6677C530.0815,-376.4546 533.4563,-385.0439 540.1536,-385.0439 544.5487,-385.0439 547.5129,-381.3448 549.0462,-375.753"/>
<polygon fill="#000000" stroke="#000000" points="552.5397,-376.0183 550.278,-365.6677 545.5914,-375.1696 552.5397,-376.0183"/>
<text text-anchor="middle" x="540.1536" y="-389.2439" font-family="Times,serif" font-size="14.00" fill="#000000">a,b</text>
</g>
<g id="node16" class="node">
<title></title>
</g>
<!-- &#45;&gt;q1 -->
<g id="edge1" class="edge">
<title>&#45;&gt;q1</title>
<path fill="none" stroke="#000000" d="M54.037,-24.6935C65.377,-24.6935 78.6283,-24.6935 90.36,-24.6935"/>
<polygon fill="#000000" stroke="#000000" points="90.6084,-28.1936 100.6083,-24.6935 90.6083,-21.1936 90.6084,-28.1936"/>
</g>
<!--   -->
<g id="node17" class="node">
<title> </title>
<text text-anchor="middle" x="27" y="-121.4935" font-family="Times,serif" font-size="14.00" fill="#000000"> </text>
</g>
<!--  &#45;&gt;q4 -->
<g id="edge7" class="edge">
<title> &#45;&gt;q4</title>
<path fill="none" stroke="#000000" d="M54.037,-125.6935C65.377,-125.6935 78.6283,-125.6935 90.36,-125.6935"/>
<polygon fill="#000000" stroke="#000000" points="90.6084,-129.1936 100.6083,-125.6935 90.6083,-122.1936 90.6084,-129.1936"/>
</g>
<!--  &#160; -->
<g id="node18" class="node">
<title> &#160;</title>
<text text-anchor="middle" x="27" y="-317.4935" font-family="Times,serif" font-size="14.00" fill="#000000"> &#160;</text>
</g>
<!--  &#160;&#45;&gt;q1q4 -->
<g id="edge13" class="edge">
<title> &#160;&#45;&gt;q1q4</title>
<path fill="none" stroke="#000000" d="M54.037,-321.6935C62.4246,-321.6935 71.8578,-321.6935 80.9483,-321.6935"/>
<polygon fill="#000000" stroke="#000000" points="80.9923,-325.1936 90.9922,-321.6935 80.9922,-318.1936 80.9923,-325.1936"/>
</g>
</g>
</svg>
