<?xml version="1.0" encoding="UTF-8" standalone="no"?>
<!DOCTYPE svg PUBLIC "-//W3C//DTD SVG 1.1//EN"
 "http://www.w3.org/Graphics/SVG/1.1/DTD/svg11.dtd">
<!-- Generated by graphviz version 2.40.1 (20161225.0304)
 -->
<!-- Title: finite_state_machine Pages: 1 -->
<svg width="602pt" height="218pt"
 viewBox="0.00 0.00 601.93 218.04" xmlns="http://www.w3.org/2000/svg" xmlns:xlink="http://www.w3.org/1999/xlink">
<g id="graph0" class="graph" transform="scale(1 1) rotate(0) translate(4 214.0439)">
<title>finite_state_machine</title>
<polygon fill="#ffffff" stroke="transparent" points="-4,4 -4,-214.0439 597.9332,-214.0439 597.9332,4 -4,4"/>
<!-- q4 -->
<g id="node1" class="node">
<title>q4</title>
<ellipse fill="none" stroke="#000000" cx="446.1674" cy="-40.6935" rx="20.8568" ry="20.8568"/>
<ellipse fill="none" stroke="#000000" cx="446.1674" cy="-40.6935" rx="24.8884" ry="24.8884"/>
<text text-anchor="middle" x="446.1674" y="-36.4935" font-family="Times,serif" font-size="14.00" fill="#000000">q4</text>
</g>
<!-- q4&#45;&gt;q4 -->
<g id="edge8" class="edge">
<title>q4&#45;&gt;q4</title>
<path fill="none" stroke="#000000" d="M436.2426,-63.5338C435.1599,-74.1294 438.4682,-83.3869 446.1674,-83.3869 451.22,-83.3869 454.3816,-79.4 455.6521,-73.6645"/>
<polygon fill="#000000" stroke="#000000" points="459.1548,-73.6763 456.0922,-63.5338 452.1614,-73.3725 459.1548,-73.6763"/>
<text text-anchor="middle" x="446.1674" y="-87.5869" font-family="Times,serif" font-size="14.00" fill="#000000">a,b</text>
</g>
<!-- q5 -->
<g id="node2" class="node">
<title>q5</title>
<ellipse fill="none" stroke="#000000" cx="121.3504" cy="-104.6935" rx="20.8887" ry="20.8887"/>
<text text-anchor="middle" x="121.3504" y="-100.4935" font-family="Times,serif" font-size="14.00" fill="#000000">q5</text>
</g>
<!-- q6 -->
<g id="node3" class="node">
<title>q6</title>
<ellipse fill="none" stroke="#000000" cx="234.7658" cy="-91.6935" rx="20.8568" ry="20.8568"/>
<ellipse fill="none" stroke="#000000" cx="234.7658" cy="-91.6935" rx="24.8884" ry="24.8884"/>
<text text-anchor="middle" x="234.7658" y="-87.4935" font-family="Times,serif" font-size="14.00" fill="#000000">q6</text>
</g>
<!-- q5&#45;&gt;q6 -->
<g id="edge9" class="edge">
<title>q5&#45;&gt;q6</title>
<path fill="none" stroke="#000000" d="M142.2358,-105.0721C155.0368,-105.0514 171.7303,-104.5717 186.4154,-102.6935 191.1813,-102.0839 196.1672,-101.2172 201.0508,-100.2346"/>
<polygon fill="#000000" stroke="#000000" points="201.8046,-103.6526 210.8278,-98.0999 200.3113,-96.8137 201.8046,-103.6526"/>
<text text-anchor="middle" x="178.0581" y="-108.8935" font-family="Times,serif" font-size="14.00" fill="#000000">a,b</text>
</g>
<!-- q6&#45;&gt;q5 -->
<g id="edge10" class="edge">
<title>q6&#45;&gt;q5</title>
<path fill="none" stroke="#000000" d="M211.1259,-83.9457C198.715,-80.9307 183.3005,-78.8478 169.7008,-81.8935 162.6425,-83.4742 155.4006,-86.2057 148.7409,-89.2407"/>
<polygon fill="#000000" stroke="#000000" points="146.9084,-86.242 139.4897,-93.8059 150.0061,-92.5193 146.9084,-86.242"/>
<text text-anchor="middle" x="178.0581" y="-86.8935" font-family="Times,serif" font-size="14.00" fill="#000000">a,b</text>
</g>
<!-- q2 -->
<g id="node4" class="node">
<title>q2</title>
<ellipse fill="none" stroke="#000000" cx="234.7658" cy="-20.6935" rx="20.8887" ry="20.8887"/>
<text text-anchor="middle" x="234.7658" y="-16.4935" font-family="Times,serif" font-size="14.00" fill="#000000">q2</text>
</g>
<!-- q3 -->
<g id="node5" class="node">
<title>q3</title>
<ellipse fill="none" stroke="#000000" cx="338.4666" cy="-40.6935" rx="20.8887" ry="20.8887"/>
<text text-anchor="middle" x="338.4666" y="-36.4935" font-family="Times,serif" font-size="14.00" fill="#000000">q3</text>
</g>
<!-- q2&#45;&gt;q3 -->
<g id="edge4" class="edge">
<title>q2&#45;&gt;q3</title>
<path fill="none" stroke="#000000" d="M255.4479,-25.0905C264.0021,-26.878 274.0276,-28.9329 283.1162,-30.6935 291.1152,-32.243 299.7798,-33.8447 307.8264,-35.3"/>
<polygon fill="#000000" stroke="#000000" points="307.48,-38.7936 317.9406,-37.1121 308.7146,-31.9033 307.48,-38.7936"/>
<text text-anchor="middle" x="286.6162" y="-36.8935" font-family="Times,serif" font-size="14.00" fill="#000000">a</text>
</g>
<!-- q2&#45;&gt;q3 -->
<g id="edge5" class="edge">
<title>q2&#45;&gt;q3</title>
<path fill="none" stroke="#000000" d="M253.9272,-12.4965C264.6791,-9.004 278.2727,-6.4416 290.1162,-9.8935 298.447,-12.3215 306.7115,-16.6682 313.9886,-21.3451"/>
<polygon fill="#000000" stroke="#000000" points="312.3976,-24.5011 322.6088,-27.3261 316.388,-18.7499 312.3976,-24.5011"/>
<text text-anchor="middle" x="286.6162" y="-14.8935" font-family="Times,serif" font-size="14.00" fill="#000000">b</text>
</g>
<!-- q3&#45;&gt;q4 -->
<g id="edge6" class="edge">
<title>q3&#45;&gt;q4</title>
<path fill="none" stroke="#000000" d="M357.9525,-47.6942C366.6605,-50.4672 377.1264,-53.3187 386.817,-54.6935 395.5561,-55.9332 404.8982,-54.8805 413.5234,-52.897"/>
<polygon fill="#000000" stroke="#000000" points="414.5277,-56.2508 423.2404,-50.2225 412.6701,-49.5017 414.5277,-56.2508"/>
<text text-anchor="middle" x="390.317" y="-59.8935" font-family="Times,serif" font-size="14.00" fill="#000000">a</text>
</g>
<!-- q3&#45;&gt;q4 -->
<g id="edge7" class="edge">
<title>q3&#45;&gt;q4</title>
<path fill="none" stroke="#000000" d="M359.1046,-37.1438C367.6521,-35.8426 377.6844,-34.5325 386.817,-33.8935 394.8917,-33.3284 403.5593,-33.7399 411.7078,-34.5851"/>
<polygon fill="#000000" stroke="#000000" points="411.3073,-38.0622 421.6679,-35.8467 412.187,-31.1177 411.3073,-38.0622"/>
<text text-anchor="middle" x="390.317" y="-38.8935" font-family="Times,serif" font-size="14.00" fill="#000000">b</text>
</g>
<!-- q1 -->
<g id="node6" class="node">
<title>q1</title>
<ellipse fill="none" stroke="#000000" cx="121.3504" cy="-26.6935" rx="20.8887" ry="20.8887"/>
<text text-anchor="middle" x="121.3504" y="-22.4935" font-family="Times,serif" font-size="14.00" fill="#000000">q1</text>
</g>
<!-- q1&#45;&gt;q2 -->
<g id="edge2" class="edge">
<title>q1&#45;&gt;q2</title>
<path fill="none" stroke="#000000" d="M142.1525,-25.593C159.4988,-24.6753 184.4594,-23.3548 204.0979,-22.3159"/>
<polygon fill="#000000" stroke="#000000" points="204.2944,-25.8105 214.0955,-21.787 203.9246,-18.8202 204.2944,-25.8105"/>
<text text-anchor="middle" x="178.0581" y="-28.8935" font-family="Times,serif" font-size="14.00" fill="#000000">a</text>
</g>
<!-- q1&#45;&gt;q2 -->
<g id="edge3" class="edge">
<title>q1&#45;&gt;q2</title>
<path fill="none" stroke="#000000" d="M138.9791,-15.5838C147.8355,-10.6487 158.9482,-5.3965 169.7008,-2.8935 181.9633,-.039 195.4013,-2.7212 206.8649,-6.7932"/>
<polygon fill="#000000" stroke="#000000" points="205.7685,-10.125 216.3516,-10.6252 208.3903,-3.6346 205.7685,-10.125"/>
<text text-anchor="middle" x="178.0581" y="-7.8935" font-family="Times,serif" font-size="14.00" fill="#000000">b</text>
</g>
<g id="node7" class="node">
<title></title>
</g>
<!-- &#45;&gt;q1 -->
<g id="edge1" class="edge">
<title>&#45;&gt;q1</title>
<path fill="none" stroke="#000000" d="M54.037,-26.6935C65.377,-26.6935 78.6283,-26.6935 90.36,-26.6935"/>
<polygon fill="#000000" stroke="#000000" points="90.6084,-30.1936 100.6083,-26.6935 90.6083,-23.1936 90.6084,-30.1936"/>
</g>
<!--   -->
<g id="node8" class="node">
<title> </title>
<text text-anchor="middle" x="27" y="-100.4935" font-family="Times,serif" font-size="14.00" fill="#000000"> </text>
</g>
<!--  &#45;&gt;q5 -->
<g id="edge11" class="edge">
<title> &#45;&gt;q5</title>
<path fill="none" stroke="#000000" d="M54.037,-104.6935C65.377,-104.6935 78.6283,-104.6935 90.36,-104.6935"/>
<polygon fill="#000000" stroke="#000000" points="90.6084,-108.1936 100.6083,-104.6935 90.6083,-101.1936 90.6084,-108.1936"/>
</g>
<!--  &#160; -->
<g id="node9" class="node">
<title> &#160;</title>
<text text-anchor="middle" x="27" y="-175.4935" font-family="Times,serif" font-size="14.00" fill="#000000"> &#160;</text>
</g>
<!-- q1q5 -->
<g id="node11" class="node">
<title>q1q5</title>
<ellipse fill="none" stroke="#000000" cx="121.3504" cy="-179.6935" rx="30.2015" ry="30.2015"/>
<text text-anchor="middle" x="121.3504" y="-175.4935" font-family="Times,serif" font-size="14.00" fill="#000000">q1q5</text>
</g>
<!--  &#160;&#45;&gt;q1q5 -->
<g id="edge12" class="edge">
<title> &#160;&#45;&gt;q1q5</title>
<path fill="none" stroke="#000000" d="M54.037,-179.6935C62.4246,-179.6935 71.8578,-179.6935 80.9483,-179.6935"/>
<polygon fill="#000000" stroke="#000000" points="80.9923,-183.1936 90.9922,-179.6935 80.9922,-176.1936 80.9923,-183.1936"/>
</g>
<!-- q4q6 -->
<g id="node10" class="node">
<title>q4q6</title>
<ellipse fill="none" stroke="#000000" cx="446.1674" cy="-153.6935" rx="30.2188" ry="30.2188"/>
<ellipse fill="none" stroke="#000000" cx="446.1674" cy="-153.6935" rx="34.2014" ry="34.2014"/>
<text text-anchor="middle" x="446.1674" y="-149.4935" font-family="Times,serif" font-size="14.00" fill="#000000">q4q6</text>
</g>
<!-- q4q5 -->
<g id="node14" class="node">
<title>q4q5</title>
<ellipse fill="none" stroke="#000000" cx="563.5828" cy="-153.6935" rx="30.2015" ry="30.2015"/>
<text text-anchor="middle" x="563.5828" y="-149.4935" font-family="Times,serif" font-size="14.00" fill="#000000">q4q5</text>
</g>
<!-- q4q6&#45;&gt;q4q5 -->
<g id="edge20" class="edge">
<title>q4q6&#45;&gt;q4q5</title>
<path fill="none" stroke="#000000" d="M480.7608,-153.6935C494.0215,-153.6935 509.2689,-153.6935 523.0378,-153.6935"/>
<polygon fill="#000000" stroke="#000000" points="523.2214,-157.1936 533.2213,-153.6935 523.2213,-150.1936 523.2214,-157.1936"/>
<text text-anchor="middle" x="506.8751" y="-157.8935" font-family="Times,serif" font-size="14.00" fill="#000000">a,b</text>
</g>
<!-- q2q6 -->
<g id="node12" class="node">
<title>q2q6</title>
<ellipse fill="none" stroke="#000000" cx="234.7658" cy="-172.6935" rx="30.2015" ry="30.2015"/>
<text text-anchor="middle" x="234.7658" y="-168.4935" font-family="Times,serif" font-size="14.00" fill="#000000">q2q6</text>
</g>
<!-- q1q5&#45;&gt;q2q6 -->
<g id="edge13" class="edge">
<title>q1q5&#45;&gt;q2q6</title>
<path fill="none" stroke="#000000" d="M151.5324,-184.4997C162.5338,-185.5965 175.0573,-186.0819 186.4154,-184.6935 189.451,-184.3224 192.5704,-183.8249 195.6926,-183.243"/>
<polygon fill="#000000" stroke="#000000" points="196.5183,-186.6458 205.5752,-181.1482 195.0668,-179.7979 196.5183,-186.6458"/>
<text text-anchor="middle" x="178.0581" y="-188.8935" font-family="Times,serif" font-size="14.00" fill="#000000">a</text>
</g>
<!-- q1q5&#45;&gt;q2q6 -->
<g id="edge16" class="edge">
<title>q1q5&#45;&gt;q2q6</title>
<path fill="none" stroke="#000000" d="M149.8734,-168.7293C156.3017,-166.7225 163.16,-164.9351 169.7008,-163.8935 177.9439,-162.5808 186.7949,-162.739 195.2315,-163.6342"/>
<polygon fill="#000000" stroke="#000000" points="194.8583,-167.1161 205.2481,-165.0422 195.8327,-160.1842 194.8583,-167.1161"/>
<text text-anchor="middle" x="178.0581" y="-167.8935" font-family="Times,serif" font-size="14.00" fill="#000000">b</text>
</g>
<!-- q3q5 -->
<g id="node13" class="node">
<title>q3q5</title>
<ellipse fill="none" stroke="#000000" cx="338.4666" cy="-149.6935" rx="30.2015" ry="30.2015"/>
<text text-anchor="middle" x="338.4666" y="-145.4935" font-family="Times,serif" font-size="14.00" fill="#000000">q3q5</text>
</g>
<!-- q2q6&#45;&gt;q3q5 -->
<g id="edge14" class="edge">
<title>q2q6&#45;&gt;q3q5</title>
<path fill="none" stroke="#000000" d="M264.4823,-166.1026C275.2217,-163.7207 287.5207,-160.9929 298.967,-158.4541"/>
<polygon fill="#000000" stroke="#000000" points="299.7409,-161.8676 308.7458,-156.2853 298.2251,-155.0337 299.7409,-161.8676"/>
<text text-anchor="middle" x="286.6162" y="-165.8935" font-family="Times,serif" font-size="14.00" fill="#000000">a</text>
</g>
<!-- q2q6&#45;&gt;q3q5 -->
<g id="edge17" class="edge">
<title>q2q6&#45;&gt;q3q5</title>
<path fill="none" stroke="#000000" d="M257.8055,-152.336C265.3565,-146.8846 274.1287,-141.7234 283.1162,-138.8935 288.4859,-137.2027 294.2358,-136.8162 299.9243,-137.2336"/>
<polygon fill="#000000" stroke="#000000" points="299.5932,-140.723 310.0017,-138.7447 300.6313,-133.8004 299.5932,-140.723"/>
<text text-anchor="middle" x="286.6162" y="-143.8935" font-family="Times,serif" font-size="14.00" fill="#000000">b</text>
</g>
<!-- q3q5&#45;&gt;q4q6 -->
<g id="edge15" class="edge">
<title>q3q5&#45;&gt;q4q6</title>
<path fill="none" stroke="#000000" d="M368.9,-150.9879C374.8415,-151.2305 381.0241,-151.476 386.817,-151.6935 391.5883,-151.8725 396.5757,-152.0523 401.5448,-152.2266"/>
<polygon fill="#000000" stroke="#000000" points="401.5292,-155.728 411.6439,-152.5747 401.7705,-148.7322 401.5292,-155.728"/>
<text text-anchor="middle" x="390.317" y="-155.8935" font-family="Times,serif" font-size="14.00" fill="#000000">a</text>
</g>
<!-- q3q5&#45;&gt;q4q6 -->
<g id="edge18" class="edge">
<title>q3q5&#45;&gt;q4q6</title>
<path fill="none" stroke="#000000" d="M364.8461,-134.6221C373.899,-131.0988 384.1797,-128.8859 393.817,-130.8935 397.9112,-131.7463 402.0777,-132.9373 406.1815,-134.3318"/>
<polygon fill="#000000" stroke="#000000" points="404.9882,-137.6224 415.5796,-137.8915 407.4678,-131.0762 404.9882,-137.6224"/>
<text text-anchor="middle" x="390.317" y="-135.8935" font-family="Times,serif" font-size="14.00" fill="#000000">b</text>
</g>
<!-- q4q5&#45;&gt;q4q6 -->
<g id="edge19" class="edge">
<title>q4q5&#45;&gt;q4q6</title>
<path fill="none" stroke="#000000" d="M535.9771,-140.9442C529.3226,-138.4398 522.1369,-136.1886 515.2324,-134.8935 506.0835,-133.1774 496.3755,-134.0751 487.2189,-136.204"/>
<polygon fill="#000000" stroke="#000000" points="486.2256,-132.8476 477.552,-138.9319 488.1267,-139.5845 486.2256,-132.8476"/>
<text text-anchor="middle" x="506.8751" y="-139.8935" font-family="Times,serif" font-size="14.00" fill="#000000">a,b</text>
</g>
</g>
</svg>
