<?xml version="1.0" encoding="UTF-8" standalone="no"?>
<!DOCTYPE svg PUBLIC "-//W3C//DTD SVG 1.1//EN"
 "http://www.w3.org/Graphics/SVG/1.1/DTD/svg11.dtd">
<!-- Generated by graphviz version 2.40.1 (20161225.0304)
 -->
<!-- Title: finite_state_machine Pages: 1 -->
<svg width="691pt" height="527pt"
 viewBox="0.00 0.00 690.63 527.00" xmlns="http://www.w3.org/2000/svg" xmlns:xlink="http://www.w3.org/1999/xlink">
<g id="graph0" class="graph" transform="scale(1 1) rotate(0) translate(4 523)">
<title>finite_state_machine</title>
<polygon fill="#ffffff" stroke="transparent" points="-4,4 -4,-523 686.634,-523 686.634,4 -4,4"/>
<!-- q3 -->
<g id="node1" class="node">
<title>q3</title>
<ellipse fill="none" stroke="#000000" cx="27" cy="-242" rx="20.8887" ry="20.8887"/>
<text text-anchor="middle" x="27" y="-237.8" font-family="Times,serif" font-size="14.00" fill="#000000">q3</text>
</g>
<!-- q3&#45;&gt;q3 -->
<g id="edge19" class="edge">
<title>q3&#45;&gt;q3</title>
<path fill="none" stroke="#000000" d="M18.3713,-261.1121C16.905,-271.3586 19.7813,-280.6935 27,-280.6935 31.6245,-280.6935 34.4668,-276.8624 35.527,-271.4149"/>
<polygon fill="#000000" stroke="#000000" points="39.0297,-271.1462 35.6287,-261.1121 32.0301,-271.0771 39.0297,-271.1462"/>
<text text-anchor="middle" x="27" y="-284.8935" font-family="Times,serif" font-size="14.00" fill="#000000">a</text>
</g>
<!-- q1 -->
<g id="node9" class="node">
<title>q1</title>
<ellipse fill="none" stroke="#000000" cx="131.3504" cy="-224" rx="20.8568" ry="20.8568"/>
<ellipse fill="none" stroke="#000000" cx="131.3504" cy="-224" rx="24.8884" ry="24.8884"/>
<text text-anchor="middle" x="131.3504" y="-219.8" font-family="Times,serif" font-size="14.00" fill="#000000">q1</text>
</g>
<!-- q3&#45;&gt;q1 -->
<g id="edge20" class="edge">
<title>q3&#45;&gt;q1</title>
<path fill="none" stroke="#000000" d="M47.6163,-238.4438C61.5512,-236.0401 80.297,-232.8065 96.5188,-230.0083"/>
<polygon fill="#000000" stroke="#000000" points="97.479,-233.3944 106.7385,-228.2454 96.2891,-226.4963 97.479,-233.3944"/>
<text text-anchor="middle" x="75.5" y="-239.2" font-family="Times,serif" font-size="14.00" fill="#000000">b</text>
</g>
<!-- q2 -->
<g id="node2" class="node">
<title>q2</title>
<ellipse fill="none" stroke="#000000" cx="239.0512" cy="-275" rx="20.8887" ry="20.8887"/>
<text text-anchor="middle" x="239.0512" y="-270.8" font-family="Times,serif" font-size="14.00" fill="#000000">q2</text>
</g>
<!-- q2&#45;&gt;q3 -->
<g id="edge18" class="edge">
<title>q2&#45;&gt;q3</title>
<path fill="none" stroke="#000000" d="M219.251,-282.5305C191.3319,-292.003 139.1019,-305.4922 97,-292 79.3834,-286.3545 62.4265,-274.4664 49.6151,-263.6984"/>
<polygon fill="#000000" stroke="#000000" points="51.6529,-260.8299 41.8296,-256.8609 47.0338,-266.0896 51.6529,-260.8299"/>
<text text-anchor="middle" x="131.3504" y="-302.2" font-family="Times,serif" font-size="14.00" fill="#000000">b</text>
</g>
<!-- q2&#45;&gt;q2 -->
<g id="edge17" class="edge">
<title>q2&#45;&gt;q2</title>
<path fill="none" stroke="#000000" d="M230.1248,-293.7125C228.4585,-304.1146 231.434,-313.6935 239.0512,-313.6935 244.05,-313.6935 247.0497,-309.5682 248.0505,-303.7922"/>
<polygon fill="#000000" stroke="#000000" points="251.5499,-303.6869 247.9776,-293.7125 244.5501,-303.7376 251.5499,-303.6869"/>
<text text-anchor="middle" x="239.0512" y="-317.8935" font-family="Times,serif" font-size="14.00" fill="#000000">a</text>
</g>
<!-- q5 -->
<g id="node3" class="node">
<title>q5</title>
<ellipse fill="none" stroke="#000000" cx="27" cy="-410" rx="20.8887" ry="20.8887"/>
<text text-anchor="middle" x="27" y="-405.8" font-family="Times,serif" font-size="14.00" fill="#000000">q5</text>
</g>
<!-- q5&#45;&gt;q5 -->
<g id="edge24" class="edge">
<title>q5&#45;&gt;q5</title>
<path fill="none" stroke="#000000" d="M18.3713,-429.1121C16.905,-439.3586 19.7813,-448.6935 27,-448.6935 31.6245,-448.6935 34.4668,-444.8624 35.527,-439.4149"/>
<polygon fill="#000000" stroke="#000000" points="39.0297,-439.1462 35.6287,-429.1121 32.0301,-439.0771 39.0297,-439.1462"/>
<text text-anchor="middle" x="27" y="-452.8935" font-family="Times,serif" font-size="14.00" fill="#000000">b</text>
</g>
<!-- q4 -->
<g id="node10" class="node">
<title>q4</title>
<ellipse fill="none" stroke="#000000" cx="131.3504" cy="-378" rx="20.8568" ry="20.8568"/>
<ellipse fill="none" stroke="#000000" cx="131.3504" cy="-378" rx="24.8884" ry="24.8884"/>
<text text-anchor="middle" x="131.3504" y="-373.8" font-family="Times,serif" font-size="14.00" fill="#000000">q4</text>
</g>
<!-- q5&#45;&gt;q4 -->
<g id="edge25" class="edge">
<title>q5&#45;&gt;q4</title>
<path fill="none" stroke="#000000" d="M47.3414,-404.8669C56.981,-402.3469 68.63,-399.1747 79,-396 85.2721,-394.0798 91.9207,-391.9041 98.2994,-389.7456"/>
<polygon fill="#000000" stroke="#000000" points="99.6895,-392.9688 108.0078,-386.407 97.4131,-386.3493 99.6895,-392.9688"/>
<text text-anchor="middle" x="75.5" y="-401.2" font-family="Times,serif" font-size="14.00" fill="#000000">a</text>
</g>
<!-- q1q5 -->
<g id="node4" class="node">
<title>q1q5</title>
<ellipse fill="none" stroke="#000000" cx="239.0512" cy="-80" rx="30.2015" ry="30.2015"/>
<text text-anchor="middle" x="239.0512" y="-75.8" font-family="Times,serif" font-size="14.00" fill="#000000">q1q5</text>
</g>
<!-- q2q5 -->
<g id="node5" class="node">
<title>q2q5</title>
<ellipse fill="none" stroke="#000000" cx="342.752" cy="-79" rx="30.2015" ry="30.2015"/>
<text text-anchor="middle" x="342.752" y="-74.8" font-family="Times,serif" font-size="14.00" fill="#000000">q2q5</text>
</g>
<!-- q1q5&#45;&gt;q2q5 -->
<g id="edge5" class="edge">
<title>q1q5&#45;&gt;q2q5</title>
<path fill="none" stroke="#000000" d="M269.604,-79.7054C279.7456,-79.6076 291.2029,-79.4971 301.9888,-79.3931"/>
<polygon fill="#000000" stroke="#000000" points="302.0935,-82.8923 312.0592,-79.296 302.0259,-75.8927 302.0935,-82.8923"/>
<text text-anchor="middle" x="290.9016" y="-84.2" font-family="Times,serif" font-size="14.00" fill="#000000">b</text>
</g>
<!-- q1q4 -->
<g id="node11" class="node">
<title>q1q4</title>
<ellipse fill="none" stroke="#000000" cx="131.3504" cy="-147" rx="30.2188" ry="30.2188"/>
<ellipse fill="none" stroke="#000000" cx="131.3504" cy="-147" rx="34.2014" ry="34.2014"/>
<text text-anchor="middle" x="131.3504" y="-142.8" font-family="Times,serif" font-size="14.00" fill="#000000">q1q4</text>
</g>
<!-- q1q5&#45;&gt;q1q4 -->
<g id="edge4" class="edge">
<title>q1q5&#45;&gt;q1q4</title>
<path fill="none" stroke="#000000" d="M208.5623,-82.7128C200.1325,-84.3637 191.237,-86.9997 183.7008,-91.2 174.4764,-96.3412 165.9326,-103.6705 158.5362,-111.3332"/>
<polygon fill="#000000" stroke="#000000" points="155.6711,-109.2821 151.5397,-119.0382 160.8534,-113.9879 155.6711,-109.2821"/>
<text text-anchor="middle" x="187.2008" y="-96.2" font-family="Times,serif" font-size="14.00" fill="#000000">a</text>
</g>
<!-- q2q4 -->
<g id="node6" class="node">
<title>q2q4</title>
<ellipse fill="none" stroke="#000000" cx="445.6674" cy="-103" rx="30.2015" ry="30.2015"/>
<text text-anchor="middle" x="445.6674" y="-98.8" font-family="Times,serif" font-size="14.00" fill="#000000">q2q4</text>
</g>
<!-- q2q5&#45;&gt;q2q4 -->
<g id="edge10" class="edge">
<title>q2q5&#45;&gt;q2q4</title>
<path fill="none" stroke="#000000" d="M372.8166,-74.219C380.8733,-73.8119 389.5111,-74.1813 397.317,-76.2 402.0064,-77.4127 406.726,-79.1889 411.2817,-81.2592"/>
<polygon fill="#000000" stroke="#000000" points="409.8363,-84.4503 420.3402,-85.8356 412.9929,-78.2023 409.8363,-84.4503"/>
<text text-anchor="middle" x="394.2097" y="-81.2" font-family="Times,serif" font-size="14.00" fill="#000000">a</text>
</g>
<!-- q3q5 -->
<g id="node7" class="node">
<title>q3q5</title>
<ellipse fill="none" stroke="#000000" cx="652.2836" cy="-61" rx="30.2015" ry="30.2015"/>
<text text-anchor="middle" x="652.2836" y="-56.8" font-family="Times,serif" font-size="14.00" fill="#000000">q3q5</text>
</g>
<!-- q2q5&#45;&gt;q3q5 -->
<g id="edge11" class="edge">
<title>q2q5&#45;&gt;q3q5</title>
<path fill="none" stroke="#000000" d="M372.2056,-71.5787C385.3133,-68.6223 400.9932,-65.5566 415.317,-64 483.9549,-56.5408 564.4288,-57.5716 611.729,-59.1671"/>
<polygon fill="#000000" stroke="#000000" points="611.7519,-62.6701 621.8723,-59.5353 612.0059,-55.6747 611.7519,-62.6701"/>
<text text-anchor="middle" x="497.5178" y="-63.2" font-family="Times,serif" font-size="14.00" fill="#000000">b</text>
</g>
<!-- q2q4&#45;&gt;q2q5 -->
<g id="edge6" class="edge">
<title>q2q4&#45;&gt;q2q5</title>
<path fill="none" stroke="#000000" d="M415.1347,-100.9849C407.2403,-100.0987 398.7988,-98.8261 391.1024,-97 387.5374,-96.1542 383.8772,-95.1191 380.2432,-93.9767"/>
<polygon fill="#000000" stroke="#000000" points="381.3629,-90.6607 370.7685,-90.759 379.1118,-97.2889 381.3629,-90.6607"/>
<text text-anchor="middle" x="394.2097" y="-103.2" font-family="Times,serif" font-size="14.00" fill="#000000">a</text>
</g>
<!-- q3q4 -->
<g id="node8" class="node">
<title>q3q4</title>
<ellipse fill="none" stroke="#000000" cx="549.3682" cy="-110" rx="30.2015" ry="30.2015"/>
<text text-anchor="middle" x="549.3682" y="-105.8" font-family="Times,serif" font-size="14.00" fill="#000000">q3q4</text>
</g>
<!-- q2q4&#45;&gt;q3q4 -->
<g id="edge7" class="edge">
<title>q2q4&#45;&gt;q3q4</title>
<path fill="none" stroke="#000000" d="M476.2202,-105.0624C486.4523,-105.7531 498.0238,-106.5342 508.8937,-107.2679"/>
<polygon fill="#000000" stroke="#000000" points="508.8207,-110.7708 519.0338,-107.9524 509.2922,-103.7867 508.8207,-110.7708"/>
<text text-anchor="middle" x="497.5178" y="-111.2" font-family="Times,serif" font-size="14.00" fill="#000000">b</text>
</g>
<!-- q3q5&#45;&gt;q1q5 -->
<g id="edge13" class="edge">
<title>q3q5&#45;&gt;q1q5</title>
<path fill="none" stroke="#000000" d="M630.7598,-38.9776C611.3008,-21.5049 580.9386,0 549.3682,0 342.752,0 342.752,0 342.752,0 310.3499,0 281.8889,-24.7879 263.0212,-46.7678"/>
<polygon fill="#000000" stroke="#000000" points="260.1582,-44.739 256.5144,-54.6875 265.5669,-49.1827 260.1582,-44.739"/>
<text text-anchor="middle" x="445.6674" y="-4.2" font-family="Times,serif" font-size="14.00" fill="#000000">b</text>
</g>
<!-- q3q5&#45;&gt;q3q4 -->
<g id="edge12" class="edge">
<title>q3q5&#45;&gt;q3q4</title>
<path fill="none" stroke="#000000" d="M622.4183,-66.66C614.1971,-68.7787 605.4263,-71.5786 597.7186,-75.2 592.2016,-77.792 586.6622,-81.0351 581.4031,-84.492"/>
<polygon fill="#000000" stroke="#000000" points="579.0763,-81.8473 572.8705,-90.4345 583.0768,-87.5916 579.0763,-81.8473"/>
<text text-anchor="middle" x="600.8259" y="-80.2" font-family="Times,serif" font-size="14.00" fill="#000000">a</text>
</g>
<!-- q3q4&#45;&gt;q3q5 -->
<g id="edge8" class="edge">
<title>q3q4&#45;&gt;q3q5</title>
<path fill="none" stroke="#000000" d="M579.2407,-104.4786C587.4619,-102.3904 596.231,-99.6154 603.9332,-96 609.4619,-93.4048 615.0076,-90.1495 620.2695,-86.6755"/>
<polygon fill="#000000" stroke="#000000" points="622.6193,-89.303 628.8039,-80.7006 618.6046,-83.5687 622.6193,-89.303"/>
<text text-anchor="middle" x="600.8259" y="-103.2" font-family="Times,serif" font-size="14.00" fill="#000000">a</text>
</g>
<!-- q3q4&#45;&gt;q1q4 -->
<g id="edge9" class="edge">
<title>q3q4&#45;&gt;q1q4</title>
<path fill="none" stroke="#000000" d="M525.8306,-129.2809C505.7866,-143.7232 475.5613,-161 445.6674,-161 239.0512,-161 239.0512,-161 239.0512,-161 217.9538,-161 194.7242,-158.3255 175.2566,-155.3145"/>
<polygon fill="#000000" stroke="#000000" points="175.5913,-151.823 165.159,-153.672 174.4673,-158.7322 175.5913,-151.823"/>
<text text-anchor="middle" x="342.752" y="-165.2" font-family="Times,serif" font-size="14.00" fill="#000000">b</text>
</g>
<!-- q1&#45;&gt;q2 -->
<g id="edge16" class="edge">
<title>q1&#45;&gt;q2</title>
<path fill="none" stroke="#000000" d="M153.928,-234.6913C170.4781,-242.5283 193.0592,-253.2212 210.8051,-261.6245"/>
<polygon fill="#000000" stroke="#000000" points="209.5616,-264.9082 220.0975,-266.0248 212.5575,-258.5817 209.5616,-264.9082"/>
<text text-anchor="middle" x="187.2008" y="-256.2" font-family="Times,serif" font-size="14.00" fill="#000000">b</text>
</g>
<!-- q1&#45;&gt;q1 -->
<g id="edge15" class="edge">
<title>q1&#45;&gt;q1</title>
<path fill="none" stroke="#000000" d="M121.4256,-246.8404C120.3429,-257.4359 123.6512,-266.6935 131.3504,-266.6935 136.403,-266.6935 139.5646,-262.7066 140.8351,-256.971"/>
<polygon fill="#000000" stroke="#000000" points="144.3378,-256.9829 141.2752,-246.8404 137.3444,-256.679 144.3378,-256.9829"/>
<text text-anchor="middle" x="131.3504" y="-270.8935" font-family="Times,serif" font-size="14.00" fill="#000000">a</text>
</g>
<!-- q4&#45;&gt;q5 -->
<g id="edge23" class="edge">
<title>q4&#45;&gt;q5</title>
<path fill="none" stroke="#000000" d="M106.5737,-375.3673C95.7258,-375.0063 82.9918,-375.6765 72,-379.2 64.5624,-381.5842 57.245,-385.6305 50.7429,-390.0199"/>
<polygon fill="#000000" stroke="#000000" points="48.4475,-387.3626 42.4469,-396.0944 52.583,-393.0105 48.4475,-387.3626"/>
<text text-anchor="middle" x="75.5" y="-383.2" font-family="Times,serif" font-size="14.00" fill="#000000">a</text>
</g>
<!-- q4&#45;&gt;q4 -->
<g id="edge22" class="edge">
<title>q4&#45;&gt;q4</title>
<path fill="none" stroke="#000000" d="M121.4256,-400.8404C120.3429,-411.4359 123.6512,-420.6935 131.3504,-420.6935 136.403,-420.6935 139.5646,-416.7066 140.8351,-410.971"/>
<polygon fill="#000000" stroke="#000000" points="144.3378,-410.9829 141.2752,-400.8404 137.3444,-410.679 144.3378,-410.9829"/>
<text text-anchor="middle" x="131.3504" y="-424.8935" font-family="Times,serif" font-size="14.00" fill="#000000">b</text>
</g>
<!-- q1q4&#45;&gt;q1q5 -->
<g id="edge2" class="edge">
<title>q1q4&#45;&gt;q1q5</title>
<path fill="none" stroke="#000000" d="M160.7801,-128.692C174.1658,-120.3648 190.1055,-110.4488 204.0965,-101.7451"/>
<polygon fill="#000000" stroke="#000000" points="206.3204,-104.4837 212.9627,-96.2295 202.6228,-98.5399 206.3204,-104.4837"/>
<text text-anchor="middle" x="187.2008" y="-118.2" font-family="Times,serif" font-size="14.00" fill="#000000">a</text>
</g>
<!-- q1q4&#45;&gt;q2q4 -->
<g id="edge3" class="edge">
<title>q1q4&#45;&gt;q2q4</title>
<path fill="none" stroke="#000000" d="M160.5759,-165.5008C167.8721,-169.3006 175.8593,-172.8067 183.7008,-175 264.8231,-197.6907 295.9799,-215.8794 373.1024,-182 393.8653,-172.879 411.2945,-154.56 423.8636,-137.8575"/>
<polygon fill="#000000" stroke="#000000" points="426.9981,-139.4927 429.9853,-129.3277 421.3111,-135.4112 426.9981,-139.4927"/>
<text text-anchor="middle" x="290.9016" y="-205.2" font-family="Times,serif" font-size="14.00" fill="#000000">b</text>
</g>
<g id="node12" class="node">
<title></title>
</g>
<!-- &#45;&gt;q1 -->
<g id="edge14" class="edge">
<title>&#45;&gt;q1</title>
<path fill="none" stroke="#000000" d="M54.1444,-195.145C67.6864,-200.2062 84.1766,-206.3692 98.4347,-211.6981"/>
<polygon fill="#000000" stroke="#000000" points="97.2929,-215.0077 107.8854,-215.2302 99.7436,-208.4507 97.2929,-215.0077"/>
</g>
<!-- &#45;&gt;q1q4 -->
<g id="edge1" class="edge">
<title>&#45;&gt;q1q4</title>
<path fill="none" stroke="#000000" d="M54.1444,-175.1151C64.8067,-171.2324 77.2965,-166.6841 89.0856,-162.391"/>
<polygon fill="#000000" stroke="#000000" points="90.5694,-165.5756 98.7681,-158.8651 88.1741,-158.9982 90.5694,-165.5756"/>
</g>
<!--   -->
<g id="node13" class="node">
<title> </title>
<text text-anchor="middle" x="27" y="-340.8" font-family="Times,serif" font-size="14.00" fill="#000000"> </text>
</g>
<!--  &#45;&gt;q4 -->
<g id="edge21" class="edge">
<title> &#45;&gt;q4</title>
<path fill="none" stroke="#000000" d="M54.1444,-353.5842C67.459,-357.7948 83.6236,-362.9068 97.7146,-367.3629"/>
<polygon fill="#000000" stroke="#000000" points="96.9481,-370.7913 107.538,-370.4695 99.0588,-364.1171 96.9481,-370.7913"/>
</g>
<!--  &#160; -->
<g id="node14" class="node">
<title> &#160;</title>
<text text-anchor="middle" x="27" y="-496.8" font-family="Times,serif" font-size="14.00" fill="#000000"> &#160;</text>
</g>
</g>
</svg>
