<?xml version="1.0" encoding="UTF-8" standalone="no"?>
<!DOCTYPE svg PUBLIC "-//W3C//DTD SVG 1.1//EN"
 "http://www.w3.org/Graphics/SVG/1.1/DTD/svg11.dtd">
<!-- Generated by graphviz version 2.40.1 (20161225.0304)
 -->
<!-- Title: finite_state_machine Pages: 1 -->
<svg width="523pt" height="365pt"
 viewBox="0.00 0.00 522.72 364.80" xmlns="http://www.w3.org/2000/svg" xmlns:xlink="http://www.w3.org/1999/xlink">
<g id="graph0" class="graph" transform="scale(1 1) rotate(0) translate(4 360.8)">
<title>finite_state_machine</title>
<polygon fill="#ffffff" stroke="transparent" points="-4,4 -4,-360.8 518.7186,-360.8 518.7186,4 -4,4"/>
<!-- q1q5 -->
<g id="node1" class="node">
<title>q1q5</title>
<ellipse fill="none" stroke="#000000" cx="34.3504" cy="-157" rx="30.2188" ry="30.2188"/>
<ellipse fill="none" stroke="#000000" cx="34.3504" cy="-157" rx="34.2014" ry="34.2014"/>
<text text-anchor="middle" x="34.3504" y="-152.8" font-family="Times,serif" font-size="14.00" fill="#000000">q1q5</text>
</g>
<!-- q2q5 -->
<g id="node2" class="node">
<title>q2q5</title>
<ellipse fill="none" stroke="#000000" cx="146.0512" cy="-214" rx="30.2188" ry="30.2188"/>
<ellipse fill="none" stroke="#000000" cx="146.0512" cy="-214" rx="34.2014" ry="34.2014"/>
<text text-anchor="middle" x="146.0512" y="-209.8" font-family="Times,serif" font-size="14.00" fill="#000000">q2q5</text>
</g>
<!-- q1q5&#45;&gt;q2q5 -->
<g id="edge5" class="edge">
<title>q1q5&#45;&gt;q2q5</title>
<path fill="none" stroke="#000000" d="M65.1688,-172.7264C77.866,-179.2057 92.7396,-186.7955 106.2453,-193.6874"/>
<polygon fill="#000000" stroke="#000000" points="104.8352,-196.8971 115.3333,-198.3249 108.0169,-190.662 104.8352,-196.8971"/>
<text text-anchor="middle" x="90.2008" y="-191.2" font-family="Times,serif" font-size="14.00" fill="#000000">b</text>
</g>
<!-- q1q4 -->
<g id="node6" class="node">
<title>q1q4</title>
<ellipse fill="none" stroke="#000000" cx="480.3682" cy="-99" rx="30.2015" ry="30.2015"/>
<text text-anchor="middle" x="480.3682" y="-94.8" font-family="Times,serif" font-size="14.00" fill="#000000">q1q4</text>
</g>
<!-- q1q5&#45;&gt;q1q4 -->
<g id="edge4" class="edge">
<title>q1q5&#45;&gt;q1q4</title>
<path fill="none" stroke="#000000" d="M50.4237,-126.3591C68.9762,-95.6816 102.5967,-53 146.0512,-53 146.0512,-53 146.0512,-53 368.6674,-53 396.1938,-53 424.8562,-65.0914 446.2542,-76.8758"/>
<polygon fill="#000000" stroke="#000000" points="444.5405,-79.9277 454.9555,-81.8713 448.0258,-73.857 444.5405,-79.9277"/>
<text text-anchor="middle" x="256.9666" y="-57.2" font-family="Times,serif" font-size="14.00" fill="#000000">a</text>
</g>
<!-- q2q4 -->
<g id="node3" class="node">
<title>q2q4</title>
<ellipse fill="none" stroke="#000000" cx="256.9666" cy="-202" rx="30.2188" ry="30.2188"/>
<ellipse fill="none" stroke="#000000" cx="256.9666" cy="-202" rx="34.2014" ry="34.2014"/>
<text text-anchor="middle" x="256.9666" y="-197.8" font-family="Times,serif" font-size="14.00" fill="#000000">q2q4</text>
</g>
<!-- q2q5&#45;&gt;q2q4 -->
<g id="edge10" class="edge">
<title>q2q5&#45;&gt;q2q4</title>
<path fill="none" stroke="#000000" d="M180.4901,-213.7117C188.4311,-213.3992 196.8312,-212.8712 204.6162,-212 207.4611,-211.6816 210.3829,-211.2942 213.3215,-210.859"/>
<polygon fill="#000000" stroke="#000000" points="213.9873,-214.2967 223.2901,-209.2264 212.8558,-207.3887 213.9873,-214.2967"/>
<text text-anchor="middle" x="201.5089" y="-216.2" font-family="Times,serif" font-size="14.00" fill="#000000">a</text>
</g>
<!-- q3q5 -->
<g id="node4" class="node">
<title>q3q5</title>
<ellipse fill="none" stroke="#000000" cx="480.3682" cy="-278" rx="30.2188" ry="30.2188"/>
<ellipse fill="none" stroke="#000000" cx="480.3682" cy="-278" rx="34.2014" ry="34.2014"/>
<text text-anchor="middle" x="480.3682" y="-273.8" font-family="Times,serif" font-size="14.00" fill="#000000">q3q5</text>
</g>
<!-- q2q5&#45;&gt;q3q5 -->
<g id="edge11" class="edge">
<title>q2q5&#45;&gt;q3q5</title>
<path fill="none" stroke="#000000" d="M177.5666,-228.4802C191.1922,-234.2876 207.4598,-240.6263 222.6162,-245 295.406,-266.0052 383.6115,-273.6527 435.6859,-276.4284"/>
<polygon fill="#000000" stroke="#000000" points="435.7563,-279.9361 445.9173,-276.9355 436.1029,-272.9447 435.7563,-279.9361"/>
<text text-anchor="middle" x="312.817" y="-268.2" font-family="Times,serif" font-size="14.00" fill="#000000">b</text>
</g>
<!-- q2q4&#45;&gt;q2q5 -->
<g id="edge6" class="edge">
<title>q2q4&#45;&gt;q2q5</title>
<path fill="none" stroke="#000000" d="M223.1158,-194.7538C214.9949,-193.9295 206.368,-193.8129 198.4016,-195.2 194.9187,-195.8064 191.3613,-196.6239 187.822,-197.5796"/>
<polygon fill="#000000" stroke="#000000" points="186.5191,-194.3176 177.9722,-200.5787 188.5581,-201.0141 186.5191,-194.3176"/>
<text text-anchor="middle" x="201.5089" y="-199.2" font-family="Times,serif" font-size="14.00" fill="#000000">a</text>
</g>
<!-- q3q4 -->
<g id="node5" class="node">
<title>q3q4</title>
<ellipse fill="none" stroke="#000000" cx="368.6674" cy="-222" rx="30.2188" ry="30.2188"/>
<ellipse fill="none" stroke="#000000" cx="368.6674" cy="-222" rx="34.2014" ry="34.2014"/>
<text text-anchor="middle" x="368.6674" y="-217.8" font-family="Times,serif" font-size="14.00" fill="#000000">q3q4</text>
</g>
<!-- q2q4&#45;&gt;q3q4 -->
<g id="edge7" class="edge">
<title>q2q4&#45;&gt;q3q4</title>
<path fill="none" stroke="#000000" d="M290.7836,-208.0549C301.4027,-209.9563 313.2873,-212.0842 324.512,-214.094"/>
<polygon fill="#000000" stroke="#000000" points="324.1194,-217.5793 334.5798,-215.8966 325.3532,-210.6889 324.1194,-217.5793"/>
<text text-anchor="middle" x="312.817" y="-216.2" font-family="Times,serif" font-size="14.00" fill="#000000">b</text>
</g>
<!-- q3q5&#45;&gt;q1q5 -->
<g id="edge13" class="edge">
<title>q3q5&#45;&gt;q1q5</title>
<path fill="none" stroke="#000000" d="M455.028,-301.7935C433.6976,-319.2778 401.493,-340 368.6674,-340 146.0512,-340 146.0512,-340 146.0512,-340 81.1855,-340 52.8703,-255.1974 41.402,-201.0486"/>
<polygon fill="#000000" stroke="#000000" points="44.7838,-200.1107 39.3893,-190.992 37.9199,-201.4845 44.7838,-200.1107"/>
<text text-anchor="middle" x="256.9666" y="-344.2" font-family="Times,serif" font-size="14.00" fill="#000000">b</text>
</g>
<!-- q3q5&#45;&gt;q3q4 -->
<g id="edge12" class="edge">
<title>q3q5&#45;&gt;q3q4</title>
<path fill="none" stroke="#000000" d="M459.0811,-250.7992C450.4625,-241.7276 439.7655,-232.5718 428.0178,-227.2 423.3747,-225.0769 418.3158,-223.5792 413.1738,-222.5446"/>
<polygon fill="#000000" stroke="#000000" points="413.6749,-219.0808 403.271,-221.0834 412.6529,-226.0058 413.6749,-219.0808"/>
<text text-anchor="middle" x="424.5178" y="-231.2" font-family="Times,serif" font-size="14.00" fill="#000000">a</text>
</g>
<!-- q3q4&#45;&gt;q3q5 -->
<g id="edge8" class="edge">
<title>q3q4&#45;&gt;q3q5</title>
<path fill="none" stroke="#000000" d="M399.4858,-237.4505C412.183,-243.8161 427.0566,-251.2728 440.5623,-258.0437"/>
<polygon fill="#000000" stroke="#000000" points="439.1422,-261.247 449.6503,-262.5999 442.2795,-254.9894 439.1422,-261.247"/>
<text text-anchor="middle" x="424.5178" y="-255.2" font-family="Times,serif" font-size="14.00" fill="#000000">a</text>
</g>
<!-- q3q4&#45;&gt;q1q4 -->
<g id="edge9" class="edge">
<title>q3q4&#45;&gt;q1q4</title>
<path fill="none" stroke="#000000" d="M392.9492,-197.2533C403.82,-186.0169 416.7091,-172.475 428.0178,-160 436.6584,-150.4683 445.8646,-139.8911 454.1085,-130.2575"/>
<polygon fill="#000000" stroke="#000000" points="456.9548,-132.3136 460.7736,-122.4309 451.6253,-127.7751 456.9548,-132.3136"/>
<text text-anchor="middle" x="424.5178" y="-171.2" font-family="Times,serif" font-size="14.00" fill="#000000">b</text>
</g>
<!-- q1q4&#45;&gt;q1q5 -->
<g id="edge2" class="edge">
<title>q1q4&#45;&gt;q1q5</title>
<path fill="none" stroke="#000000" d="M465.6078,-72.4698C447.1127,-43.1448 412.4602,0 368.6674,0 146.0512,0 146.0512,0 146.0512,0 90.1102,0 59.5898,-66.9955 45.1497,-113.4581"/>
<polygon fill="#000000" stroke="#000000" points="41.713,-112.7372 42.2271,-123.3196 48.4244,-114.7263 41.713,-112.7372"/>
<text text-anchor="middle" x="256.9666" y="-4.2" font-family="Times,serif" font-size="14.00" fill="#000000">a</text>
</g>
<!-- q1q4&#45;&gt;q2q4 -->
<g id="edge3" class="edge">
<title>q1q4&#45;&gt;q2q4</title>
<path fill="none" stroke="#000000" d="M452.1198,-110.5649C422.5164,-122.8376 374.7772,-143.0628 334.317,-162.2 321.9148,-168.0661 308.5744,-174.7807 296.5233,-181.0029"/>
<polygon fill="#000000" stroke="#000000" points="294.8549,-177.9255 287.596,-185.6429 298.0832,-184.1366 294.8549,-177.9255"/>
<text text-anchor="middle" x="368.6674" y="-167.2" font-family="Times,serif" font-size="14.00" fill="#000000">b</text>
</g>
<g id="node7" class="node">
<title></title>
</g>
<!-- &#45;&gt;q1q4 -->
<g id="edge1" class="edge">
<title>&#45;&gt;q1q4</title>
<path fill="none" stroke="#000000" d="M395.707,-99C408.7999,-99 424.8018,-99 439.3547,-99"/>
<polygon fill="#000000" stroke="#000000" points="439.633,-102.5001 449.633,-99 439.633,-95.5001 439.633,-102.5001"/>
</g>
</g>
</svg>
