<?xml version="1.0" encoding="UTF-8" standalone="no"?>
<!DOCTYPE svg PUBLIC "-//W3C//DTD SVG 1.1//EN"
 "http://www.w3.org/Graphics/SVG/1.1/DTD/svg11.dtd">
<!-- Generated by graphviz version 2.40.1 (20161225.0304)
 -->
<!-- Title: finite_state_machine Pages: 1 -->
<svg width="1198pt" height="639pt"
 viewBox="0.00 0.00 1197.84 638.80" xmlns="http://www.w3.org/2000/svg" xmlns:xlink="http://www.w3.org/1999/xlink">
<g id="graph0" class="graph" transform="scale(1 1) rotate(0) translate(4 634.8)">
<title>finite_state_machine</title>
<polygon fill="#ffffff" stroke="transparent" points="-4,4 -4,-634.8 1193.8387,-634.8 1193.8387,4 -4,4"/>
<!-- q4q6 -->
<g id="node1" class="node">
<title>q4q6</title>
<ellipse fill="none" stroke="#000000" cx="138.0512" cy="-353" rx="30.2188" ry="30.2188"/>
<ellipse fill="none" stroke="#000000" cx="138.0512" cy="-353" rx="34.2014" ry="34.2014"/>
<text text-anchor="middle" x="138.0512" y="-348.8" font-family="Times,serif" font-size="14.00" fill="#000000">q4q6</text>
</g>
<!-- q3q4 -->
<g id="node19" class="node">
<title>q3q4</title>
<ellipse fill="none" stroke="#000000" cx="245.752" cy="-463" rx="30.2015" ry="30.2015"/>
<text text-anchor="middle" x="245.752" y="-458.8" font-family="Times,serif" font-size="14.00" fill="#000000">q3q4</text>
</g>
<!-- q4q6&#45;&gt;q3q4 -->
<g id="edge49" class="edge">
<title>q4q6&#45;&gt;q3q4</title>
<path fill="none" stroke="#000000" d="M162.2214,-377.6861C178.5014,-394.3137 200.0446,-416.3168 217.1748,-433.8128"/>
<polygon fill="#000000" stroke="#000000" points="214.7211,-436.3095 224.218,-441.0063 219.7228,-431.4123 214.7211,-436.3095"/>
<text text-anchor="middle" x="193.9016" y="-416.2" font-family="Times,serif" font-size="14.00" fill="#000000">b</text>
</g>
<!-- q3q3 -->
<g id="node22" class="node">
<title>q3q3</title>
<ellipse fill="none" stroke="#000000" cx="564.8544" cy="-246" rx="30.2015" ry="30.2015"/>
<text text-anchor="middle" x="564.8544" y="-241.8" font-family="Times,serif" font-size="14.00" fill="#000000">q3q3</text>
</g>
<!-- q4q6&#45;&gt;q3q3 -->
<g id="edge48" class="edge">
<title>q4q6&#45;&gt;q3q3</title>
<path fill="none" stroke="#000000" d="M163.8943,-329.8454C178.3195,-317.7454 197.0412,-303.3449 215.4016,-293 258.4116,-268.7666 270.6986,-262.9049 319.1024,-253.2 390.0638,-238.9723 474.8337,-240.4331 523.9901,-243.0418"/>
<polygon fill="#000000" stroke="#000000" points="524.0318,-246.5499 534.216,-243.6289 524.4331,-239.5614 524.0318,-246.5499"/>
<text text-anchor="middle" x="349.4528" y="-258.2" font-family="Times,serif" font-size="14.00" fill="#000000">a</text>
</g>
<!-- q4q5 -->
<g id="node2" class="node">
<title>q4q5</title>
<ellipse fill="none" stroke="#000000" cx="940.8721" cy="-393" rx="30.2188" ry="30.2188"/>
<ellipse fill="none" stroke="#000000" cx="940.8721" cy="-393" rx="34.2014" ry="34.2014"/>
<text text-anchor="middle" x="940.8721" y="-388.8" font-family="Times,serif" font-size="14.00" fill="#000000">q4q5</text>
</g>
<!-- q3q2 -->
<g id="node20" class="node">
<title>q3q2</title>
<ellipse fill="none" stroke="#000000" cx="829.9568" cy="-421" rx="30.2015" ry="30.2015"/>
<text text-anchor="middle" x="829.9568" y="-416.8" font-family="Times,serif" font-size="14.00" fill="#000000">q3q2</text>
</g>
<!-- q4q5&#45;&gt;q3q2 -->
<g id="edge46" class="edge">
<title>q4q5&#45;&gt;q3q2</title>
<path fill="none" stroke="#000000" d="M907.3788,-401.4552C895.3166,-404.5002 881.6011,-407.9627 869.0997,-411.1186"/>
<polygon fill="#000000" stroke="#000000" points="868.228,-407.7288 859.3888,-413.57 869.9414,-414.5158 868.228,-407.7288"/>
<text text-anchor="middle" x="885.4145" y="-411.2" font-family="Times,serif" font-size="14.00" fill="#000000">a</text>
</g>
<!-- q3q6 -->
<g id="node23" class="node">
<title>q3q6</title>
<ellipse fill="none" stroke="#000000" cx="1048.5729" cy="-362" rx="30.2015" ry="30.2015"/>
<text text-anchor="middle" x="1048.5729" y="-357.8" font-family="Times,serif" font-size="14.00" fill="#000000">q3q6</text>
</g>
<!-- q4q5&#45;&gt;q3q6 -->
<g id="edge47" class="edge">
<title>q4q5&#45;&gt;q3q6</title>
<path fill="none" stroke="#000000" d="M974.0647,-383.446C985.2508,-380.2263 997.8386,-376.6031 1009.4394,-373.264"/>
<polygon fill="#000000" stroke="#000000" points="1010.6782,-376.5496 1019.3199,-370.42 1008.7419,-369.8227 1010.6782,-376.5496"/>
<text text-anchor="middle" x="996.7225" y="-382.2" font-family="Times,serif" font-size="14.00" fill="#000000">b</text>
</g>
<!-- q4q4 -->
<g id="node3" class="node">
<title>q4q4</title>
<ellipse fill="none" stroke="#000000" cx="829.9568" cy="-83" rx="30.2188" ry="30.2188"/>
<ellipse fill="none" stroke="#000000" cx="829.9568" cy="-83" rx="34.2014" ry="34.2014"/>
<text text-anchor="middle" x="829.9568" y="-78.8" font-family="Times,serif" font-size="14.00" fill="#000000">q4q4</text>
</g>
<!-- q3q5 -->
<g id="node21" class="node">
<title>q3q5</title>
<ellipse fill="none" stroke="#000000" cx="349.4528" cy="-117" rx="30.2015" ry="30.2015"/>
<text text-anchor="middle" x="349.4528" y="-112.8" font-family="Times,serif" font-size="14.00" fill="#000000">q3q5</text>
</g>
<!-- q4q4&#45;&gt;q3q5 -->
<g id="edge45" class="edge">
<title>q4q4&#45;&gt;q3q5</title>
<path fill="none" stroke="#000000" d="M799.3346,-66.448C778.282,-56.5965 749.3418,-46 722.256,-46 457.1536,-46 457.1536,-46 457.1536,-46 425.7772,-46 396.4865,-67.265 376.3961,-86.5194"/>
<polygon fill="#000000" stroke="#000000" points="373.7591,-84.2066 369.1616,-93.7519 378.7082,-89.1571 373.7591,-84.2066"/>
<text text-anchor="middle" x="564.8544" y="-50.2" font-family="Times,serif" font-size="14.00" fill="#000000">b</text>
</g>
<!-- q3q1 -->
<g id="node24" class="node">
<title>q3q1</title>
<ellipse fill="none" stroke="#000000" cx="722.256" cy="-119" rx="30.2015" ry="30.2015"/>
<text text-anchor="middle" x="722.256" y="-114.8" font-family="Times,serif" font-size="14.00" fill="#000000">q3q1</text>
</g>
<!-- q4q4&#45;&gt;q3q1 -->
<g id="edge44" class="edge">
<title>q4q4&#45;&gt;q3q1</title>
<path fill="none" stroke="#000000" d="M796.0326,-76.9891C787.543,-76.6731 778.586,-77.3941 770.6064,-80.2 763.921,-82.5508 757.4761,-86.259 751.5902,-90.4709"/>
<polygon fill="#000000" stroke="#000000" points="749.1048,-87.9726 743.4038,-96.9029 753.4295,-93.4769 749.1048,-87.9726"/>
<text text-anchor="middle" x="774.1064" y="-85.2" font-family="Times,serif" font-size="14.00" fill="#000000">a</text>
</g>
<!-- q4q2 -->
<g id="node4" class="node">
<title>q4q2</title>
<ellipse fill="none" stroke="#000000" cx="457.1536" cy="-146" rx="30.2188" ry="30.2188"/>
<ellipse fill="none" stroke="#000000" cx="457.1536" cy="-146" rx="34.2014" ry="34.2014"/>
<text text-anchor="middle" x="457.1536" y="-141.8" font-family="Times,serif" font-size="14.00" fill="#000000">q4q2</text>
</g>
<!-- q4q2&#45;&gt;q3q5 -->
<g id="edge40" class="edge">
<title>q4q2&#45;&gt;q3q5</title>
<path fill="none" stroke="#000000" d="M423.0259,-140.72C414.7093,-139.1469 405.8833,-137.2347 397.8032,-135 394.4202,-134.0644 390.9399,-132.9934 387.4714,-131.8504"/>
<polygon fill="#000000" stroke="#000000" points="388.4131,-128.4723 377.8183,-128.4914 386.1126,-135.0835 388.4131,-128.4723"/>
<text text-anchor="middle" x="401.3032" y="-141.2" font-family="Times,serif" font-size="14.00" fill="#000000">a</text>
</g>
<!-- q4q2&#45;&gt;q3q3 -->
<g id="edge41" class="edge">
<title>q4q2&#45;&gt;q3q3</title>
<path fill="none" stroke="#000000" d="M489.1144,-159.3024C498.5328,-164.1113 508.4602,-170.1294 516.504,-177.2 519.8809,-180.1683 531.2036,-196.2109 542.0431,-212.0577"/>
<polygon fill="#000000" stroke="#000000" points="539.4429,-214.458 547.9618,-220.757 545.2304,-210.5203 539.4429,-214.458"/>
<text text-anchor="middle" x="513.004" y="-182.2" font-family="Times,serif" font-size="14.00" fill="#000000">b</text>
</g>
<!-- q4q3 -->
<g id="node5" class="node">
<title>q4q3</title>
<ellipse fill="none" stroke="#000000" cx="1155.4883" cy="-322" rx="30.2188" ry="30.2188"/>
<ellipse fill="none" stroke="#000000" cx="1155.4883" cy="-322" rx="34.2014" ry="34.2014"/>
<text text-anchor="middle" x="1155.4883" y="-317.8" font-family="Times,serif" font-size="14.00" fill="#000000">q4q3</text>
</g>
<!-- q4q3&#45;&gt;q3q6 -->
<g id="edge42" class="edge">
<title>q4q3&#45;&gt;q3q6</title>
<path fill="none" stroke="#000000" d="M1122.9793,-334.1625C1111.5812,-338.4269 1098.6737,-343.2559 1086.8473,-347.6805"/>
<polygon fill="#000000" stroke="#000000" points="1085.3638,-344.4985 1077.2243,-351.2807 1087.8167,-351.0547 1085.3638,-344.4985"/>
<text text-anchor="middle" x="1100.0306" y="-348.2" font-family="Times,serif" font-size="14.00" fill="#000000">a</text>
</g>
<!-- q4q3&#45;&gt;q3q1 -->
<g id="edge43" class="edge">
<title>q4q3&#45;&gt;q3q1</title>
<path fill="none" stroke="#000000" d="M1150.7444,-287.7645C1138.8544,-208.8727 1104.6524,-21 1048.5729,-21 829.9568,-21 829.9568,-21 829.9568,-21 791.4676,-21 760.6658,-55.6626 742.0211,-83.7582"/>
<polygon fill="#000000" stroke="#000000" points="739.0509,-81.9065 736.6301,-92.2211 744.9548,-85.6674 739.0509,-81.9065"/>
<text text-anchor="middle" x="940.8721" y="-25.2" font-family="Times,serif" font-size="14.00" fill="#000000">b</text>
</g>
<!-- q1q4 -->
<g id="node6" class="node">
<title>q1q4</title>
<ellipse fill="none" stroke="#000000" cx="30.3504" cy="-589" rx="30.2015" ry="30.2015"/>
<text text-anchor="middle" x="30.3504" y="-584.8" font-family="Times,serif" font-size="14.00" fill="#000000">q1q4</text>
</g>
<!-- q2q5 -->
<g id="node12" class="node">
<title>q2q5</title>
<ellipse fill="none" stroke="#000000" cx="643.5552" cy="-524" rx="30.2015" ry="30.2015"/>
<text text-anchor="middle" x="643.5552" y="-519.8" font-family="Times,serif" font-size="14.00" fill="#000000">q2q5</text>
</g>
<!-- q1q4&#45;&gt;q2q5 -->
<g id="edge9" class="edge">
<title>q1q4&#45;&gt;q2q5</title>
<path fill="none" stroke="#000000" d="M59.1856,-599.4574C80.6381,-606.308 110.794,-614 138.0512,-614 138.0512,-614 138.0512,-614 401.3032,-614 479.5388,-614 563.591,-572.2428 609.2369,-545.6145"/>
<polygon fill="#000000" stroke="#000000" points="611.0282,-548.6214 617.8409,-540.5074 607.4552,-542.602 611.0282,-548.6214"/>
<text text-anchor="middle" x="297.6024" y="-618.2" font-family="Times,serif" font-size="14.00" fill="#000000">b</text>
</g>
<!-- q2q1 -->
<g id="node16" class="node">
<title>q2q1</title>
<ellipse fill="none" stroke="#000000" cx="138.0512" cy="-547" rx="30.2015" ry="30.2015"/>
<text text-anchor="middle" x="138.0512" y="-542.8" font-family="Times,serif" font-size="14.00" fill="#000000">q2q1</text>
</g>
<!-- q1q4&#45;&gt;q2q1 -->
<g id="edge8" class="edge">
<title>q1q4&#45;&gt;q2q1</title>
<path fill="none" stroke="#000000" d="M58.6475,-577.965C71.2857,-573.0365 86.3683,-567.1547 99.9767,-561.8479"/>
<polygon fill="#000000" stroke="#000000" points="101.5241,-565.0012 109.5691,-558.1071 98.9808,-558.4796 101.5241,-565.0012"/>
<text text-anchor="middle" x="82.2008" y="-573.2" font-family="Times,serif" font-size="14.00" fill="#000000">a</text>
</g>
<g id="node7" class="node">
<title></title>
</g>
<!-- q1q1 -->
<g id="node8" class="node">
<title>q1q1</title>
<ellipse fill="none" stroke="#000000" cx="138.0512" cy="-116" rx="30.2015" ry="30.2015"/>
<text text-anchor="middle" x="138.0512" y="-111.8" font-family="Times,serif" font-size="14.00" fill="#000000">q1q1</text>
</g>
<!-- &#45;&gt;q1q1 -->
<g id="edge1" class="edge">
<title>&#45;&gt;q1q1</title>
<path fill="none" stroke="#000000" d="M57.5279,-116C69.5255,-116 83.8864,-116 97.1366,-116"/>
<polygon fill="#000000" stroke="#000000" points="97.4586,-119.5001 107.4586,-116 97.4585,-112.5001 97.4586,-119.5001"/>
</g>
<!-- q2q4 -->
<g id="node9" class="node">
<title>q2q4</title>
<ellipse fill="none" stroke="#000000" cx="245.752" cy="-93" rx="30.2015" ry="30.2015"/>
<text text-anchor="middle" x="245.752" y="-88.8" font-family="Times,serif" font-size="14.00" fill="#000000">q2q4</text>
</g>
<!-- q1q1&#45;&gt;q2q4 -->
<g id="edge2" class="edge">
<title>q1q1&#45;&gt;q2q4</title>
<path fill="none" stroke="#000000" d="M165.4159,-102.3559C173.2907,-99.0545 182.0212,-95.9699 190.4016,-94.2 195.1478,-93.1977 200.1739,-92.5439 205.185,-92.1402"/>
<polygon fill="#000000" stroke="#000000" points="205.543,-95.6268 215.3555,-91.6313 205.1931,-88.6355 205.543,-95.6268"/>
<text text-anchor="middle" x="193.9016" y="-99.2" font-family="Times,serif" font-size="14.00" fill="#000000">a</text>
</g>
<!-- q2q2 -->
<g id="node10" class="node">
<title>q2q2</title>
<ellipse fill="none" stroke="#000000" cx="245.752" cy="-173" rx="30.2015" ry="30.2015"/>
<text text-anchor="middle" x="245.752" y="-168.8" font-family="Times,serif" font-size="14.00" fill="#000000">q2q2</text>
</g>
<!-- q1q1&#45;&gt;q2q2 -->
<g id="edge3" class="edge">
<title>q1q1&#45;&gt;q2q2</title>
<path fill="none" stroke="#000000" d="M162.6854,-134.0243C171.2245,-139.8474 181.014,-146.067 190.4016,-151 195.7966,-153.835 201.6413,-156.5306 207.4426,-159.0009"/>
<polygon fill="#000000" stroke="#000000" points="206.4964,-162.3949 217.0777,-162.9302 209.1398,-155.9131 206.4964,-162.3949"/>
<text text-anchor="middle" x="193.9016" y="-158.2" font-family="Times,serif" font-size="14.00" fill="#000000">b</text>
</g>
<!-- q2q4&#45;&gt;q3q5 -->
<g id="edge21" class="edge">
<title>q2q4&#45;&gt;q3q5</title>
<path fill="none" stroke="#000000" d="M275.4685,-99.8774C286.2079,-102.3629 298.5068,-105.2093 309.9532,-107.8584"/>
<polygon fill="#000000" stroke="#000000" points="309.2003,-111.2766 319.732,-110.1216 310.7787,-104.4569 309.2003,-111.2766"/>
<text text-anchor="middle" x="297.6024" y="-110.2" font-family="Times,serif" font-size="14.00" fill="#000000">b</text>
</g>
<!-- q2q4&#45;&gt;q3q1 -->
<g id="edge20" class="edge">
<title>q2q4&#45;&gt;q3q1</title>
<path fill="none" stroke="#000000" d="M260.6208,-66.1005C278.0055,-38.6341 309.5508,0 349.4528,0 349.4528,0 349.4528,0 513.004,0 585.3803,0 655.5948,-54.4591 693.4501,-89.6952"/>
<polygon fill="#000000" stroke="#000000" points="691.3665,-92.5435 701.026,-96.8959 696.189,-87.4697 691.3665,-92.5435"/>
<text text-anchor="middle" x="457.1536" y="-4.2" font-family="Times,serif" font-size="14.00" fill="#000000">a</text>
</g>
<!-- q2q2&#45;&gt;q3q5 -->
<g id="edge16" class="edge">
<title>q2q2&#45;&gt;q3q5</title>
<path fill="none" stroke="#000000" d="M272.4575,-158.5786C284.9399,-151.8379 299.9875,-143.712 313.4561,-136.4387"/>
<polygon fill="#000000" stroke="#000000" points="315.3414,-139.3985 322.4773,-131.5672 312.0152,-133.2391 315.3414,-139.3985"/>
<text text-anchor="middle" x="297.6024" y="-151.2" font-family="Times,serif" font-size="14.00" fill="#000000">a</text>
</g>
<!-- q2q2&#45;&gt;q3q3 -->
<g id="edge17" class="edge">
<title>q2q2&#45;&gt;q3q3</title>
<path fill="none" stroke="#000000" d="M275.6044,-178.61C325.7105,-188.2256 429.7661,-209.0502 516.504,-232 519.4912,-232.7904 522.5757,-233.6295 525.6735,-234.4889"/>
<polygon fill="#000000" stroke="#000000" points="524.936,-237.9174 535.5108,-237.2675 526.8387,-231.181 524.936,-237.9174"/>
<text text-anchor="middle" x="401.3032" y="-209.2" font-family="Times,serif" font-size="14.00" fill="#000000">b</text>
</g>
<!-- q1q2 -->
<g id="node11" class="node">
<title>q1q2</title>
<ellipse fill="none" stroke="#000000" cx="457.1536" cy="-465" rx="30.2015" ry="30.2015"/>
<text text-anchor="middle" x="457.1536" y="-460.8" font-family="Times,serif" font-size="14.00" fill="#000000">q1q2</text>
</g>
<!-- q1q2&#45;&gt;q2q5 -->
<g id="edge4" class="edge">
<title>q1q2&#45;&gt;q2q5</title>
<path fill="none" stroke="#000000" d="M486.2788,-474.2188C518.058,-484.2775 569.101,-500.4337 604.3759,-511.5989"/>
<polygon fill="#000000" stroke="#000000" points="603.7374,-515.0679 614.3275,-514.7488 605.8498,-508.3943 603.7374,-515.0679"/>
<text text-anchor="middle" x="513.004" y="-488.2" font-family="Times,serif" font-size="14.00" fill="#000000">a</text>
</g>
<!-- q2q3 -->
<g id="node13" class="node">
<title>q2q3</title>
<ellipse fill="none" stroke="#000000" cx="564.8544" cy="-331" rx="30.2015" ry="30.2015"/>
<text text-anchor="middle" x="564.8544" y="-326.8" font-family="Times,serif" font-size="14.00" fill="#000000">q2q3</text>
</g>
<!-- q1q2&#45;&gt;q2q3 -->
<g id="edge5" class="edge">
<title>q1q2&#45;&gt;q2q3</title>
<path fill="none" stroke="#000000" d="M476.4083,-441.0435C493.9444,-419.2253 519.9684,-386.8465 539.2517,-362.8545"/>
<polygon fill="#000000" stroke="#000000" points="542.2297,-364.7362 545.7663,-354.7491 536.7735,-360.3509 542.2297,-364.7362"/>
<text text-anchor="middle" x="513.004" y="-402.2" font-family="Times,serif" font-size="14.00" fill="#000000">b</text>
</g>
<!-- q2q5&#45;&gt;q3q2 -->
<g id="edge22" class="edge">
<title>q2q5&#45;&gt;q3q2</title>
<path fill="none" stroke="#000000" d="M673.1822,-516.5995C701.5038,-508.6607 744.6481,-494.2552 777.6064,-473 786.6495,-467.1679 795.3945,-459.5645 803.0633,-451.9802"/>
<polygon fill="#000000" stroke="#000000" points="805.8976,-454.0848 810.3445,-444.4684 800.8713,-449.2128 805.8976,-454.0848"/>
<text text-anchor="middle" x="722.256" y="-514.2" font-family="Times,serif" font-size="14.00" fill="#000000">a</text>
</g>
<!-- q2q5&#45;&gt;q3q6 -->
<g id="edge23" class="edge">
<title>q2q5&#45;&gt;q3q6</title>
<path fill="none" stroke="#000000" d="M672.5217,-533.1666C698.762,-540.6522 738.6321,-550 774.1064,-550 774.1064,-550 774.1064,-550 940.8721,-550 1008.3675,-550 1034.1573,-457.6377 1043.5464,-402.3902"/>
<polygon fill="#000000" stroke="#000000" points="1047.052,-402.6307 1045.1642,-392.2055 1040.1387,-401.5326 1047.052,-402.6307"/>
<text text-anchor="middle" x="829.9568" y="-554.2" font-family="Times,serif" font-size="14.00" fill="#000000">b</text>
</g>
<!-- q2q3&#45;&gt;q3q6 -->
<g id="edge18" class="edge">
<title>q2q3&#45;&gt;q3q6</title>
<path fill="none" stroke="#000000" d="M595.3232,-331C627.0305,-331 678.1234,-331 722.256,-331 722.256,-331 722.256,-331 940.8721,-331 964.9504,-331 990.9168,-338.2439 1011.3194,-345.7283"/>
<polygon fill="#000000" stroke="#000000" points="1010.2655,-349.0728 1020.8556,-349.3911 1012.7754,-342.5382 1010.2655,-349.0728"/>
<text text-anchor="middle" x="829.9568" y="-335.2" font-family="Times,serif" font-size="14.00" fill="#000000">a</text>
</g>
<!-- q2q3&#45;&gt;q3q1 -->
<g id="edge19" class="edge">
<title>q2q3&#45;&gt;q3q1</title>
<path fill="none" stroke="#000000" d="M589.5848,-313.2321C614.2882,-294.2603 651.6941,-262.0156 673.9056,-226 688.0735,-203.0269 680.7094,-192.5589 691.9056,-168 694.1886,-162.9922 696.8915,-157.8745 699.7285,-152.9252"/>
<polygon fill="#000000" stroke="#000000" points="702.7835,-154.636 704.9183,-144.2585 696.778,-151.0398 702.7835,-154.636"/>
<text text-anchor="middle" x="643.5552" y="-297.2" font-family="Times,serif" font-size="14.00" fill="#000000">b</text>
</g>
<!-- q1q3 -->
<g id="node14" class="node">
<title>q1q3</title>
<ellipse fill="none" stroke="#000000" cx="30.3504" cy="-493" rx="30.2015" ry="30.2015"/>
<text text-anchor="middle" x="30.3504" y="-488.8" font-family="Times,serif" font-size="14.00" fill="#000000">q1q3</text>
</g>
<!-- q2q6 -->
<g id="node15" class="node">
<title>q2q6</title>
<ellipse fill="none" stroke="#000000" cx="138.0512" cy="-460" rx="30.2015" ry="30.2015"/>
<text text-anchor="middle" x="138.0512" y="-455.8" font-family="Times,serif" font-size="14.00" fill="#000000">q2q6</text>
</g>
<!-- q1q3&#45;&gt;q2q6 -->
<g id="edge6" class="edge">
<title>q1q3&#45;&gt;q2q6</title>
<path fill="none" stroke="#000000" d="M59.1352,-482.6389C65.5485,-480.431 72.3345,-478.1724 78.7008,-476.2 85.2128,-474.1825 92.167,-472.1639 98.9382,-470.2703"/>
<polygon fill="#000000" stroke="#000000" points="99.9399,-473.6249 108.6549,-467.5999 98.0849,-466.8751 99.9399,-473.6249"/>
<text text-anchor="middle" x="82.2008" y="-481.2" font-family="Times,serif" font-size="14.00" fill="#000000">a</text>
</g>
<!-- q1q3&#45;&gt;q2q1 -->
<g id="edge7" class="edge">
<title>q1q3&#45;&gt;q2q1</title>
<path fill="none" stroke="#000000" d="M57.5279,-506.6265C70.9208,-513.3416 87.2586,-521.5331 101.7089,-528.7784"/>
<polygon fill="#000000" stroke="#000000" points="100.3744,-532.0245 110.8824,-533.3779 103.5119,-525.767 100.3744,-532.0245"/>
<text text-anchor="middle" x="82.2008" y="-524.2" font-family="Times,serif" font-size="14.00" fill="#000000">b</text>
</g>
<!-- q2q6&#45;&gt;q3q4 -->
<g id="edge25" class="edge">
<title>q2q6&#45;&gt;q3q4</title>
<path fill="none" stroke="#000000" d="M168.6258,-460.8517C179.8812,-461.1652 192.8164,-461.5255 204.8374,-461.8603"/>
<polygon fill="#000000" stroke="#000000" points="205.0073,-465.3663 215.1009,-462.1462 205.2023,-458.369 205.0073,-465.3663"/>
<text text-anchor="middle" x="193.9016" y="-466.2" font-family="Times,serif" font-size="14.00" fill="#000000">b</text>
</g>
<!-- q2q6&#45;&gt;q3q3 -->
<g id="edge24" class="edge">
<title>q2q6&#45;&gt;q3q3</title>
<path fill="none" stroke="#000000" d="M156.2778,-435.6151C165.4892,-424.691 177.4519,-412.405 190.4016,-404 274.9582,-349.1186 311.7576,-368.7854 404.8032,-330 455.8799,-308.709 467.9124,-301.4764 516.504,-275 521.0084,-272.5457 525.6948,-269.8809 530.2999,-267.1947"/>
<polygon fill="#000000" stroke="#000000" points="532.1643,-270.1584 538.9864,-262.0523 528.5983,-264.1348 532.1643,-270.1584"/>
<text text-anchor="middle" x="349.4528" y="-360.2" font-family="Times,serif" font-size="14.00" fill="#000000">a</text>
</g>
<!-- q2q1&#45;&gt;q3q4 -->
<g id="edge14" class="edge">
<title>q2q1&#45;&gt;q3q4</title>
<path fill="none" stroke="#000000" d="M162.2214,-528.1488C177.3259,-516.3681 196.9611,-501.0539 213.3989,-488.2334"/>
<polygon fill="#000000" stroke="#000000" points="215.9297,-490.6982 221.6625,-481.7883 211.6247,-485.1785 215.9297,-490.6982"/>
<text text-anchor="middle" x="193.9016" y="-509.2" font-family="Times,serif" font-size="14.00" fill="#000000">a</text>
</g>
<!-- q2q1&#45;&gt;q3q2 -->
<g id="edge15" class="edge">
<title>q2q1&#45;&gt;q3q2</title>
<path fill="none" stroke="#000000" d="M166.9802,-556.2025C188.4793,-562.2311 218.6525,-569 245.752,-569 245.752,-569 245.752,-569 457.1536,-569 535.9193,-569 540.3673,-514.9791 613.2048,-485 673.2905,-460.2693 746.3399,-440.7533 790.4384,-430.0539"/>
<polygon fill="#000000" stroke="#000000" points="791.2875,-433.4496 800.1967,-427.7159 789.6564,-426.6423 791.2875,-433.4496"/>
<text text-anchor="middle" x="457.1536" y="-573.2" font-family="Times,serif" font-size="14.00" fill="#000000">b</text>
</g>
<!-- q1q5 -->
<g id="node17" class="node">
<title>q1q5</title>
<ellipse fill="none" stroke="#000000" cx="30.3504" cy="-267" rx="30.2015" ry="30.2015"/>
<text text-anchor="middle" x="30.3504" y="-262.8" font-family="Times,serif" font-size="14.00" fill="#000000">q1q5</text>
</g>
<!-- q1q5&#45;&gt;q2q2 -->
<g id="edge10" class="edge">
<title>q1q5&#45;&gt;q2q2</title>
<path fill="none" stroke="#000000" d="M53.4826,-247.1939C67.3059,-236.1919 85.6435,-222.9919 103.7008,-214.2 136.5374,-198.2123 176.7349,-187.2722 205.978,-180.706"/>
<polygon fill="#000000" stroke="#000000" points="206.8057,-184.1079 215.8348,-178.5648 205.3197,-177.2674 206.8057,-184.1079"/>
<text text-anchor="middle" x="138.0512" y="-219.2" font-family="Times,serif" font-size="14.00" fill="#000000">a</text>
</g>
<!-- q1q5&#45;&gt;q2q6 -->
<g id="edge11" class="edge">
<title>q1q5&#45;&gt;q2q6</title>
<path fill="none" stroke="#000000" d="M45.3257,-293.8358C64.2947,-327.8283 97.0439,-386.5149 118.1135,-424.2716"/>
<polygon fill="#000000" stroke="#000000" points="115.2737,-426.3653 123.203,-433.3921 121.3864,-422.9542 115.2737,-426.3653"/>
<text text-anchor="middle" x="82.2008" y="-368.2" font-family="Times,serif" font-size="14.00" fill="#000000">b</text>
</g>
<!-- q1q6 -->
<g id="node18" class="node">
<title>q1q6</title>
<ellipse fill="none" stroke="#000000" cx="138.0512" cy="-270" rx="30.2015" ry="30.2015"/>
<text text-anchor="middle" x="138.0512" y="-265.8" font-family="Times,serif" font-size="14.00" fill="#000000">q1q6</text>
</g>
<!-- q1q6&#45;&gt;q2q4 -->
<g id="edge13" class="edge">
<title>q1q6&#45;&gt;q2q4</title>
<path fill="none" stroke="#000000" d="M158.8374,-247.6086C163.9682,-241.0531 168.9706,-233.5953 172.4016,-226 190.2365,-186.5186 166.5731,-166.3811 190.4016,-130.2 195.2533,-122.8331 202.1197,-116.5563 209.3717,-111.3732"/>
<polygon fill="#000000" stroke="#000000" points="211.4852,-114.174 217.9646,-105.7913 207.672,-108.3038 211.4852,-114.174"/>
<text text-anchor="middle" x="193.9016" y="-135.2" font-family="Times,serif" font-size="14.00" fill="#000000">b</text>
</g>
<!-- q1q6&#45;&gt;q2q3 -->
<g id="edge12" class="edge">
<title>q1q6&#45;&gt;q2q3</title>
<path fill="none" stroke="#000000" d="M167.7118,-276.5434C203.4625,-284.2423 265.4326,-296.9883 319.1024,-305 391.0515,-315.7404 475.5008,-323.6592 524.328,-327.7824"/>
<polygon fill="#000000" stroke="#000000" points="524.2257,-331.2859 534.4818,-328.6284 524.8069,-324.3101 524.2257,-331.2859"/>
<text text-anchor="middle" x="349.4528" y="-317.2" font-family="Times,serif" font-size="14.00" fill="#000000">a</text>
</g>
<!-- q3q4&#45;&gt;q3q5 -->
<g id="edge33" class="edge">
<title>q3q4&#45;&gt;q3q5</title>
<path fill="none" stroke="#000000" d="M253.8668,-433.5599C267.0288,-386.1235 294.0852,-289.9043 319.1024,-209 324.5337,-191.4354 330.8605,-172.0966 336.3277,-155.7014"/>
<polygon fill="#000000" stroke="#000000" points="339.748,-156.5094 339.605,-145.9156 333.1104,-154.2864 339.748,-156.5094"/>
<text text-anchor="middle" x="297.6024" y="-290.2" font-family="Times,serif" font-size="14.00" fill="#000000">b</text>
</g>
<!-- q4q1 -->
<g id="node25" class="node">
<title>q4q1</title>
<ellipse fill="none" stroke="#000000" cx="349.4528" cy="-455" rx="30.2015" ry="30.2015"/>
<text text-anchor="middle" x="349.4528" y="-450.8" font-family="Times,serif" font-size="14.00" fill="#000000">q4q1</text>
</g>
<!-- q3q4&#45;&gt;q4q1 -->
<g id="edge32" class="edge">
<title>q3q4&#45;&gt;q4q1</title>
<path fill="none" stroke="#000000" d="M276.0253,-460.6646C286.264,-459.8747 297.869,-458.9794 308.7804,-458.1377"/>
<polygon fill="#000000" stroke="#000000" points="309.2611,-461.6111 318.9623,-457.3522 308.7227,-454.6318 309.2611,-461.6111"/>
<text text-anchor="middle" x="297.6024" y="-464.2" font-family="Times,serif" font-size="14.00" fill="#000000">a</text>
</g>
<!-- q3q2&#45;&gt;q4q5 -->
<g id="edge28" class="edge">
<title>q3q2&#45;&gt;q4q5</title>
<path fill="none" stroke="#000000" d="M853.8838,-402.0842C862.371,-396.4786 872.3085,-391.0736 882.3072,-388.2 886.9644,-386.8615 891.9096,-386.185 896.8756,-385.9708"/>
<polygon fill="#000000" stroke="#000000" points="896.9632,-389.4724 907.0126,-386.1168 897.064,-382.4731 896.9632,-389.4724"/>
<text text-anchor="middle" x="885.4145" y="-393.2" font-family="Times,serif" font-size="14.00" fill="#000000">a</text>
</g>
<!-- q3q2&#45;&gt;q3q3 -->
<g id="edge29" class="edge">
<title>q3q2&#45;&gt;q3q3</title>
<path fill="none" stroke="#000000" d="M810.1158,-397.6277C782.5496,-366.5492 729.7223,-311.8475 673.9056,-280 652.493,-267.7826 626.1615,-259.4133 604.7375,-254.0358"/>
<polygon fill="#000000" stroke="#000000" points="605.5064,-250.6211 594.9669,-251.7026 603.8805,-257.4296 605.5064,-250.6211"/>
<text text-anchor="middle" x="722.256" y="-342.2" font-family="Times,serif" font-size="14.00" fill="#000000">b</text>
</g>
<!-- q3q5&#45;&gt;q4q2 -->
<g id="edge34" class="edge">
<title>q3q5&#45;&gt;q4q2</title>
<path fill="none" stroke="#000000" d="M379.9666,-115.1333C388.1393,-115.3154 396.8973,-116.1398 404.8032,-118.2 409.4741,-119.4172 414.1909,-121.1217 418.7799,-123.094"/>
<polygon fill="#000000" stroke="#000000" points="417.429,-126.3269 427.9644,-127.4483 420.4278,-120.0018 417.429,-126.3269"/>
<text text-anchor="middle" x="401.3032" y="-123.2" font-family="Times,serif" font-size="14.00" fill="#000000">a</text>
</g>
<!-- q3q5&#45;&gt;q3q6 -->
<g id="edge35" class="edge">
<title>q3q5&#45;&gt;q3q6</title>
<path fill="none" stroke="#000000" d="M378.8497,-108.9206C407.7784,-102.1807 453.0746,-94.8789 491.504,-103 703.6915,-147.8404 930.2597,-284.8537 1014.4917,-339.3236"/>
<polygon fill="#000000" stroke="#000000" points="1012.8339,-342.4206 1023.1247,-344.9406 1016.6515,-336.5532 1012.8339,-342.4206"/>
<text text-anchor="middle" x="722.256" y="-198.2" font-family="Times,serif" font-size="14.00" fill="#000000">b</text>
</g>
<!-- q3q3&#45;&gt;q4q6 -->
<g id="edge30" class="edge">
<title>q3q3&#45;&gt;q4q6</title>
<path fill="none" stroke="#000000" d="M535.8948,-255.2004C529.5522,-256.9862 522.8394,-258.7031 516.504,-260 429.9088,-277.7264 404.9056,-262.9689 319.1024,-284.2 269.363,-296.5075 214.6884,-318.54 178.5774,-334.3593"/>
<polygon fill="#000000" stroke="#000000" points="177.0857,-331.1919 169.358,-338.44 179.919,-337.5929 177.0857,-331.1919"/>
<text text-anchor="middle" x="349.4528" y="-289.2" font-family="Times,serif" font-size="14.00" fill="#000000">a</text>
</g>
<!-- q3q3&#45;&gt;q3q1 -->
<g id="edge31" class="edge">
<title>q3q3&#45;&gt;q3q1</title>
<path fill="none" stroke="#000000" d="M588.7603,-226.7114C615.8809,-204.8291 660.2359,-169.0411 690.3069,-144.7782"/>
<polygon fill="#000000" stroke="#000000" points="692.7986,-147.265 698.3835,-138.2616 688.403,-141.8171 692.7986,-147.265"/>
<text text-anchor="middle" x="643.5552" y="-209.2" font-family="Times,serif" font-size="14.00" fill="#000000">b</text>
</g>
<!-- q3q6&#45;&gt;q4q3 -->
<g id="edge36" class="edge">
<title>q3q6&#45;&gt;q4q3</title>
<path fill="none" stroke="#000000" d="M1069.7623,-340.0191C1077.6003,-333.3304 1087.0094,-326.8005 1096.9233,-323.2 1101.407,-321.5716 1106.2138,-320.4997 1111.0747,-319.8349"/>
<polygon fill="#000000" stroke="#000000" points="1111.3718,-323.3224 1121.0424,-318.9946 1110.7837,-316.3472 1111.3718,-323.3224"/>
<text text-anchor="middle" x="1100.0306" y="-328.2" font-family="Times,serif" font-size="14.00" fill="#000000">a</text>
</g>
<!-- q3q6&#45;&gt;q3q4 -->
<g id="edge37" class="edge">
<title>q3q6&#45;&gt;q3q4</title>
<path fill="none" stroke="#000000" d="M1044.0738,-392.0193C1037.8857,-427.5101 1024.6333,-487.6092 1000.2225,-534 982.6083,-567.4746 978.6982,-595 940.8721,-595 643.5552,-595 643.5552,-595 643.5552,-595 572.6895,-595 559.1621,-568.0787 491.504,-547 414.9703,-523.1561 394.4302,-521.4163 319.1024,-494 307.2275,-489.678 294.4813,-484.4903 282.9998,-479.606"/>
<polygon fill="#000000" stroke="#000000" points="284.2686,-476.3417 273.6998,-475.6003 281.4995,-482.7707 284.2686,-476.3417"/>
<text text-anchor="middle" x="643.5552" y="-599.2" font-family="Times,serif" font-size="14.00" fill="#000000">b</text>
</g>
<!-- q3q1&#45;&gt;q4q4 -->
<g id="edge26" class="edge">
<title>q3q1&#45;&gt;q4q4</title>
<path fill="none" stroke="#000000" d="M751.1178,-109.3527C762.3276,-105.6057 775.3937,-101.2382 787.6274,-97.149"/>
<polygon fill="#000000" stroke="#000000" points="788.8343,-100.436 797.2089,-93.9463 786.6151,-93.7971 788.8343,-100.436"/>
<text text-anchor="middle" x="774.1064" y="-107.2" font-family="Times,serif" font-size="14.00" fill="#000000">a</text>
</g>
<!-- q3q1&#45;&gt;q3q2 -->
<g id="edge27" class="edge">
<title>q3q1&#45;&gt;q3q2</title>
<path fill="none" stroke="#000000" d="M739.8077,-143.8437C744.4983,-151.3399 749.2034,-159.7699 752.6064,-168 784.6955,-245.6088 767.1454,-272.9885 795.6064,-352 799.64,-363.1979 805.0174,-374.944 810.3178,-385.5055"/>
<polygon fill="#000000" stroke="#000000" points="807.2288,-387.152 814.9203,-394.4384 813.4514,-383.9459 807.2288,-387.152"/>
<text text-anchor="middle" x="774.1064" y="-280.2" font-family="Times,serif" font-size="14.00" fill="#000000">b</text>
</g>
<!-- q4q1&#45;&gt;q3q4 -->
<g id="edge38" class="edge">
<title>q4q1&#45;&gt;q3q4</title>
<path fill="none" stroke="#000000" d="M322.316,-440.7661C313.3892,-437.6965 303.376,-435.9604 294.1024,-438.2 289.7021,-439.2627 285.2526,-440.7983 280.927,-442.5922"/>
<polygon fill="#000000" stroke="#000000" points="279.3301,-439.4745 271.7227,-446.8487 282.2683,-445.8281 279.3301,-439.4745"/>
<text text-anchor="middle" x="297.6024" y="-443.2" font-family="Times,serif" font-size="14.00" fill="#000000">a</text>
</g>
<!-- q4q1&#45;&gt;q3q2 -->
<g id="edge39" class="edge">
<title>q4q1&#45;&gt;q3q2</title>
<path fill="none" stroke="#000000" d="M376.9407,-441.3727C390.4113,-435.4183 407.0834,-429.0949 422.8032,-426 554.8559,-400.0018 715.6852,-409.9078 789.4523,-416.6935"/>
<polygon fill="#000000" stroke="#000000" points="789.4039,-420.2046 799.6904,-417.6674 790.0668,-413.2361 789.4039,-420.2046"/>
<text text-anchor="middle" x="564.8544" y="-416.2" font-family="Times,serif" font-size="14.00" fill="#000000">b</text>
</g>
</g>
</svg>
