<?xml version="1.0" encoding="UTF-8" standalone="no"?>
<!DOCTYPE svg PUBLIC "-//W3C//DTD SVG 1.1//EN"
 "http://www.w3.org/Graphics/SVG/1.1/DTD/svg11.dtd">
<!-- Generated by graphviz version 2.40.1 (20161225.0304)
 -->
<!-- Title: finite_state_machine Pages: 1 -->
<svg width="317pt" height="214pt"
 viewBox="0.00 0.00 317.16 214.39" xmlns="http://www.w3.org/2000/svg" xmlns:xlink="http://www.w3.org/1999/xlink">
<g id="graph0" class="graph" transform="scale(1 1) rotate(0) translate(4 210.3869)">
<title>finite_state_machine</title>
<polygon fill="#ffffff" stroke="transparent" points="-4,4 -4,-210.3869 313.1607,-210.3869 313.1607,4 -4,4"/>
<!-- q1 -->
<g id="node1" class="node">
<title>q1</title>
<ellipse fill="none" stroke="#000000" cx="111.6935" cy="-105.6935" rx="20.8887" ry="20.8887"/>
<text text-anchor="middle" x="111.6935" y="-101.4935" font-family="Times,serif" font-size="14.00" fill="#000000">q1</text>
</g>
<!-- q3 -->
<g id="node2" class="node">
<title>q3</title>
<ellipse fill="none" stroke="#000000" cx="200.0804" cy="-185.6935" rx="20.8887" ry="20.8887"/>
<text text-anchor="middle" x="200.0804" y="-181.4935" font-family="Times,serif" font-size="14.00" fill="#000000">q3</text>
</g>
<!-- q1&#45;&gt;q3 -->
<g id="edge3" class="edge">
<title>q1&#45;&gt;q3</title>
<path fill="none" stroke="#000000" d="M120.6317,-124.4459C127.3613,-136.9233 137.6068,-152.937 150.3869,-163.6935 156.243,-168.6222 163.3778,-172.6364 170.3929,-175.8208"/>
<polygon fill="#000000" stroke="#000000" points="169.1731,-179.1034 179.7534,-179.6568 171.8275,-172.6261 169.1731,-179.1034"/>
<text text-anchor="middle" x="153.8869" y="-171.8935" font-family="Times,serif" font-size="14.00" fill="#000000">a</text>
</g>
<!-- q4 -->
<g id="node3" class="node">
<title>q4</title>
<ellipse fill="none" stroke="#000000" cx="200.0804" cy="-126.6935" rx="20.8887" ry="20.8887"/>
<text text-anchor="middle" x="200.0804" y="-122.4935" font-family="Times,serif" font-size="14.00" fill="#000000">q4</text>
</g>
<!-- q1&#45;&gt;q4 -->
<g id="edge5" class="edge">
<title>q1&#45;&gt;q4</title>
<path fill="none" stroke="#000000" d="M132.3923,-104.4682C140.3038,-104.4587 149.3517,-105.0099 157.3869,-106.8935 162.5252,-108.0979 167.7886,-109.9551 172.7868,-112.059"/>
<polygon fill="#000000" stroke="#000000" points="171.4232,-115.2845 181.9691,-116.302 174.3596,-108.9301 171.4232,-115.2845"/>
<text text-anchor="middle" x="153.8869" y="-111.8935" font-family="Times,serif" font-size="14.00" fill="#000000">a</text>
</g>
<!-- q2 -->
<g id="node5" class="node">
<title>q2</title>
<ellipse fill="none" stroke="#000000" cx="200.0804" cy="-63.6935" rx="20.8568" ry="20.8568"/>
<ellipse fill="none" stroke="#000000" cx="200.0804" cy="-63.6935" rx="24.8884" ry="24.8884"/>
<text text-anchor="middle" x="200.0804" y="-59.4935" font-family="Times,serif" font-size="14.00" fill="#000000">q2</text>
</g>
<!-- q1&#45;&gt;q2 -->
<g id="edge2" class="edge">
<title>q1&#45;&gt;q2</title>
<path fill="none" stroke="#000000" d="M130.0951,-96.0263C136.4833,-92.7372 143.717,-89.0871 150.3869,-85.8935 155.9558,-83.227 161.9195,-80.4753 167.7135,-77.8558"/>
<polygon fill="#000000" stroke="#000000" points="169.5054,-80.8885 177.2046,-73.6102 166.6471,-74.4986 169.5054,-80.8885"/>
<text text-anchor="middle" x="153.8869" y="-90.8935" font-family="Times,serif" font-size="14.00" fill="#000000">a</text>
</g>
<!-- q3&#45;&gt;q1 -->
<g id="edge4" class="edge">
<title>q3&#45;&gt;q1</title>
<path fill="none" stroke="#000000" d="M185.8228,-170.6521C177.6929,-162.2678 167.1972,-151.7611 157.3869,-142.8935 150.6235,-136.7799 143.0311,-130.4144 136.0067,-124.7133"/>
<polygon fill="#000000" stroke="#000000" points="138.0974,-121.9035 128.1053,-118.3808 133.7197,-127.3658 138.0974,-121.9035"/>
<text text-anchor="middle" x="153.8869" y="-146.8935" font-family="Times,serif" font-size="14.00" fill="#000000">b</text>
</g>
<!-- q5 -->
<g id="node4" class="node">
<title>q5</title>
<ellipse fill="none" stroke="#000000" cx="288.4673" cy="-20.6935" rx="20.8887" ry="20.8887"/>
<text text-anchor="middle" x="288.4673" y="-16.4935" font-family="Times,serif" font-size="14.00" fill="#000000">q5</text>
</g>
<!-- q4&#45;&gt;q5 -->
<g id="edge6" class="edge">
<title>q4&#45;&gt;q5</title>
<path fill="none" stroke="#000000" d="M213.7068,-110.7734C217.3168,-106.5331 221.2029,-101.9482 224.7738,-97.6935 239.548,-80.0899 256.0868,-60.0869 268.608,-44.8812"/>
<polygon fill="#000000" stroke="#000000" points="271.4638,-46.919 275.1143,-36.9728 266.0581,-42.4716 271.4638,-46.919"/>
<text text-anchor="middle" x="246.2738" y="-78.8935" font-family="Times,serif" font-size="14.00" fill="#000000">b</text>
</g>
<!-- q5&#45;&gt;q1 -->
<g id="edge7" class="edge">
<title>q5&#45;&gt;q1</title>
<path fill="none" stroke="#000000" d="M268.7786,-13.3673C245.1413,-5.8613 204.9881,2.6924 175.3869,-12.8935 149.9327,-26.2958 132.6909,-54.9721 122.6337,-76.9235"/>
<polygon fill="#000000" stroke="#000000" points="119.398,-75.5881 118.6376,-86.1556 125.822,-78.3688 119.398,-75.5881"/>
<text text-anchor="middle" x="200.0804" y="-17.8935" font-family="Times,serif" font-size="14.00" fill="#000000">a</text>
</g>
<g id="node6" class="node">
<title></title>
</g>
<!-- &#45;&gt;q1 -->
<g id="edge1" class="edge">
<title>&#45;&gt;q1</title>
<path fill="none" stroke="#000000" d="M54.2637,-105.6935C62.7209,-105.6935 72.1012,-105.6935 80.7873,-105.6935"/>
<polygon fill="#000000" stroke="#000000" points="80.9294,-109.1936 90.9294,-105.6935 80.9293,-102.1936 80.9294,-109.1936"/>
</g>
</g>
</svg>
