<?xml version="1.0" encoding="UTF-8" standalone="no"?>
<!DOCTYPE svg PUBLIC "-//W3C//DTD SVG 1.1//EN"
 "http://www.w3.org/Graphics/SVG/1.1/DTD/svg11.dtd">
<!-- Generated by graphviz version 2.40.1 (20161225.0304)
 -->
<!-- Title: finite_state_machine Pages: 1 -->
<svg width="525pt" height="131pt"
 viewBox="0.00 0.00 524.65 131.36" xmlns="http://www.w3.org/2000/svg" xmlns:xlink="http://www.w3.org/1999/xlink">
<g id="graph0" class="graph" transform="scale(1 1) rotate(0) translate(4 127.3577)">
<title>finite_state_machine</title>
<polygon fill="#ffffff" stroke="transparent" points="-4,4 -4,-127.3577 520.6456,-127.3577 520.6456,4 -4,4"/>
<!-- q1 -->
<g id="node1" class="node">
<title>q1</title>
<ellipse fill="none" stroke="#000000" cx="111.6935" cy="-44.0073" rx="20.8887" ry="20.8887"/>
<text text-anchor="middle" x="111.6935" y="-39.8073" font-family="Times,serif" font-size="14.00" fill="#000000">q1</text>
</g>
<!-- q2q3q4 -->
<g id="node3" class="node">
<title>q2q3q4</title>
<ellipse fill="none" stroke="#000000" cx="218.6088" cy="-44.0073" rx="40.014" ry="40.014"/>
<ellipse fill="none" stroke="#000000" cx="218.6088" cy="-44.0073" rx="44.0147" ry="44.0147"/>
<text text-anchor="middle" x="218.6088" y="-39.8073" font-family="Times,serif" font-size="14.00" fill="#000000">q2q3q4</text>
</g>
<!-- q1&#45;&gt;q2q3q4 -->
<g id="edge2" class="edge">
<title>q1&#45;&gt;q2q3q4</title>
<path fill="none" stroke="#000000" d="M132.5616,-44.0073C141.6809,-44.0073 152.8463,-44.0073 164.0751,-44.0073"/>
<polygon fill="#000000" stroke="#000000" points="164.3481,-47.5074 174.3481,-44.0073 164.348,-40.5074 164.3481,-47.5074"/>
<text text-anchor="middle" x="153.4942" y="-48.2073" font-family="Times,serif" font-size="14.00" fill="#000000">a</text>
</g>
<!-- q1q5 -->
<g id="node2" class="node">
<title>q1q5</title>
<ellipse fill="none" stroke="#000000" cx="335.9666" cy="-93.0073" rx="30.2015" ry="30.2015"/>
<text text-anchor="middle" x="335.9666" y="-88.8073" font-family="Times,serif" font-size="14.00" fill="#000000">q1q5</text>
</g>
<!-- q1q2q3q4 -->
<g id="node4" class="node">
<title>q1q2q3q4</title>
<ellipse fill="none" stroke="#000000" cx="462.9813" cy="-61.0073" rx="49.8168" ry="49.8168"/>
<ellipse fill="none" stroke="#000000" cx="462.9813" cy="-61.0073" rx="53.8291" ry="53.8291"/>
<text text-anchor="middle" x="462.9813" y="-56.8073" font-family="Times,serif" font-size="14.00" fill="#000000">q1q2q3q4</text>
</g>
<!-- q1q5&#45;&gt;q1q2q3q4 -->
<g id="edge4" class="edge">
<title>q1q5&#45;&gt;q1q2q3q4</title>
<path fill="none" stroke="#000000" d="M365.4256,-85.5855C376.0655,-82.9049 388.5157,-79.7681 400.894,-76.6496"/>
<polygon fill="#000000" stroke="#000000" points="401.9278,-79.9986 410.7697,-74.1615 400.2176,-73.2107 401.9278,-79.9986"/>
<text text-anchor="middle" x="387.817" y="-84.2073" font-family="Times,serif" font-size="14.00" fill="#000000">a</text>
</g>
<!-- q2q3q4&#45;&gt;q1q5 -->
<g id="edge3" class="edge">
<title>q2q3q4&#45;&gt;q1q5</title>
<path fill="none" stroke="#000000" d="M259.3255,-61.0076C272.0923,-66.3381 286.1145,-72.1927 298.6353,-77.4205"/>
<polygon fill="#000000" stroke="#000000" points="297.2951,-80.6538 307.8716,-81.2769 299.9922,-74.1942 297.2951,-80.6538"/>
<text text-anchor="middle" x="284.1162" y="-76.2073" font-family="Times,serif" font-size="14.00" fill="#000000">b</text>
</g>
<!-- q1q2q3q4&#45;&gt;q1q5 -->
<g id="edge6" class="edge">
<title>q1q2q3q4&#45;&gt;q1q5</title>
<path fill="none" stroke="#000000" d="M409.3976,-54.1555C400.87,-54.4689 392.2508,-55.6491 384.317,-58.2073 378.2449,-60.1653 372.2917,-63.2003 366.7527,-66.6796"/>
<polygon fill="#000000" stroke="#000000" points="364.6743,-63.8614 358.4318,-72.4219 368.6502,-69.6227 364.6743,-63.8614"/>
<text text-anchor="middle" x="387.817" y="-63.2073" font-family="Times,serif" font-size="14.00" fill="#000000">b</text>
</g>
<!-- q1q2q3q4&#45;&gt;q2q3q4 -->
<g id="edge5" class="edge">
<title>q1q2q3q4&#45;&gt;q2q3q4</title>
<path fill="none" stroke="#000000" d="M411.4861,-45.8903C397.0061,-42.3084 381.1582,-39.0075 366.317,-37.2073 339.5351,-33.9588 332.5738,-36.1555 305.6162,-37.2073 295.0608,-37.6192 283.8015,-38.3111 273.0045,-39.0999"/>
<polygon fill="#000000" stroke="#000000" points="272.5357,-35.6255 262.8326,-39.8799 273.0709,-42.605 272.5357,-35.6255"/>
<text text-anchor="middle" x="335.9666" y="-42.2073" font-family="Times,serif" font-size="14.00" fill="#000000">a</text>
</g>
<g id="node5" class="node">
<title></title>
</g>
<!-- &#45;&gt;q1 -->
<g id="edge1" class="edge">
<title>&#45;&gt;q1</title>
<path fill="none" stroke="#000000" d="M54.2637,-44.0073C62.7209,-44.0073 72.1012,-44.0073 80.7873,-44.0073"/>
<polygon fill="#000000" stroke="#000000" points="80.9294,-47.5074 90.9294,-44.0073 80.9293,-40.5074 80.9294,-47.5074"/>
</g>
</g>
</svg>
