<?xml version="1.0" encoding="UTF-8" standalone="no"?>
<!DOCTYPE svg PUBLIC "-//W3C//DTD SVG 1.1//EN"
 "http://www.w3.org/Graphics/SVG/1.1/DTD/svg11.dtd">
<!-- Generated by graphviz version 2.40.1 (20161225.0304)
 -->
<!-- Title: finite_state_machine Pages: 1 -->
<svg width="791pt" height="132pt"
 viewBox="0.00 0.00 790.58 132.04" xmlns="http://www.w3.org/2000/svg" xmlns:xlink="http://www.w3.org/1999/xlink">
<g id="graph0" class="graph" transform="scale(1 1) rotate(0) translate(4 128.0439)">
<title>finite_state_machine</title>
<polygon fill="#ffffff" stroke="transparent" points="-4,4 -4,-128.0439 786.5814,-128.0439 786.5814,4 -4,4"/>
<!-- q1 -->
<g id="node1" class="node">
<title>q1</title>
<ellipse fill="none" stroke="#000000" cx="111.6935" cy="-24.6935" rx="20.8887" ry="20.8887"/>
<text text-anchor="middle" x="111.6935" y="-20.4935" font-family="Times,serif" font-size="14.00" fill="#000000">q1</text>
</g>
<!-- q2 -->
<g id="node6" class="node">
<title>q2</title>
<ellipse fill="none" stroke="#000000" cx="199.295" cy="-24.6935" rx="20.8568" ry="20.8568"/>
<ellipse fill="none" stroke="#000000" cx="199.295" cy="-24.6935" rx="24.8884" ry="24.8884"/>
<text text-anchor="middle" x="199.295" y="-20.4935" font-family="Times,serif" font-size="14.00" fill="#000000">q2</text>
</g>
<!-- q1&#45;&gt;q2 -->
<g id="edge2" class="edge">
<title>q1&#45;&gt;q2</title>
<path fill="none" stroke="#000000" d="M132.4538,-24.6935C141.9626,-24.6935 153.4967,-24.6935 164.288,-24.6935"/>
<polygon fill="#000000" stroke="#000000" points="164.3165,-28.1936 174.3164,-24.6935 164.3164,-21.1936 164.3165,-28.1936"/>
<text text-anchor="middle" x="153.4942" y="-28.8935" font-family="Times,serif" font-size="14.00" fill="#000000">a</text>
</g>
<!-- q3 -->
<g id="node2" class="node">
<title>q3</title>
<ellipse fill="none" stroke="#000000" cx="286.8965" cy="-24.6935" rx="20.8887" ry="20.8887"/>
<text text-anchor="middle" x="286.8965" y="-20.4935" font-family="Times,serif" font-size="14.00" fill="#000000">q3</text>
</g>
<!-- q4 -->
<g id="node3" class="node">
<title>q4</title>
<ellipse fill="none" stroke="#000000" cx="370.498" cy="-72.6935" rx="20.8887" ry="20.8887"/>
<text text-anchor="middle" x="370.498" y="-68.4935" font-family="Times,serif" font-size="14.00" fill="#000000">q4</text>
</g>
<!-- q3&#45;&gt;q4 -->
<g id="edge4" class="edge">
<title>q3&#45;&gt;q4</title>
<path fill="none" stroke="#000000" d="M305.0367,-35.1087C316.3207,-41.5874 331.0345,-50.0354 343.6536,-57.2807"/>
<polygon fill="#000000" stroke="#000000" points="341.9781,-60.3545 352.3931,-62.2985 345.4636,-54.284 341.9781,-60.3545"/>
<text text-anchor="middle" x="328.6972" y="-54.8935" font-family="Times,serif" font-size="14.00" fill="#000000">a</text>
</g>
<!-- q6 -->
<g id="node7" class="node">
<title>q6</title>
<ellipse fill="none" stroke="#000000" cx="543.2718" cy="-62.6935" rx="20.8568" ry="20.8568"/>
<ellipse fill="none" stroke="#000000" cx="543.2718" cy="-62.6935" rx="24.8884" ry="24.8884"/>
<text text-anchor="middle" x="543.2718" y="-58.4935" font-family="Times,serif" font-size="14.00" fill="#000000">q6</text>
</g>
<!-- q3&#45;&gt;q6 -->
<g id="edge5" class="edge">
<title>q3&#45;&gt;q6</title>
<path fill="none" stroke="#000000" d="M307.4823,-22.5339C342.6889,-19.5039 416.3945,-16.0664 475.5783,-32.6935 487.8302,-36.1355 500.7297,-41.4019 511.9436,-46.5668"/>
<polygon fill="#000000" stroke="#000000" points="510.7729,-49.8861 521.3057,-51.0312 513.7859,-43.5677 510.7729,-49.8861"/>
<text text-anchor="middle" x="412.6914" y="-26.8935" font-family="Times,serif" font-size="14.00" fill="#000000">b</text>
</g>
<!-- q5 -->
<g id="node4" class="node">
<title>q5</title>
<ellipse fill="none" stroke="#000000" cx="454.8849" cy="-62.6935" rx="20.8887" ry="20.8887"/>
<text text-anchor="middle" x="454.8849" y="-58.4935" font-family="Times,serif" font-size="14.00" fill="#000000">q5</text>
</g>
<!-- q4&#45;&gt;q5 -->
<g id="edge6" class="edge">
<title>q4&#45;&gt;q5</title>
<path fill="none" stroke="#000000" d="M391.3577,-70.2215C401.2701,-69.0469 413.3144,-67.6196 424.2395,-66.325"/>
<polygon fill="#000000" stroke="#000000" points="424.7465,-69.7895 434.2651,-65.1369 423.9227,-62.8381 424.7465,-69.7895"/>
<text text-anchor="middle" x="412.6914" y="-71.8935" font-family="Times,serif" font-size="14.00" fill="#000000">b</text>
</g>
<!-- q5&#45;&gt;q4 -->
<g id="edge7" class="edge">
<title>q5&#45;&gt;q4</title>
<path fill="none" stroke="#000000" d="M437.665,-50.7178C429.1628,-46.2557 418.7109,-42.9187 409.1914,-45.8935 404.0583,-47.4975 399.0072,-50.0481 394.3351,-52.9524"/>
<polygon fill="#000000" stroke="#000000" points="392.11,-50.2366 385.896,-58.8178 396.105,-55.9846 392.11,-50.2366"/>
<text text-anchor="middle" x="412.6914" y="-50.8935" font-family="Times,serif" font-size="14.00" fill="#000000">a</text>
</g>
<!-- q5&#45;&gt;q6 -->
<g id="edge8" class="edge">
<title>q5&#45;&gt;q6</title>
<path fill="none" stroke="#000000" d="M475.8313,-62.6935C485.5028,-62.6935 497.2507,-62.6935 508.2143,-62.6935"/>
<polygon fill="#000000" stroke="#000000" points="508.392,-66.1936 518.392,-62.6935 508.3919,-59.1936 508.392,-66.1936"/>
<text text-anchor="middle" x="497.0783" y="-66.8935" font-family="Times,serif" font-size="14.00" fill="#000000">b</text>
</g>
<!-- q3q7 -->
<g id="node5" class="node">
<title>q3q7</title>
<ellipse fill="none" stroke="#000000" cx="640.5302" cy="-89.6935" rx="30.2015" ry="30.2015"/>
<text text-anchor="middle" x="640.5302" y="-85.4935" font-family="Times,serif" font-size="14.00" fill="#000000">q3q7</text>
</g>
<!-- q3q7&#45;&gt;q4 -->
<g id="edge10" class="edge">
<title>q3q7&#45;&gt;q4</title>
<path fill="none" stroke="#000000" d="M610.4263,-94.7342C604.4001,-95.5504 598.1017,-96.267 592.1798,-96.6935 522.1217,-101.7385 504.0587,-99.9161 434.1914,-92.6935 422.9986,-91.5364 420.0199,-91.7531 409.1914,-88.6935 405.8008,-87.7354 402.3071,-86.5666 398.8709,-85.3012"/>
<polygon fill="#000000" stroke="#000000" points="400.0581,-82.0069 389.4721,-81.5739 397.4776,-88.5139 400.0581,-82.0069"/>
<text text-anchor="middle" x="497.0783" y="-101.8935" font-family="Times,serif" font-size="14.00" fill="#000000">a</text>
</g>
<!-- q6q8 -->
<g id="node9" class="node">
<title>q6q8</title>
<ellipse fill="none" stroke="#000000" cx="748.231" cy="-89.6935" rx="30.2188" ry="30.2188"/>
<ellipse fill="none" stroke="#000000" cx="748.231" cy="-89.6935" rx="34.2014" ry="34.2014"/>
<text text-anchor="middle" x="748.231" y="-85.4935" font-family="Times,serif" font-size="14.00" fill="#000000">q6q8</text>
</g>
<!-- q3q7&#45;&gt;q6q8 -->
<g id="edge11" class="edge">
<title>q3q7&#45;&gt;q6q8</title>
<path fill="none" stroke="#000000" d="M671.1049,-89.6935C681.1903,-89.6935 692.6245,-89.6935 703.5412,-89.6935"/>
<polygon fill="#000000" stroke="#000000" points="703.7882,-93.1936 713.7882,-89.6935 703.7882,-86.1936 703.7882,-93.1936"/>
<text text-anchor="middle" x="692.3806" y="-93.8935" font-family="Times,serif" font-size="14.00" fill="#000000">b</text>
</g>
<!-- q2&#45;&gt;q3 -->
<g id="edge3" class="edge">
<title>q2&#45;&gt;q3</title>
<path fill="none" stroke="#000000" d="M224.1637,-24.6935C233.9999,-24.6935 245.4133,-24.6935 255.7872,-24.6935"/>
<polygon fill="#000000" stroke="#000000" points="256.1119,-28.1935 266.1118,-24.6935 256.1118,-21.1935 256.1119,-28.1935"/>
<text text-anchor="middle" x="245.0957" y="-28.8935" font-family="Times,serif" font-size="14.00" fill="#000000">a</text>
</g>
<!-- q6&#45;&gt;q3q7 -->
<g id="edge9" class="edge">
<title>q6&#45;&gt;q3q7</title>
<path fill="none" stroke="#000000" d="M567.3132,-69.3676C577.5809,-72.218 589.8333,-75.6194 601.3502,-78.8167"/>
<polygon fill="#000000" stroke="#000000" points="600.6416,-82.2522 611.2135,-81.5548 602.5141,-75.5073 600.6416,-82.2522"/>
<text text-anchor="middle" x="589.0725" y="-79.8935" font-family="Times,serif" font-size="14.00" fill="#000000">a</text>
</g>
<g id="node8" class="node">
<title></title>
</g>
<!-- &#45;&gt;q1 -->
<g id="edge1" class="edge">
<title>&#45;&gt;q1</title>
<path fill="none" stroke="#000000" d="M54.2637,-24.6935C62.7209,-24.6935 72.1012,-24.6935 80.7873,-24.6935"/>
<polygon fill="#000000" stroke="#000000" points="80.9294,-28.1936 90.9294,-24.6935 80.9293,-21.1936 80.9294,-28.1936"/>
</g>
<!-- q6q8&#45;&gt;q3q7 -->
<g id="edge12" class="edge">
<title>q6q8&#45;&gt;q3q7</title>
<path fill="none" stroke="#000000" d="M718.1751,-72.4117C708.9244,-68.9379 698.612,-66.8891 688.8806,-68.8935 685.0139,-69.6899 681.0753,-70.8099 677.1991,-72.1216"/>
<polygon fill="#000000" stroke="#000000" points="675.8756,-68.8802 667.7691,-75.7019 678.3603,-75.4244 675.8756,-68.8802"/>
<text text-anchor="middle" x="692.3806" y="-72.8935" font-family="Times,serif" font-size="14.00" fill="#000000">a</text>
</g>
</g>
</svg>
