<?xml version="1.0" encoding="UTF-8" standalone="no"?>
<!DOCTYPE svg PUBLIC "-//W3C//DTD SVG 1.1//EN"
 "http://www.w3.org/Graphics/SVG/1.1/DTD/svg11.dtd">
<!-- Generated by graphviz version 2.40.1 (20161225.0304)
 -->
<!-- Title: finite_state_machine Pages: 1 -->
<svg width="653pt" height="132pt"
 viewBox="0.00 0.00 653.22 131.81" xmlns="http://www.w3.org/2000/svg" xmlns:xlink="http://www.w3.org/1999/xlink">
<g id="graph0" class="graph" transform="scale(1 1) rotate(0) translate(4 127.8073)">
<title>finite_state_machine</title>
<polygon fill="#ffffff" stroke="transparent" points="-4,4 -4,-127.8073 649.2208,-127.8073 649.2208,4 -4,4"/>
<!-- q1 -->
<g id="node1" class="node">
<title>q1</title>
<ellipse fill="none" stroke="#000000" cx="111.6935" cy="-44.0073" rx="20.8887" ry="20.8887"/>
<text text-anchor="middle" x="111.6935" y="-39.8073" font-family="Times,serif" font-size="14.00" fill="#000000">q1</text>
</g>
<!-- q2 -->
<g id="node5" class="node">
<title>q2</title>
<ellipse fill="none" stroke="#000000" cx="199.295" cy="-44.0073" rx="20.8568" ry="20.8568"/>
<ellipse fill="none" stroke="#000000" cx="199.295" cy="-44.0073" rx="24.8884" ry="24.8884"/>
<text text-anchor="middle" x="199.295" y="-39.8073" font-family="Times,serif" font-size="14.00" fill="#000000">q2</text>
</g>
<!-- q1&#45;&gt;q2 -->
<g id="edge2" class="edge">
<title>q1&#45;&gt;q2</title>
<path fill="none" stroke="#000000" d="M132.4538,-44.0073C141.9626,-44.0073 153.4967,-44.0073 164.288,-44.0073"/>
<polygon fill="#000000" stroke="#000000" points="164.3165,-47.5074 174.3164,-44.0073 164.3164,-40.5074 164.3165,-47.5074"/>
<text text-anchor="middle" x="153.4942" y="-48.2073" font-family="Times,serif" font-size="14.00" fill="#000000">a</text>
</g>
<!-- q4 -->
<g id="node2" class="node">
<title>q4</title>
<ellipse fill="none" stroke="#000000" cx="409.1257" cy="-93.0073" rx="20.8887" ry="20.8887"/>
<text text-anchor="middle" x="409.1257" y="-88.8073" font-family="Times,serif" font-size="14.00" fill="#000000">q4</text>
</g>
<!-- q5 -->
<g id="node3" class="node">
<title>q5</title>
<ellipse fill="none" stroke="#000000" cx="493.5127" cy="-93.0073" rx="20.8887" ry="20.8887"/>
<text text-anchor="middle" x="493.5127" y="-88.8073" font-family="Times,serif" font-size="14.00" fill="#000000">q5</text>
</g>
<!-- q4&#45;&gt;q5 -->
<g id="edge5" class="edge">
<title>q4&#45;&gt;q5</title>
<path fill="none" stroke="#000000" d="M428.4973,-100.882C434.578,-102.9805 441.3849,-104.9554 447.8192,-106.0073 453.4152,-106.9223 459.301,-106.4082 464.9174,-105.1667"/>
<polygon fill="#000000" stroke="#000000" points="466.0188,-108.4909 474.6151,-102.2978 464.033,-101.7784 466.0188,-108.4909"/>
<text text-anchor="middle" x="451.3192" y="-111.2073" font-family="Times,serif" font-size="14.00" fill="#000000">b</text>
</g>
<!-- q5&#45;&gt;q4 -->
<g id="edge6" class="edge">
<title>q5&#45;&gt;q4</title>
<path fill="none" stroke="#000000" d="M473.5765,-87.2394C465.6005,-85.552 456.3075,-84.3603 447.8192,-85.2073 445.1002,-85.4787 442.2894,-85.8547 439.4815,-86.2963"/>
<polygon fill="#000000" stroke="#000000" points="438.7058,-82.8798 429.4933,-88.1124 439.9581,-89.7669 438.7058,-82.8798"/>
<text text-anchor="middle" x="451.3192" y="-90.2073" font-family="Times,serif" font-size="14.00" fill="#000000">a</text>
</g>
<!-- q6q6q8 -->
<g id="node6" class="node">
<title>q6q6q8</title>
<ellipse fill="none" stroke="#000000" cx="601.2134" cy="-44.0073" rx="40.014" ry="40.014"/>
<ellipse fill="none" stroke="#000000" cx="601.2134" cy="-44.0073" rx="44.0147" ry="44.0147"/>
<text text-anchor="middle" x="601.2134" y="-39.8073" font-family="Times,serif" font-size="14.00" fill="#000000">q6q6q8</text>
</g>
<!-- q5&#45;&gt;q6q6q8 -->
<g id="edge7" class="edge">
<title>q5&#45;&gt;q6q6q8</title>
<path fill="none" stroke="#000000" d="M512.7674,-84.2471C523.5827,-79.3266 537.6266,-72.9371 551.3265,-66.7041"/>
<polygon fill="#000000" stroke="#000000" points="553.0594,-69.761 560.7122,-62.434 550.1605,-63.3894 553.0594,-69.761"/>
<text text-anchor="middle" x="535.7061" y="-79.2073" font-family="Times,serif" font-size="14.00" fill="#000000">b</text>
</g>
<!-- q3q3q7 -->
<g id="node4" class="node">
<title>q3q3q7</title>
<ellipse fill="none" stroke="#000000" cx="306.2104" cy="-44.0073" rx="40.0147" ry="40.0147"/>
<text text-anchor="middle" x="306.2104" y="-39.8073" font-family="Times,serif" font-size="14.00" fill="#000000">q3q3q7</text>
</g>
<!-- q3q3q7&#45;&gt;q4 -->
<g id="edge4" class="edge">
<title>q3q3q7&#45;&gt;q4</title>
<path fill="none" stroke="#000000" d="M342.4945,-61.2829C355.0633,-67.2672 368.9586,-73.883 380.7933,-79.5177"/>
<polygon fill="#000000" stroke="#000000" points="379.642,-82.846 390.1755,-83.9848 382.6512,-76.5258 379.642,-82.846"/>
<text text-anchor="middle" x="367.325" y="-79.2073" font-family="Times,serif" font-size="14.00" fill="#000000">a</text>
</g>
<!-- q3q3q7&#45;&gt;q6q6q8 -->
<g id="edge8" class="edge">
<title>q3q3q7&#45;&gt;q6q6q8</title>
<path fill="none" stroke="#000000" d="M346.3028,-44.0073C398.1693,-44.0073 488.7352,-44.0073 546.7843,-44.0073"/>
<polygon fill="#000000" stroke="#000000" points="546.8733,-47.5074 556.8733,-44.0073 546.8733,-40.5074 546.8733,-47.5074"/>
<text text-anchor="middle" x="451.3192" y="-48.2073" font-family="Times,serif" font-size="14.00" fill="#000000">b</text>
</g>
<!-- q2&#45;&gt;q3q3q7 -->
<g id="edge3" class="edge">
<title>q2&#45;&gt;q3q3q7</title>
<path fill="none" stroke="#000000" d="M224.0922,-44.0073C233.6326,-44.0073 244.9019,-44.0073 255.9854,-44.0073"/>
<polygon fill="#000000" stroke="#000000" points="256.0568,-47.5074 266.0568,-44.0073 256.0567,-40.5074 256.0568,-47.5074"/>
<text text-anchor="middle" x="245.0957" y="-48.2073" font-family="Times,serif" font-size="14.00" fill="#000000">a</text>
</g>
<!-- q6q6q8&#45;&gt;q3q3q7 -->
<g id="edge9" class="edge">
<title>q6q6q8&#45;&gt;q3q3q7</title>
<path fill="none" stroke="#000000" d="M558.3841,-33.3771C527.7018,-26.9439 485.3437,-20.4662 447.8192,-23.2073 417.0539,-25.4547 382.8267,-30.4137 355.7297,-34.9258"/>
<polygon fill="#000000" stroke="#000000" points="354.9884,-31.5015 345.7157,-36.6267 356.1606,-38.4027 354.9884,-31.5015"/>
<text text-anchor="middle" x="451.3192" y="-28.2073" font-family="Times,serif" font-size="14.00" fill="#000000">a</text>
</g>
<g id="node7" class="node">
<title></title>
</g>
<!-- &#45;&gt;q1 -->
<g id="edge1" class="edge">
<title>&#45;&gt;q1</title>
<path fill="none" stroke="#000000" d="M54.2637,-44.0073C62.7209,-44.0073 72.1012,-44.0073 80.7873,-44.0073"/>
<polygon fill="#000000" stroke="#000000" points="80.9294,-47.5074 90.9294,-44.0073 80.9293,-40.5074 80.9294,-47.5074"/>
</g>
</g>
</svg>
