<?xml version="1.0" encoding="UTF-8" standalone="no"?>
<!DOCTYPE svg PUBLIC "-//W3C//DTD SVG 1.1//EN"
 "http://www.w3.org/Graphics/SVG/1.1/DTD/svg11.dtd">
<!-- Generated by graphviz version 2.40.1 (20161225.0304)
 -->
<!-- Title: finite_state_machine Pages: 1 -->
<svg width="752pt" height="112pt"
 viewBox="0.00 0.00 751.95 112.49" xmlns="http://www.w3.org/2000/svg" xmlns:xlink="http://www.w3.org/1999/xlink">
<g id="graph0" class="graph" transform="scale(1 1) rotate(0) translate(4 108.4935)">
<title>finite_state_machine</title>
<polygon fill="#ffffff" stroke="transparent" points="-4,4 -4,-108.4935 747.9536,-108.4935 747.9536,4 -4,4"/>
<!-- q1 -->
<g id="node1" class="node">
<title>q1</title>
<ellipse fill="none" stroke="#000000" cx="111.6935" cy="-24.6935" rx="20.8887" ry="20.8887"/>
<text text-anchor="middle" x="111.6935" y="-20.4935" font-family="Times,serif" font-size="14.00" fill="#000000">q1</text>
</g>
<!-- q2 -->
<g id="node6" class="node">
<title>q2</title>
<ellipse fill="none" stroke="#000000" cx="199.295" cy="-24.6935" rx="20.8568" ry="20.8568"/>
<ellipse fill="none" stroke="#000000" cx="199.295" cy="-24.6935" rx="24.8884" ry="24.8884"/>
<text text-anchor="middle" x="199.295" y="-20.4935" font-family="Times,serif" font-size="14.00" fill="#000000">q2</text>
</g>
<!-- q1&#45;&gt;q2 -->
<g id="edge2" class="edge">
<title>q1&#45;&gt;q2</title>
<path fill="none" stroke="#000000" d="M132.4538,-24.6935C141.9626,-24.6935 153.4967,-24.6935 164.288,-24.6935"/>
<polygon fill="#000000" stroke="#000000" points="164.3165,-28.1936 174.3164,-24.6935 164.3164,-21.1936 164.3165,-28.1936"/>
<text text-anchor="middle" x="153.4942" y="-28.8935" font-family="Times,serif" font-size="14.00" fill="#000000">a</text>
</g>
<!-- q3 -->
<g id="node2" class="node">
<title>q3</title>
<ellipse fill="none" stroke="#000000" cx="286.8965" cy="-24.6935" rx="20.8887" ry="20.8887"/>
<text text-anchor="middle" x="286.8965" y="-20.4935" font-family="Times,serif" font-size="14.00" fill="#000000">q3</text>
</g>
<!-- q4 -->
<g id="node3" class="node">
<title>q4</title>
<ellipse fill="none" stroke="#000000" cx="370.498" cy="-73.6935" rx="20.8887" ry="20.8887"/>
<text text-anchor="middle" x="370.498" y="-69.4935" font-family="Times,serif" font-size="14.00" fill="#000000">q4</text>
</g>
<!-- q3&#45;&gt;q4 -->
<g id="edge4" class="edge">
<title>q3&#45;&gt;q4</title>
<path fill="none" stroke="#000000" d="M305.0367,-35.3257C316.3207,-41.9394 331.0345,-50.5634 343.6536,-57.9596"/>
<polygon fill="#000000" stroke="#000000" points="341.9959,-61.0449 352.3931,-63.0819 345.5356,-55.0057 341.9959,-61.0449"/>
<text text-anchor="middle" x="328.6972" y="-54.8935" font-family="Times,serif" font-size="14.00" fill="#000000">a</text>
</g>
<!-- q6 -->
<g id="node7" class="node">
<title>q6</title>
<ellipse fill="none" stroke="#000000" cx="543.2718" cy="-24.6935" rx="20.8568" ry="20.8568"/>
<ellipse fill="none" stroke="#000000" cx="543.2718" cy="-24.6935" rx="24.8884" ry="24.8884"/>
<text text-anchor="middle" x="543.2718" y="-20.4935" font-family="Times,serif" font-size="14.00" fill="#000000">q6</text>
</g>
<!-- q3&#45;&gt;q6 -->
<g id="edge5" class="edge">
<title>q3&#45;&gt;q6</title>
<path fill="none" stroke="#000000" d="M307.8767,-24.6935C351.8259,-24.6935 453.9592,-24.6935 508.108,-24.6935"/>
<polygon fill="#000000" stroke="#000000" points="508.2666,-28.1936 518.2666,-24.6935 508.2665,-21.1936 508.2666,-28.1936"/>
<text text-anchor="middle" x="412.6914" y="-28.8935" font-family="Times,serif" font-size="14.00" fill="#000000">b</text>
</g>
<!-- q5 -->
<g id="node4" class="node">
<title>q5</title>
<ellipse fill="none" stroke="#000000" cx="454.8849" cy="-73.6935" rx="20.8887" ry="20.8887"/>
<text text-anchor="middle" x="454.8849" y="-69.4935" font-family="Times,serif" font-size="14.00" fill="#000000">q5</text>
</g>
<!-- q4&#45;&gt;q5 -->
<g id="edge6" class="edge">
<title>q4&#45;&gt;q5</title>
<path fill="none" stroke="#000000" d="M389.8695,-81.5681C395.9503,-83.6666 402.7572,-85.6415 409.1914,-86.6935 414.7874,-87.6084 420.6732,-87.0943 426.2896,-85.8528"/>
<polygon fill="#000000" stroke="#000000" points="427.391,-89.177 435.9873,-82.9839 425.4052,-82.4645 427.391,-89.177"/>
<text text-anchor="middle" x="412.6914" y="-91.8935" font-family="Times,serif" font-size="14.00" fill="#000000">b</text>
</g>
<!-- q5&#45;&gt;q4 -->
<g id="edge7" class="edge">
<title>q5&#45;&gt;q4</title>
<path fill="none" stroke="#000000" d="M434.9487,-67.9255C426.9727,-66.2381 417.6798,-65.0464 409.1914,-65.8935 406.4724,-66.1648 403.6616,-66.5408 400.8537,-66.9824"/>
<polygon fill="#000000" stroke="#000000" points="400.0781,-63.5659 390.8655,-68.7985 401.3304,-70.453 400.0781,-63.5659"/>
<text text-anchor="middle" x="412.6914" y="-70.8935" font-family="Times,serif" font-size="14.00" fill="#000000">a</text>
</g>
<!-- q5&#45;&gt;q6 -->
<g id="edge8" class="edge">
<title>q5&#45;&gt;q6</title>
<path fill="none" stroke="#000000" d="M473.1987,-63.5406C484.62,-57.2089 499.6019,-48.9032 512.7799,-41.5975"/>
<polygon fill="#000000" stroke="#000000" points="514.5002,-44.6458 521.5491,-36.7361 511.1061,-38.5236 514.5002,-44.6458"/>
<text text-anchor="middle" x="497.0783" y="-56.8935" font-family="Times,serif" font-size="14.00" fill="#000000">b</text>
</g>
<!-- q7 -->
<g id="node5" class="node">
<title>q7</title>
<ellipse fill="none" stroke="#000000" cx="630.8733" cy="-24.6935" rx="20.8887" ry="20.8887"/>
<text text-anchor="middle" x="630.8733" y="-20.4935" font-family="Times,serif" font-size="14.00" fill="#000000">q7</text>
</g>
<!-- q8 -->
<g id="node8" class="node">
<title>q8</title>
<ellipse fill="none" stroke="#000000" cx="719.2602" cy="-24.6935" rx="20.8568" ry="20.8568"/>
<ellipse fill="none" stroke="#000000" cx="719.2602" cy="-24.6935" rx="24.8884" ry="24.8884"/>
<text text-anchor="middle" x="719.2602" y="-20.4935" font-family="Times,serif" font-size="14.00" fill="#000000">q8</text>
</g>
<!-- q7&#45;&gt;q8 -->
<g id="edge12" class="edge">
<title>q7&#45;&gt;q8</title>
<path fill="none" stroke="#000000" d="M651.8197,-24.6935C661.4912,-24.6935 673.2391,-24.6935 684.2027,-24.6935"/>
<polygon fill="#000000" stroke="#000000" points="684.3804,-28.1936 694.3804,-24.6935 684.3803,-21.1936 684.3804,-28.1936"/>
<text text-anchor="middle" x="673.0667" y="-28.8935" font-family="Times,serif" font-size="14.00" fill="#000000">b</text>
</g>
<!-- q2&#45;&gt;q3 -->
<g id="edge3" class="edge">
<title>q2&#45;&gt;q3</title>
<path fill="none" stroke="#000000" d="M224.1637,-24.6935C233.9999,-24.6935 245.4133,-24.6935 255.7872,-24.6935"/>
<polygon fill="#000000" stroke="#000000" points="256.1119,-28.1935 266.1118,-24.6935 256.1118,-21.1935 256.1119,-28.1935"/>
<text text-anchor="middle" x="245.0957" y="-28.8935" font-family="Times,serif" font-size="14.00" fill="#000000">a</text>
</g>
<!-- q6&#45;&gt;q3 -->
<g id="edge9" class="edge">
<title>q6&#45;&gt;q3</title>
<path fill="none" stroke="#000000" d="M519.1717,-17.4376C492.4258,-10.2093 447.9215,-.6233 409.1914,-3.8935 377.457,-6.5729 341.5791,-13.0971 316.9331,-18.1302"/>
<polygon fill="#000000" stroke="#000000" points="316.1778,-14.7124 307.1031,-20.1804 317.6071,-21.5649 316.1778,-14.7124"/>
<text text-anchor="middle" x="412.6914" y="-8.8935" font-family="Times,serif" font-size="14.00" fill="#000000">a</text>
</g>
<!-- q6&#45;&gt;q7 -->
<g id="edge10" class="edge">
<title>q6&#45;&gt;q7</title>
<path fill="none" stroke="#000000" d="M568.1405,-24.6935C577.9767,-24.6935 589.3901,-24.6935 599.764,-24.6935"/>
<polygon fill="#000000" stroke="#000000" points="600.0887,-28.1935 610.0887,-24.6935 600.0886,-21.1935 600.0887,-28.1935"/>
<text text-anchor="middle" x="589.0725" y="-28.8935" font-family="Times,serif" font-size="14.00" fill="#000000">a</text>
</g>
<!-- q8&#45;&gt;q7 -->
<g id="edge11" class="edge">
<title>q8&#45;&gt;q7</title>
<path fill="none" stroke="#000000" d="M698.3719,-10.8686C689.6364,-6.6568 679.2751,-3.6598 669.5667,-5.8935 665.666,-6.7909 661.7026,-8.1366 657.8738,-9.7034"/>
<polygon fill="#000000" stroke="#000000" points="656.3533,-6.5504 648.7459,-13.9246 659.2915,-12.9039 656.3533,-6.5504"/>
<text text-anchor="middle" x="673.0667" y="-10.8935" font-family="Times,serif" font-size="14.00" fill="#000000">a</text>
</g>
<g id="node9" class="node">
<title></title>
</g>
<!-- &#45;&gt;q1 -->
<g id="edge1" class="edge">
<title>&#45;&gt;q1</title>
<path fill="none" stroke="#000000" d="M54.2637,-24.6935C62.7209,-24.6935 72.1012,-24.6935 80.7873,-24.6935"/>
<polygon fill="#000000" stroke="#000000" points="80.9294,-28.1936 90.9294,-24.6935 80.9293,-21.1936 80.9294,-28.1936"/>
</g>
</g>
</svg>
