<?xml version="1.0" encoding="UTF-8" standalone="no"?>
<!DOCTYPE svg PUBLIC "-//W3C//DTD SVG 1.1//EN"
 "http://www.w3.org/Graphics/SVG/1.1/DTD/svg11.dtd">
<!-- Generated by graphviz version 2.40.1 (20161225.0304)
 -->
<!-- Title: finite_state_machine Pages: 1 -->
<svg width="261pt" height="225pt"
 viewBox="0.00 0.00 261.10 225.00" xmlns="http://www.w3.org/2000/svg" xmlns:xlink="http://www.w3.org/1999/xlink">
<g id="graph0" class="graph" transform="scale(1 1) rotate(0) translate(4 221)">
<title>finite_state_machine</title>
<polygon fill="#ffffff" stroke="transparent" points="-4,4 -4,-221 257.1015,-221 257.1015,4 -4,4"/>
<!-- q2 -->
<g id="node1" class="node">
<title>q2</title>
<ellipse fill="none" stroke="#000000" cx="27" cy="-88" rx="20.8887" ry="20.8887"/>
<text text-anchor="middle" x="27" y="-83.8" font-family="Times,serif" font-size="14.00" fill="#000000">q2</text>
</g>
<!-- q3 -->
<g id="node2" class="node">
<title>q3</title>
<ellipse fill="none" stroke="#000000" cx="133.7146" cy="-127" rx="20.8887" ry="20.8887"/>
<text text-anchor="middle" x="133.7146" y="-122.8" font-family="Times,serif" font-size="14.00" fill="#000000">q3</text>
</g>
<!-- q2&#45;&gt;q3 -->
<g id="edge4" class="edge">
<title>q2&#45;&gt;q3</title>
<path fill="none" stroke="#000000" d="M46.5731,-95.1532C62.8945,-101.118 86.3804,-109.7012 104.8586,-116.4543"/>
<polygon fill="#000000" stroke="#000000" points="103.6717,-119.7469 114.2656,-119.8921 106.0746,-113.1722 103.6717,-119.7469"/>
<text text-anchor="middle" x="80.3573" y="-113.2" font-family="Times,serif" font-size="14.00" fill="#000000">a,b</text>
</g>
<!-- q1 -->
<g id="node3" class="node">
<title>q1</title>
<ellipse fill="none" stroke="#000000" cx="228.4081" cy="-72" rx="20.8568" ry="20.8568"/>
<ellipse fill="none" stroke="#000000" cx="228.4081" cy="-72" rx="24.8884" ry="24.8884"/>
<text text-anchor="middle" x="228.4081" y="-67.8" font-family="Times,serif" font-size="14.00" fill="#000000">q1</text>
</g>
<!-- q3&#45;&gt;q1 -->
<g id="edge5" class="edge">
<title>q3&#45;&gt;q1</title>
<path fill="none" stroke="#000000" d="M151.9725,-116.3954C164.9684,-108.8471 182.7382,-98.5261 197.8737,-89.735"/>
<polygon fill="#000000" stroke="#000000" points="200.0017,-92.5466 206.891,-84.4975 196.4859,-86.4936 200.0017,-92.5466"/>
<text text-anchor="middle" x="182.2146" y="-103.2" font-family="Times,serif" font-size="14.00" fill="#000000">b</text>
</g>
<!-- q1&#45;&gt;q2 -->
<g id="edge3" class="edge">
<title>q1&#45;&gt;q2</title>
<path fill="none" stroke="#000000" d="M203.6858,-73.446C179.0867,-74.9365 140.269,-77.4285 106.7146,-80.2 90.5448,-81.5356 72.5552,-83.274 57.7637,-84.7707"/>
<polygon fill="#000000" stroke="#000000" points="57.2215,-81.3078 47.6302,-85.8085 57.9348,-88.2714 57.2215,-81.3078"/>
<text text-anchor="middle" x="133.7146" y="-84.2" font-family="Times,serif" font-size="14.00" fill="#000000">a,b</text>
</g>
<!-- q1&#45;&gt;q1 -->
<g id="edge2" class="edge">
<title>q1&#45;&gt;q1</title>
<path fill="none" stroke="#000000" d="M219.9178,-95.275C219.1092,-105.6878 221.9393,-114.6935 228.4081,-114.6935 232.5521,-114.6935 235.2028,-110.9975 236.3602,-105.6034"/>
<polygon fill="#000000" stroke="#000000" points="239.8732,-105.4436 236.8983,-95.275 232.8827,-105.0794 239.8732,-105.4436"/>
<text text-anchor="middle" x="228.4081" y="-118.8935" font-family="Times,serif" font-size="14.00" fill="#000000">a</text>
</g>
<g id="node4" class="node">
<title></title>
</g>
<!-- &#45;&gt;q1 -->
<g id="edge1" class="edge">
<title>&#45;&gt;q1</title>
<path fill="none" stroke="#000000" d="M160.8499,-33.4742C172.4344,-40.0804 186.0062,-47.8199 197.9342,-54.622"/>
<polygon fill="#000000" stroke="#000000" points="196.2545,-57.6931 206.6751,-59.6065 199.7221,-51.6124 196.2545,-57.6931"/>
</g>
<!--   -->
<g id="node5" class="node">
<title> </title>
<text text-anchor="middle" x="27" y="-140.8" font-family="Times,serif" font-size="14.00" fill="#000000"> </text>
</g>
<!--  &#160; -->
<g id="node6" class="node">
<title> &#160;</title>
<text text-anchor="middle" x="27" y="-194.8" font-family="Times,serif" font-size="14.00" fill="#000000"> &#160;</text>
</g>
</g>
</svg>
