<?xml version="1.0" encoding="UTF-8" standalone="no"?>
<!DOCTYPE svg PUBLIC "-//W3C//DTD SVG 1.1//EN"
 "http://www.w3.org/Graphics/SVG/1.1/DTD/svg11.dtd">
<!-- Generated by graphviz version 2.40.1 (20161225.0304)
 -->
<!-- Title: finite_state_machine Pages: 1 -->
<svg width="615pt" height="280pt"
 viewBox="0.00 0.00 614.73 280.35" xmlns="http://www.w3.org/2000/svg" xmlns:xlink="http://www.w3.org/1999/xlink">
<g id="graph0" class="graph" transform="scale(1 1) rotate(0) translate(4 276.3504)">
<title>finite_state_machine</title>
<polygon fill="#ffffff" stroke="transparent" points="-4,4 -4,-276.3504 610.7324,-276.3504 610.7324,4 -4,4"/>
<!-- q2 -->
<g id="node1" class="node">
<title>q2</title>
<ellipse fill="none" stroke="#000000" cx="27" cy="-143.3504" rx="20.8887" ry="20.8887"/>
<text text-anchor="middle" x="27" y="-139.1504" font-family="Times,serif" font-size="14.00" fill="#000000">q2</text>
</g>
<!-- q3 -->
<g id="node2" class="node">
<title>q3</title>
<ellipse fill="none" stroke="#000000" cx="133.7146" cy="-182.3504" rx="20.8887" ry="20.8887"/>
<text text-anchor="middle" x="133.7146" y="-178.1504" font-family="Times,serif" font-size="14.00" fill="#000000">q3</text>
</g>
<!-- q2&#45;&gt;q3 -->
<g id="edge4" class="edge">
<title>q2&#45;&gt;q3</title>
<path fill="none" stroke="#000000" d="M46.5731,-150.5036C62.8945,-156.4684 86.3804,-165.0516 104.8586,-171.8047"/>
<polygon fill="#000000" stroke="#000000" points="103.6717,-175.0973 114.2656,-175.2425 106.0746,-168.5226 103.6717,-175.0973"/>
<text text-anchor="middle" x="80.3573" y="-168.5504" font-family="Times,serif" font-size="14.00" fill="#000000">a,b</text>
</g>
<!-- q1 -->
<g id="node3" class="node">
<title>q1</title>
<ellipse fill="none" stroke="#000000" cx="228.4081" cy="-112.3504" rx="20.8568" ry="20.8568"/>
<ellipse fill="none" stroke="#000000" cx="228.4081" cy="-112.3504" rx="24.8884" ry="24.8884"/>
<text text-anchor="middle" x="228.4081" y="-108.1504" font-family="Times,serif" font-size="14.00" fill="#000000">q1</text>
</g>
<!-- q3&#45;&gt;q1 -->
<g id="edge5" class="edge">
<title>q3&#45;&gt;q1</title>
<path fill="none" stroke="#000000" d="M150.6439,-169.8358C164.4154,-159.6555 184.1409,-145.0739 200.2789,-133.1442"/>
<polygon fill="#000000" stroke="#000000" points="202.3796,-135.9438 208.3405,-127.1849 198.2185,-130.3149 202.3796,-135.9438"/>
<text text-anchor="middle" x="182.2146" y="-151.5504" font-family="Times,serif" font-size="14.00" fill="#000000">b</text>
</g>
<!-- q1&#45;&gt;q2 -->
<g id="edge3" class="edge">
<title>q1&#45;&gt;q2</title>
<path fill="none" stroke="#000000" d="M203.9897,-116.1088C167.288,-121.7578 97.9395,-132.4316 57.8097,-138.6083"/>
<polygon fill="#000000" stroke="#000000" points="57.1467,-135.169 47.7956,-140.1496 58.2117,-142.0875 57.1467,-135.169"/>
<text text-anchor="middle" x="133.7146" y="-134.5504" font-family="Times,serif" font-size="14.00" fill="#000000">b</text>
</g>
<!-- q1q2 -->
<g id="node7" class="node">
<title>q1q2</title>
<ellipse fill="none" stroke="#000000" cx="330.4519" cy="-107.3504" rx="30.2188" ry="30.2188"/>
<ellipse fill="none" stroke="#000000" cx="330.4519" cy="-107.3504" rx="34.2014" ry="34.2014"/>
<text text-anchor="middle" x="330.4519" y="-103.1504" font-family="Times,serif" font-size="14.00" fill="#000000">q1q2</text>
</g>
<!-- q1&#45;&gt;q1q2 -->
<g id="edge2" class="edge">
<title>q1&#45;&gt;q1q2</title>
<path fill="none" stroke="#000000" d="M253.11,-111.14C262.9549,-110.6577 274.6002,-110.087 285.8258,-109.537"/>
<polygon fill="#000000" stroke="#000000" points="286.1367,-113.0261 295.9534,-109.0408 285.7941,-106.0345 286.1367,-113.0261"/>
<text text-anchor="middle" x="274.6015" y="-114.5504" font-family="Times,serif" font-size="14.00" fill="#000000">a</text>
</g>
<g id="node4" class="node">
<title></title>
</g>
<!-- &#45;&gt;q1 -->
<g id="edge1" class="edge">
<title>&#45;&gt;q1</title>
<path fill="none" stroke="#000000" d="M160.8499,-84.5262C171.8657,-89.0631 184.6784,-94.3401 196.166,-99.0713"/>
<polygon fill="#000000" stroke="#000000" points="194.856,-102.317 205.4354,-102.889 197.5218,-95.8444 194.856,-102.317"/>
</g>
<!--   -->
<g id="node5" class="node">
<title> </title>
<text text-anchor="middle" x="27" y="-196.1504" font-family="Times,serif" font-size="14.00" fill="#000000"> </text>
</g>
<!--  &#160; -->
<g id="node6" class="node">
<title> &#160;</title>
<text text-anchor="middle" x="27" y="-250.1504" font-family="Times,serif" font-size="14.00" fill="#000000"> &#160;</text>
</g>
<!-- q1q2q3 -->
<g id="node8" class="node">
<title>q1q2q3</title>
<ellipse fill="none" stroke="#000000" cx="451.8096" cy="-97.3504" rx="40.014" ry="40.014"/>
<ellipse fill="none" stroke="#000000" cx="451.8096" cy="-97.3504" rx="44.0147" ry="44.0147"/>
<text text-anchor="middle" x="451.8096" y="-93.1504" font-family="Times,serif" font-size="14.00" fill="#000000">q1q2q3</text>
</g>
<!-- q1q2&#45;&gt;q1q2q3 -->
<g id="edge6" class="edge">
<title>q1q2&#45;&gt;q1q2q3</title>
<path fill="none" stroke="#000000" d="M364.9035,-104.5115C375.0973,-103.6716 386.514,-102.7308 397.6358,-101.8144"/>
<polygon fill="#000000" stroke="#000000" points="398.0444,-105.2927 407.7232,-100.9832 397.4695,-98.3163 398.0444,-105.2927"/>
<text text-anchor="middle" x="386.3023" y="-107.5504" font-family="Times,serif" font-size="14.00" fill="#000000">a</text>
</g>
<!-- q2q3 -->
<g id="node9" class="node">
<title>q2q3</title>
<ellipse fill="none" stroke="#000000" cx="451.8096" cy="-227.3504" rx="30.2188" ry="30.2188"/>
<ellipse fill="none" stroke="#000000" cx="451.8096" cy="-227.3504" rx="34.2014" ry="34.2014"/>
<text text-anchor="middle" x="451.8096" y="-223.1504" font-family="Times,serif" font-size="14.00" fill="#000000">q2q3</text>
</g>
<!-- q1q2&#45;&gt;q2q3 -->
<g id="edge7" class="edge">
<title>q1q2&#45;&gt;q2q3</title>
<path fill="none" stroke="#000000" d="M354.7805,-131.6843C369.9857,-146.8642 389.9942,-166.7872 407.8023,-184.3504 411.7,-188.1945 415.8009,-192.2229 419.8673,-196.2076"/>
<polygon fill="#000000" stroke="#000000" points="417.5032,-198.7912 427.0984,-203.2838 422.3991,-193.7881 417.5032,-198.7912"/>
<text text-anchor="middle" x="386.3023" y="-169.5504" font-family="Times,serif" font-size="14.00" fill="#000000">b</text>
</g>
<!-- q1q2q3&#45;&gt;q1q2q3 -->
<g id="edge11" class="edge">
<title>q1q2q3&#45;&gt;q1q2q3</title>
<path fill="none" stroke="#000000" d="M439.9334,-139.9529C440.6634,-151.0158 444.6221,-159.3577 451.8096,-159.3577 456.5264,-159.3577 459.8527,-155.7652 461.7885,-150.1686"/>
<polygon fill="#000000" stroke="#000000" points="465.3009,-150.4239 463.6859,-139.9529 458.4186,-149.1456 465.3009,-150.4239"/>
<text text-anchor="middle" x="451.8096" y="-163.5577" font-family="Times,serif" font-size="14.00" fill="#000000">a,b</text>
</g>
<!-- q2q3&#45;&gt;q3 -->
<g id="edge9" class="edge">
<title>q2q3&#45;&gt;q3</title>
<path fill="none" stroke="#000000" d="M417.6452,-222.5173C355.3602,-213.706 224.2728,-195.1614 164.5425,-186.7115"/>
<polygon fill="#000000" stroke="#000000" points="164.9774,-183.2383 154.5857,-185.303 163.9968,-190.1693 164.9774,-183.2383"/>
<text text-anchor="middle" x="274.6015" y="-206.5504" font-family="Times,serif" font-size="14.00" fill="#000000">b</text>
</g>
<!-- q1q3 -->
<g id="node10" class="node">
<title>q1q3</title>
<ellipse fill="none" stroke="#000000" cx="572.382" cy="-34.3504" rx="30.2188" ry="30.2188"/>
<ellipse fill="none" stroke="#000000" cx="572.382" cy="-34.3504" rx="34.2014" ry="34.2014"/>
<text text-anchor="middle" x="572.382" y="-30.1504" font-family="Times,serif" font-size="14.00" fill="#000000">q1q3</text>
</g>
<!-- q2q3&#45;&gt;q1q3 -->
<g id="edge8" class="edge">
<title>q2q3&#45;&gt;q1q3</title>
<path fill="none" stroke="#000000" d="M477.9684,-204.5365C484.244,-198.3519 490.625,-191.4049 495.817,-184.3504 520.7895,-150.4193 541.9069,-107.1628 555.5972,-75.8288"/>
<polygon fill="#000000" stroke="#000000" points="558.8689,-77.0801 559.6035,-66.5107 552.4381,-74.3151 558.8689,-77.0801"/>
<text text-anchor="middle" x="516.9243" y="-157.5504" font-family="Times,serif" font-size="14.00" fill="#000000">a</text>
</g>
<!-- q1q3&#45;&gt;q1q2 -->
<g id="edge10" class="edge">
<title>q1q3&#45;&gt;q1q2</title>
<path fill="none" stroke="#000000" d="M539.0457,-24.8939C504.7013,-16.9632 450.3322,-9.5444 407.8023,-27.5504 386.8837,-36.4068 368.8458,-53.9954 355.4634,-70.4111"/>
<polygon fill="#000000" stroke="#000000" points="352.6736,-68.297 349.2756,-78.3322 358.19,-72.6063 352.6736,-68.297"/>
<text text-anchor="middle" x="451.8096" y="-32.5504" font-family="Times,serif" font-size="14.00" fill="#000000">a,b</text>
</g>
</g>
</svg>
