<?xml version="1.0" encoding="UTF-8" standalone="no"?>
<!DOCTYPE svg PUBLIC "-//W3C//DTD SVG 1.1//EN"
 "http://www.w3.org/Graphics/SVG/1.1/DTD/svg11.dtd">
<!-- Generated by graphviz version 2.40.1 (20161225.0304)
 -->
<!-- Title: finite_state_machine Pages: 1 -->
<svg width="679pt" height="159pt"
 viewBox="0.00 0.00 678.85 158.69" xmlns="http://www.w3.org/2000/svg" xmlns:xlink="http://www.w3.org/1999/xlink">
<g id="graph0" class="graph" transform="scale(1 1) rotate(0) translate(4 154.6935)">
<title>finite_state_machine</title>
<polygon fill="#ffffff" stroke="transparent" points="-4,4 -4,-154.6935 674.8521,-154.6935 674.8521,4 -4,4"/>
<!-- q1 -->
<g id="node1" class="node">
<title>q1</title>
<ellipse fill="none" stroke="#000000" cx="111.6935" cy="-24.6935" rx="20.8887" ry="20.8887"/>
<text text-anchor="middle" x="111.6935" y="-20.4935" font-family="Times,serif" font-size="14.00" fill="#000000">q1</text>
</g>
<!-- q2 -->
<g id="node5" class="node">
<title>q2</title>
<ellipse fill="none" stroke="#000000" cx="209.795" cy="-24.6935" rx="20.8568" ry="20.8568"/>
<ellipse fill="none" stroke="#000000" cx="209.795" cy="-24.6935" rx="24.8884" ry="24.8884"/>
<text text-anchor="middle" x="209.795" y="-20.4935" font-family="Times,serif" font-size="14.00" fill="#000000">q2</text>
</g>
<!-- q1&#45;&gt;q2 -->
<g id="edge2" class="edge">
<title>q1&#45;&gt;q2</title>
<path fill="none" stroke="#000000" d="M132.4983,-24.6935C144.6891,-24.6935 160.4111,-24.6935 174.4896,-24.6935"/>
<polygon fill="#000000" stroke="#000000" points="174.8495,-28.1935 184.8495,-24.6935 174.8495,-21.1935 174.8495,-28.1935"/>
<text text-anchor="middle" x="158.7442" y="-28.8935" font-family="Times,serif" font-size="14.00" fill="#000000">b,c</text>
</g>
<!-- q4 -->
<g id="node2" class="node">
<title>q4</title>
<ellipse fill="none" stroke="#000000" cx="558.5572" cy="-70.6935" rx="20.8887" ry="20.8887"/>
<text text-anchor="middle" x="558.5572" y="-66.4935" font-family="Times,serif" font-size="14.00" fill="#000000">q4</text>
</g>
<!-- q3 -->
<g id="node4" class="node">
<title>q3</title>
<ellipse fill="none" stroke="#000000" cx="474.1703" cy="-48.6935" rx="20.8887" ry="20.8887"/>
<text text-anchor="middle" x="474.1703" y="-44.4935" font-family="Times,serif" font-size="14.00" fill="#000000">q3</text>
</g>
<!-- q4&#45;&gt;q3 -->
<g id="edge6" class="edge">
<title>q4&#45;&gt;q3</title>
<path fill="none" stroke="#000000" d="M542.2552,-57.3142C535.7062,-52.7568 527.8272,-48.2264 519.8637,-45.8935 515.0634,-44.4871 509.8615,-43.9415 504.7458,-43.9184"/>
<polygon fill="#000000" stroke="#000000" points="504.3085,-40.4375 494.5221,-44.4965 504.7037,-47.4263 504.3085,-40.4375"/>
<text text-anchor="middle" x="516.3637" y="-50.8935" font-family="Times,serif" font-size="14.00" fill="#000000">a</text>
</g>
<!-- q5 -->
<g id="node6" class="node">
<title>q5</title>
<ellipse fill="none" stroke="#000000" cx="646.1587" cy="-70.6935" rx="20.8568" ry="20.8568"/>
<ellipse fill="none" stroke="#000000" cx="646.1587" cy="-70.6935" rx="24.8884" ry="24.8884"/>
<text text-anchor="middle" x="646.1587" y="-66.4935" font-family="Times,serif" font-size="14.00" fill="#000000">q5</text>
</g>
<!-- q4&#45;&gt;q5 -->
<g id="edge7" class="edge">
<title>q4&#45;&gt;q5</title>
<path fill="none" stroke="#000000" d="M579.3175,-70.6935C588.8263,-70.6935 600.3604,-70.6935 611.1518,-70.6935"/>
<polygon fill="#000000" stroke="#000000" points="611.1802,-74.1936 621.1802,-70.6935 611.1801,-67.1936 611.1802,-74.1936"/>
<text text-anchor="middle" x="600.3579" y="-74.8935" font-family="Times,serif" font-size="14.00" fill="#000000">c</text>
</g>
<!-- q6 -->
<g id="node3" class="node">
<title>q6</title>
<ellipse fill="none" stroke="#000000" cx="298.1819" cy="-72.6935" rx="20.8887" ry="20.8887"/>
<text text-anchor="middle" x="298.1819" y="-68.4935" font-family="Times,serif" font-size="14.00" fill="#000000">q6</text>
</g>
<!-- q7 -->
<g id="node7" class="node">
<title>q7</title>
<ellipse fill="none" stroke="#000000" cx="386.5688" cy="-61.6935" rx="20.8568" ry="20.8568"/>
<ellipse fill="none" stroke="#000000" cx="386.5688" cy="-61.6935" rx="24.8884" ry="24.8884"/>
<text text-anchor="middle" x="386.5688" y="-57.4935" font-family="Times,serif" font-size="14.00" fill="#000000">q7</text>
</g>
<!-- q6&#45;&gt;q7 -->
<g id="edge10" class="edge">
<title>q6&#45;&gt;q7</title>
<path fill="none" stroke="#000000" d="M319.1283,-70.0866C328.8771,-68.8733 340.7358,-67.3975 351.7742,-66.0237"/>
<polygon fill="#000000" stroke="#000000" points="352.5193,-69.4581 362.0105,-64.7498 351.6547,-62.5117 352.5193,-69.4581"/>
<text text-anchor="middle" x="340.3753" y="-71.8935" font-family="Times,serif" font-size="14.00" fill="#000000">a</text>
</g>
<!-- q3&#45;&gt;q4 -->
<g id="edge5" class="edge">
<title>q3&#45;&gt;q4</title>
<path fill="none" stroke="#000000" d="M492.5689,-58.8444C498.8337,-61.8648 505.9927,-64.8556 512.8637,-66.6935 517.614,-67.9641 522.7312,-68.8545 527.762,-69.4741"/>
<polygon fill="#000000" stroke="#000000" points="527.5426,-72.9686 537.8216,-70.4009 528.1848,-65.9982 527.5426,-72.9686"/>
<text text-anchor="middle" x="516.3637" y="-71.8935" font-family="Times,serif" font-size="14.00" fill="#000000">b</text>
</g>
<!-- q2&#45;&gt;q6 -->
<g id="edge4" class="edge">
<title>q2&#45;&gt;q6</title>
<path fill="none" stroke="#000000" d="M231.6434,-36.5586C243.4571,-42.9743 258.1618,-50.9599 270.741,-57.7912"/>
<polygon fill="#000000" stroke="#000000" points="269.4049,-61.0484 279.863,-62.7451 272.7456,-54.897 269.4049,-61.0484"/>
<text text-anchor="middle" x="255.9884" y="-55.8935" font-family="Times,serif" font-size="14.00" fill="#000000">b</text>
</g>
<!-- q2&#45;&gt;q3 -->
<g id="edge3" class="edge">
<title>q2&#45;&gt;q3</title>
<path fill="none" stroke="#000000" d="M234.5752,-22.3232C272.8704,-19.2722 348.5621,-15.6831 411.2622,-27.6935 422.6598,-29.8767 434.8339,-33.5959 445.4063,-37.3033"/>
<polygon fill="#000000" stroke="#000000" points="444.3806,-40.6549 454.9744,-40.8036 446.7856,-34.0809 444.3806,-40.6549"/>
<text text-anchor="middle" x="340.3753" y="-24.8935" font-family="Times,serif" font-size="14.00" fill="#000000">a</text>
</g>
<!-- q5&#45;&gt;q6 -->
<g id="edge9" class="edge">
<title>q5&#45;&gt;q6</title>
<path fill="none" stroke="#000000" d="M628.3635,-88.181C611.7481,-102.5996 585.5249,-120.6935 558.5572,-120.6935 386.5688,-120.6935 386.5688,-120.6935 386.5688,-120.6935 362.3311,-120.6935 338.3924,-106.5821 321.5541,-93.6619"/>
<polygon fill="#000000" stroke="#000000" points="323.4088,-90.6606 313.4319,-87.095 319.0077,-96.104 323.4088,-90.6606"/>
<text text-anchor="middle" x="474.1703" y="-124.8935" font-family="Times,serif" font-size="14.00" fill="#000000">b</text>
</g>
<!-- q5&#45;&gt;q3 -->
<g id="edge8" class="edge">
<title>q5&#45;&gt;q3</title>
<path fill="none" stroke="#000000" d="M628.2346,-53.54C615.6333,-42.7216 597.7738,-29.7287 579.2506,-23.8935 553.2044,-15.6882 522.7716,-24.8539 501.3805,-34.2766"/>
<polygon fill="#000000" stroke="#000000" points="499.8059,-31.1492 492.2367,-38.5626 502.7768,-37.4875 499.8059,-31.1492"/>
<text text-anchor="middle" x="558.5572" y="-28.8935" font-family="Times,serif" font-size="14.00" fill="#000000">a</text>
</g>
<!-- q7&#45;&gt;q6 -->
<g id="edge11" class="edge">
<title>q7&#45;&gt;q6</title>
<path fill="none" stroke="#000000" d="M365.3032,-49.0329C356.5099,-45.3336 346.2074,-42.9772 336.8753,-45.8935 331.7422,-47.4975 326.6911,-50.0481 322.019,-52.9524"/>
<polygon fill="#000000" stroke="#000000" points="319.7939,-50.2366 313.5799,-58.8178 323.7889,-55.9846 319.7939,-50.2366"/>
<text text-anchor="middle" x="340.3753" y="-50.8935" font-family="Times,serif" font-size="14.00" fill="#000000">b</text>
</g>
<!-- q7&#45;&gt;q3 -->
<g id="edge12" class="edge">
<title>q7&#45;&gt;q3</title>
<path fill="none" stroke="#000000" d="M411.4375,-58.0029C421.4531,-56.5166 433.104,-54.7877 443.6276,-53.226"/>
<polygon fill="#000000" stroke="#000000" points="444.2952,-56.6653 453.6731,-51.7352 443.2676,-49.7411 444.2952,-56.6653"/>
<text text-anchor="middle" x="432.3695" y="-59.8935" font-family="Times,serif" font-size="14.00" fill="#000000">a</text>
</g>
<g id="node8" class="node">
<title></title>
</g>
<!-- &#45;&gt;q1 -->
<g id="edge1" class="edge">
<title>&#45;&gt;q1</title>
<path fill="none" stroke="#000000" d="M54.2637,-24.6935C62.7209,-24.6935 72.1012,-24.6935 80.7873,-24.6935"/>
<polygon fill="#000000" stroke="#000000" points="80.9294,-28.1936 90.9294,-24.6935 80.9293,-21.1936 80.9294,-28.1936"/>
</g>
<!--   -->
<g id="node9" class="node">
<title> </title>
<text text-anchor="middle" x="27" y="-74.4935" font-family="Times,serif" font-size="14.00" fill="#000000"> </text>
</g>
<!--  &#160; -->
<g id="node10" class="node">
<title> &#160;</title>
<text text-anchor="middle" x="27" y="-128.4935" font-family="Times,serif" font-size="14.00" fill="#000000"> &#160;</text>
</g>
</g>
</svg>
