<?xml version="1.0" encoding="UTF-8" standalone="no"?>
<!DOCTYPE svg PUBLIC "-//W3C//DTD SVG 1.1//EN"
 "http://www.w3.org/Graphics/SVG/1.1/DTD/svg11.dtd">
<!-- Generated by graphviz version 2.40.1 (20161225.0304)
 -->
<!-- Title: finite_state_machine Pages: 1 -->
<svg width="450pt" height="218pt"
 viewBox="0.00 0.00 449.89 217.69" xmlns="http://www.w3.org/2000/svg" xmlns:xlink="http://www.w3.org/1999/xlink">
<g id="graph0" class="graph" transform="scale(1 1) rotate(0) translate(4 213.6935)">
<title>finite_state_machine</title>
<polygon fill="#ffffff" stroke="transparent" points="-4,4 -4,-213.6935 445.89,-213.6935 445.89,4 -4,4"/>
<!-- q1 -->
<g id="node1" class="node">
<title>q1</title>
<ellipse fill="none" stroke="#000000" cx="111.6935" cy="-83.6935" rx="20.8887" ry="20.8887"/>
<text text-anchor="middle" x="111.6935" y="-79.4935" font-family="Times,serif" font-size="14.00" fill="#000000">q1</text>
</g>
<!-- q2q5q7 -->
<g id="node5" class="node">
<title>q2q5q7</title>
<ellipse fill="none" stroke="#000000" cx="229.1088" cy="-83.6935" rx="40.014" ry="40.014"/>
<ellipse fill="none" stroke="#000000" cx="229.1088" cy="-83.6935" rx="44.0147" ry="44.0147"/>
<text text-anchor="middle" x="229.1088" y="-79.4935" font-family="Times,serif" font-size="14.00" fill="#000000">q2q5q7</text>
</g>
<!-- q1&#45;&gt;q2q5q7 -->
<g id="edge2" class="edge">
<title>q1&#45;&gt;q2q5q7</title>
<path fill="none" stroke="#000000" d="M132.4147,-83.6935C144.1827,-83.6935 159.5195,-83.6935 174.4987,-83.6935"/>
<polygon fill="#000000" stroke="#000000" points="174.7636,-87.1936 184.7636,-83.6935 174.7635,-80.1936 174.7636,-87.1936"/>
<text text-anchor="middle" x="158.7442" y="-87.8935" font-family="Times,serif" font-size="14.00" fill="#000000">b,c</text>
</g>
<!-- q4 -->
<g id="node2" class="node">
<title>q4</title>
<ellipse fill="none" stroke="#000000" cx="421.1965" cy="-60.6935" rx="20.8887" ry="20.8887"/>
<text text-anchor="middle" x="421.1965" y="-56.4935" font-family="Times,serif" font-size="14.00" fill="#000000">q4</text>
</g>
<!-- q3 -->
<g id="node4" class="node">
<title>q3</title>
<ellipse fill="none" stroke="#000000" cx="336.8096" cy="-20.6935" rx="20.8887" ry="20.8887"/>
<text text-anchor="middle" x="336.8096" y="-16.4935" font-family="Times,serif" font-size="14.00" fill="#000000">q3</text>
</g>
<!-- q4&#45;&gt;q3 -->
<g id="edge6" class="edge">
<title>q4&#45;&gt;q3</title>
<path fill="none" stroke="#000000" d="M409.9053,-42.7305C403.1686,-33.7641 393.7393,-23.8036 382.5031,-18.8935 377.8382,-16.8549 372.6432,-15.9506 367.4765,-15.7401"/>
<polygon fill="#000000" stroke="#000000" points="366.9469,-12.2579 357.0897,-16.1417 367.2174,-19.2526 366.9469,-12.2579"/>
<text text-anchor="middle" x="379.0031" y="-23.8935" font-family="Times,serif" font-size="14.00" fill="#000000">a</text>
</g>
<!-- q4&#45;&gt;q2q5q7 -->
<g id="edge7" class="edge">
<title>q4&#45;&gt;q2q5q7</title>
<path fill="none" stroke="#000000" d="M407.1907,-75.9477C395.2852,-87.7059 377.0514,-103.0441 357.5031,-109.6935 332.1446,-118.3191 302.9442,-113.5054 278.8039,-105.7924"/>
<polygon fill="#000000" stroke="#000000" points="279.732,-102.4104 269.1373,-102.4668 277.4547,-109.0296 279.732,-102.4104"/>
<text text-anchor="middle" x="336.8096" y="-118.8935" font-family="Times,serif" font-size="14.00" fill="#000000">c</text>
</g>
<!-- q6 -->
<g id="node3" class="node">
<title>q6</title>
<ellipse fill="none" stroke="#000000" cx="336.8096" cy="-79.6935" rx="20.8887" ry="20.8887"/>
<text text-anchor="middle" x="336.8096" y="-75.4935" font-family="Times,serif" font-size="14.00" fill="#000000">q6</text>
</g>
<!-- q6&#45;&gt;q2q5q7 -->
<g id="edge8" class="edge">
<title>q6&#45;&gt;q2q5q7</title>
<path fill="none" stroke="#000000" d="M318.937,-68.9246C312.5911,-65.6742 305.249,-62.5345 298.1162,-60.8935 291.507,-59.3728 284.6311,-59.4959 277.8917,-60.6394"/>
<polygon fill="#000000" stroke="#000000" points="277.0708,-57.2369 268.1626,-62.9723 278.7031,-64.044 277.0708,-57.2369"/>
<text text-anchor="middle" x="294.6162" y="-65.8935" font-family="Times,serif" font-size="14.00" fill="#000000">a</text>
</g>
<!-- q3&#45;&gt;q4 -->
<g id="edge5" class="edge">
<title>q3&#45;&gt;q4</title>
<path fill="none" stroke="#000000" d="M355.5378,-29.5707C366.4957,-34.7649 380.5497,-41.4266 392.8416,-47.253"/>
<polygon fill="#000000" stroke="#000000" points="391.6935,-50.582 402.2289,-51.7027 394.6918,-44.2567 391.6935,-50.582"/>
<text text-anchor="middle" x="379.0031" y="-46.8935" font-family="Times,serif" font-size="14.00" fill="#000000">b</text>
</g>
<!-- q2q5q7&#45;&gt;q6 -->
<g id="edge4" class="edge">
<title>q2q5q7&#45;&gt;q6</title>
<path fill="none" stroke="#000000" d="M273.2898,-82.5619C281.5419,-82.3083 290.0924,-82.0171 298.1162,-81.6935 300.645,-81.5915 303.2663,-81.4763 305.8983,-81.3539"/>
<polygon fill="#000000" stroke="#000000" points="306.1137,-84.8476 315.9292,-80.8596 305.769,-77.8561 306.1137,-84.8476"/>
<text text-anchor="middle" x="294.6162" y="-86.8935" font-family="Times,serif" font-size="14.00" fill="#000000">b</text>
</g>
<!-- q2q5q7&#45;&gt;q3 -->
<g id="edge3" class="edge">
<title>q2q5q7&#45;&gt;q3</title>
<path fill="none" stroke="#000000" d="M264.3155,-56.846C272.8577,-50.8936 282.126,-44.8797 291.1162,-39.8935 296.4189,-36.9524 302.2646,-34.1757 307.9525,-31.6957"/>
<polygon fill="#000000" stroke="#000000" points="309.3646,-34.8991 317.2522,-27.8255 306.675,-28.4364 309.3646,-34.8991"/>
<text text-anchor="middle" x="294.6162" y="-44.8935" font-family="Times,serif" font-size="14.00" fill="#000000">a</text>
</g>
<g id="node6" class="node">
<title></title>
</g>
<!-- &#45;&gt;q1 -->
<g id="edge1" class="edge">
<title>&#45;&gt;q1</title>
<path fill="none" stroke="#000000" d="M54.2637,-83.6935C62.7209,-83.6935 72.1012,-83.6935 80.7873,-83.6935"/>
<polygon fill="#000000" stroke="#000000" points="80.9294,-87.1936 90.9294,-83.6935 80.9293,-80.1936 80.9294,-87.1936"/>
</g>
<!--   -->
<g id="node7" class="node">
<title> </title>
<text text-anchor="middle" x="27" y="-133.4935" font-family="Times,serif" font-size="14.00" fill="#000000"> </text>
</g>
<!--  &#160; -->
<g id="node8" class="node">
<title> &#160;</title>
<text text-anchor="middle" x="27" y="-187.4935" font-family="Times,serif" font-size="14.00" fill="#000000"> &#160;</text>
</g>
</g>
</svg>
