<?xml version="1.0" encoding="UTF-8" standalone="no"?>
<!DOCTYPE svg PUBLIC "-//W3C//DTD SVG 1.1//EN"
 "http://www.w3.org/Graphics/SVG/1.1/DTD/svg11.dtd">
<!-- Generated by graphviz version 2.40.1 (20161225.0304)
 -->
<!-- Title: finite_state_machine Pages: 1 -->
<svg width="782pt" height="242pt"
 viewBox="0.00 0.00 781.54 241.69" xmlns="http://www.w3.org/2000/svg" xmlns:xlink="http://www.w3.org/1999/xlink">
<g id="graph0" class="graph" transform="scale(1 1) rotate(0) translate(4 237.6935)">
<title>finite_state_machine</title>
<polygon fill="#ffffff" stroke="transparent" points="-4,4 -4,-237.6935 777.5391,-237.6935 777.5391,4 -4,4"/>
<!-- q1 -->
<g id="node1" class="node">
<title>q1</title>
<ellipse fill="none" stroke="#000000" cx="111.6935" cy="-107.6935" rx="20.8887" ry="20.8887"/>
<text text-anchor="middle" x="111.6935" y="-103.4935" font-family="Times,serif" font-size="14.00" fill="#000000">q1</text>
</g>
<!-- q2 -->
<g id="node2" class="node">
<title>q2</title>
<ellipse fill="none" stroke="#000000" cx="205.795" cy="-107.6935" rx="20.8887" ry="20.8887"/>
<text text-anchor="middle" x="205.795" y="-103.4935" font-family="Times,serif" font-size="14.00" fill="#000000">q2</text>
</g>
<!-- q1&#45;&gt;q2 -->
<g id="edge2" class="edge">
<title>q1&#45;&gt;q2</title>
<path fill="none" stroke="#000000" d="M132.5776,-107.6935C145.0043,-107.6935 161.0015,-107.6935 174.8716,-107.6935"/>
<polygon fill="#000000" stroke="#000000" points="174.9692,-111.1936 184.9692,-107.6935 174.9691,-104.1936 174.9692,-111.1936"/>
<text text-anchor="middle" x="158.7442" y="-111.8935" font-family="Times,serif" font-size="14.00" fill="#000000">a,b</text>
</g>
<!-- q2&#45;&gt;q1 -->
<g id="edge3" class="edge">
<title>q2&#45;&gt;q1</title>
<path fill="none" stroke="#000000" d="M188.6466,-95.4503C177.8597,-89.2159 163.5394,-83.5824 150.3869,-86.8935 146.2267,-87.9408 142.0266,-89.5321 138.005,-91.3777"/>
<polygon fill="#000000" stroke="#000000" points="136.3228,-88.3072 129.0479,-96.0096 139.5382,-94.5251 136.3228,-88.3072"/>
<text text-anchor="middle" x="158.7442" y="-91.8935" font-family="Times,serif" font-size="14.00" fill="#000000">a,b</text>
</g>
<!-- q9 -->
<g id="node7" class="node">
<title>q9</title>
<ellipse fill="none" stroke="#000000" cx="290.1819" cy="-137.6935" rx="20.8887" ry="20.8887"/>
<text text-anchor="middle" x="290.1819" y="-133.4935" font-family="Times,serif" font-size="14.00" fill="#000000">q9</text>
</g>
<!-- q2&#45;&gt;q9 -->
<g id="edge5" class="edge">
<title>q2&#45;&gt;q9</title>
<path fill="none" stroke="#000000" d="M225.3671,-114.6515C235.9418,-118.4108 249.2078,-123.127 260.9791,-127.3117"/>
<polygon fill="#000000" stroke="#000000" points="259.8288,-130.6173 270.4235,-130.6693 262.1736,-124.0217 259.8288,-130.6173"/>
<text text-anchor="middle" x="247.9884" y="-127.8935" font-family="Times,serif" font-size="14.00" fill="#000000">b</text>
</g>
<!-- q3 -->
<g id="node12" class="node">
<title>q3</title>
<ellipse fill="none" stroke="#000000" cx="290.1819" cy="-77.6935" rx="20.8887" ry="20.8887"/>
<text text-anchor="middle" x="290.1819" y="-73.4935" font-family="Times,serif" font-size="14.00" fill="#000000">q3</text>
</g>
<!-- q2&#45;&gt;q3 -->
<g id="edge4" class="edge">
<title>q2&#45;&gt;q3</title>
<path fill="none" stroke="#000000" d="M225.4768,-100.6659C231.5701,-98.4924 238.3061,-96.0918 244.4884,-93.8935 249.8413,-91.99 255.5482,-89.964 261.0501,-88.0125"/>
<polygon fill="#000000" stroke="#000000" points="262.356,-91.2631 270.6117,-84.6227 260.0169,-84.6654 262.356,-91.2631"/>
<text text-anchor="middle" x="247.9884" y="-98.8935" font-family="Times,serif" font-size="14.00" fill="#000000">a</text>
</g>
<!-- q4 -->
<g id="node3" class="node">
<title>q4</title>
<ellipse fill="none" stroke="#000000" cx="581.7003" cy="-77.6935" rx="20.8887" ry="20.8887"/>
<text text-anchor="middle" x="581.7003" y="-73.4935" font-family="Times,serif" font-size="14.00" fill="#000000">q4</text>
</g>
<!-- q8 -->
<g id="node13" class="node">
<title>q8</title>
<ellipse fill="none" stroke="#000000" cx="748.8457" cy="-107.6935" rx="20.8568" ry="20.8568"/>
<ellipse fill="none" stroke="#000000" cx="748.8457" cy="-107.6935" rx="24.8884" ry="24.8884"/>
<text text-anchor="middle" x="748.8457" y="-103.4935" font-family="Times,serif" font-size="14.00" fill="#000000">q8</text>
</g>
<!-- q4&#45;&gt;q8 -->
<g id="edge11" class="edge">
<title>q4&#45;&gt;q8</title>
<path fill="none" stroke="#000000" d="M602.5202,-78.5134C620.803,-79.4901 648.0546,-81.5703 671.4376,-85.8935 686.0976,-88.6039 701.9956,-92.846 715.5482,-96.8705"/>
<polygon fill="#000000" stroke="#000000" points="714.8093,-100.3043 725.3955,-99.8767 716.8532,-93.6094 714.8093,-100.3043"/>
<text text-anchor="middle" x="645.9157" y="-90.8935" font-family="Times,serif" font-size="14.00" fill="#000000">a,b</text>
</g>
<!-- q5 -->
<g id="node4" class="node">
<title>q5</title>
<ellipse fill="none" stroke="#000000" cx="379.3972" cy="-20.6935" rx="20.8887" ry="20.8887"/>
<text text-anchor="middle" x="379.3972" y="-16.4935" font-family="Times,serif" font-size="14.00" fill="#000000">q5</text>
</g>
<!-- q6 -->
<g id="node5" class="node">
<title>q6</title>
<ellipse fill="none" stroke="#000000" cx="517.4849" cy="-20.6935" rx="20.8887" ry="20.8887"/>
<text text-anchor="middle" x="517.4849" y="-16.4935" font-family="Times,serif" font-size="14.00" fill="#000000">q6</text>
</g>
<!-- q5&#45;&gt;q6 -->
<g id="edge8" class="edge">
<title>q5&#45;&gt;q6</title>
<path fill="none" stroke="#000000" d="M400.3698,-20.6935C423.3138,-20.6935 460.3179,-20.6935 486.5862,-20.6935"/>
<polygon fill="#000000" stroke="#000000" points="486.7675,-24.1936 496.7675,-20.6935 486.7674,-17.1936 486.7675,-24.1936"/>
<text text-anchor="middle" x="448.4411" y="-24.8935" font-family="Times,serif" font-size="14.00" fill="#000000">a</text>
</g>
<!-- q7 -->
<g id="node6" class="node">
<title>q7</title>
<ellipse fill="none" stroke="#000000" cx="645.9157" cy="-20.6935" rx="20.8887" ry="20.8887"/>
<text text-anchor="middle" x="645.9157" y="-16.4935" font-family="Times,serif" font-size="14.00" fill="#000000">q7</text>
</g>
<!-- q6&#45;&gt;q7 -->
<g id="edge9" class="edge">
<title>q6&#45;&gt;q7</title>
<path fill="none" stroke="#000000" d="M538.4054,-20.6935C559.116,-20.6935 591.073,-20.6935 614.7685,-20.6935"/>
<polygon fill="#000000" stroke="#000000" points="615.0042,-24.1936 625.0042,-20.6935 615.0042,-17.1936 615.0042,-24.1936"/>
<text text-anchor="middle" x="581.7003" y="-24.8935" font-family="Times,serif" font-size="14.00" fill="#000000">b</text>
</g>
<!-- q7&#45;&gt;q8 -->
<g id="edge10" class="edge">
<title>q7&#45;&gt;q8</title>
<path fill="none" stroke="#000000" d="M665.851,-26.2903C678.3634,-30.5064 694.3125,-37.2319 706.1522,-46.8935 716.3014,-55.1754 725.1174,-66.4555 732.0605,-77.0514"/>
<polygon fill="#000000" stroke="#000000" points="729.1899,-79.0632 737.4404,-85.7101 735.1357,-75.3689 729.1899,-79.0632"/>
<text text-anchor="middle" x="697.7949" y="-51.8935" font-family="Times,serif" font-size="14.00" fill="#000000">a,b</text>
</g>
<!-- q10 -->
<g id="node8" class="node">
<title>q10</title>
<ellipse fill="none" stroke="#000000" cx="448.4411" cy="-191.6935" rx="25.5439" ry="25.5439"/>
<text text-anchor="middle" x="448.4411" y="-187.4935" font-family="Times,serif" font-size="14.00" fill="#000000">q10</text>
</g>
<!-- q9&#45;&gt;q10 -->
<g id="edge12" class="edge">
<title>q9&#45;&gt;q10</title>
<path fill="none" stroke="#000000" d="M307.6111,-149.1709C320.0405,-156.8723 337.4026,-166.6735 353.8753,-172.6935 372.8084,-179.6125 394.8449,-184.2256 412.8802,-187.1716"/>
<polygon fill="#000000" stroke="#000000" points="412.5685,-190.6645 422.983,-188.7182 413.6278,-183.7452 412.5685,-190.6645"/>
<text text-anchor="middle" x="332.3753" y="-169.8935" font-family="Times,serif" font-size="14.00" fill="#000000">b</text>
</g>
<!-- q11 -->
<g id="node9" class="node">
<title>q11</title>
<ellipse fill="none" stroke="#000000" cx="379.3972" cy="-137.6935" rx="25.5439" ry="25.5439"/>
<text text-anchor="middle" x="379.3972" y="-133.4935" font-family="Times,serif" font-size="14.00" fill="#000000">q11</text>
</g>
<!-- q9&#45;&gt;q11 -->
<g id="edge14" class="edge">
<title>q9&#45;&gt;q11</title>
<path fill="none" stroke="#000000" d="M311.3247,-137.6935C320.9306,-137.6935 332.5659,-137.6935 343.4793,-137.6935"/>
<polygon fill="#000000" stroke="#000000" points="343.6318,-141.1936 353.6317,-137.6935 343.6317,-134.1936 343.6318,-141.1936"/>
<text text-anchor="middle" x="332.3753" y="-141.8935" font-family="Times,serif" font-size="14.00" fill="#000000">a</text>
</g>
<!-- q10&#45;&gt;q8 -->
<g id="edge13" class="edge">
<title>q10&#45;&gt;q8</title>
<path fill="none" stroke="#000000" d="M473.9032,-194.0918C516.4454,-197.1162 603.9564,-199.1015 671.4376,-172.6935 692.258,-164.5456 711.5274,-148.4082 725.6328,-134.2519"/>
<polygon fill="#000000" stroke="#000000" points="728.522,-136.2956 732.9149,-126.6544 723.4685,-131.4519 728.522,-136.2956"/>
<text text-anchor="middle" x="581.7003" y="-197.8935" font-family="Times,serif" font-size="14.00" fill="#000000">a,b</text>
</g>
<!-- q12 -->
<g id="node10" class="node">
<title>q12</title>
<ellipse fill="none" stroke="#000000" cx="517.4849" cy="-137.6935" rx="25.5439" ry="25.5439"/>
<text text-anchor="middle" x="517.4849" y="-133.4935" font-family="Times,serif" font-size="14.00" fill="#000000">q12</text>
</g>
<!-- q11&#45;&gt;q12 -->
<g id="edge15" class="edge">
<title>q11&#45;&gt;q12</title>
<path fill="none" stroke="#000000" d="M405.0469,-137.6935C426.5165,-137.6935 457.4003,-137.6935 481.37,-137.6935"/>
<polygon fill="#000000" stroke="#000000" points="481.5041,-141.1936 491.5041,-137.6935 481.5041,-134.1936 481.5041,-141.1936"/>
<text text-anchor="middle" x="448.4411" y="-141.8935" font-family="Times,serif" font-size="14.00" fill="#000000">b</text>
</g>
<!-- q13 -->
<g id="node11" class="node">
<title>q13</title>
<ellipse fill="none" stroke="#000000" cx="645.9157" cy="-137.6935" rx="25.5439" ry="25.5439"/>
<text text-anchor="middle" x="645.9157" y="-133.4935" font-family="Times,serif" font-size="14.00" fill="#000000">q13</text>
</g>
<!-- q12&#45;&gt;q13 -->
<g id="edge16" class="edge">
<title>q12&#45;&gt;q13</title>
<path fill="none" stroke="#000000" d="M543.1661,-137.6935C562.3285,-137.6935 588.7554,-137.6935 610.0094,-137.6935"/>
<polygon fill="#000000" stroke="#000000" points="610.279,-141.1936 620.279,-137.6935 610.279,-134.1936 610.279,-141.1936"/>
<text text-anchor="middle" x="581.7003" y="-141.8935" font-family="Times,serif" font-size="14.00" fill="#000000">a</text>
</g>
<!-- q13&#45;&gt;q8 -->
<g id="edge17" class="edge">
<title>q13&#45;&gt;q8</title>
<path fill="none" stroke="#000000" d="M670.57,-130.5077C684.0038,-126.5923 700.8189,-121.6913 715.4175,-117.4364"/>
<polygon fill="#000000" stroke="#000000" points="716.4801,-120.7725 725.1012,-114.614 714.5213,-114.0521 716.4801,-120.7725"/>
<text text-anchor="middle" x="697.7949" y="-128.8935" font-family="Times,serif" font-size="14.00" fill="#000000">a,b</text>
</g>
<!-- q3&#45;&gt;q4 -->
<g id="edge6" class="edge">
<title>q3&#45;&gt;q4</title>
<path fill="none" stroke="#000000" d="M311.1472,-77.6935C361.7829,-77.6935 490.9623,-77.6935 550.6277,-77.6935"/>
<polygon fill="#000000" stroke="#000000" points="550.925,-81.1935 560.925,-77.6935 550.925,-74.1935 550.925,-81.1935"/>
<text text-anchor="middle" x="379.3972" y="-81.8935" font-family="Times,serif" font-size="14.00" fill="#000000">a</text>
</g>
<!-- q3&#45;&gt;q5 -->
<g id="edge7" class="edge">
<title>q3&#45;&gt;q5</title>
<path fill="none" stroke="#000000" d="M305.8506,-64.081C312.693,-58.4419 320.9513,-52.0325 328.8753,-46.8935 335.8698,-42.3572 343.7418,-37.9651 351.1531,-34.1149"/>
<polygon fill="#000000" stroke="#000000" points="352.8395,-37.1844 360.1936,-29.5576 349.6885,-30.9336 352.8395,-37.1844"/>
<text text-anchor="middle" x="332.3753" y="-51.8935" font-family="Times,serif" font-size="14.00" fill="#000000">b</text>
</g>
<g id="node14" class="node">
<title></title>
</g>
<!-- &#45;&gt;q1 -->
<g id="edge1" class="edge">
<title>&#45;&gt;q1</title>
<path fill="none" stroke="#000000" d="M54.2637,-107.6935C62.7209,-107.6935 72.1012,-107.6935 80.7873,-107.6935"/>
<polygon fill="#000000" stroke="#000000" points="80.9294,-111.1936 90.9294,-107.6935 80.9293,-104.1936 80.9294,-111.1936"/>
</g>
<!--   -->
<g id="node15" class="node">
<title> </title>
<text text-anchor="middle" x="27" y="-157.4935" font-family="Times,serif" font-size="14.00" fill="#000000"> </text>
</g>
<!--  &#160; -->
<g id="node16" class="node">
<title> &#160;</title>
<text text-anchor="middle" x="27" y="-211.4935" font-family="Times,serif" font-size="14.00" fill="#000000"> &#160;</text>
</g>
</g>
</svg>
