<?xml version="1.0" encoding="UTF-8" standalone="no"?>
<!DOCTYPE svg PUBLIC "-//W3C//DTD SVG 1.1//EN"
 "http://www.w3.org/Graphics/SVG/1.1/DTD/svg11.dtd">
<!-- Generated by graphviz version 2.40.1 (20161225.0304)
 -->
<!-- Title: finite_state_machine Pages: 1 -->
<svg width="744pt" height="159pt"
 viewBox="0.00 0.00 743.95 158.69" xmlns="http://www.w3.org/2000/svg" xmlns:xlink="http://www.w3.org/1999/xlink">
<g id="graph0" class="graph" transform="scale(1 1) rotate(0) translate(4 154.6935)">
<title>finite_state_machine</title>
<polygon fill="#ffffff" stroke="transparent" points="-4,4 -4,-154.6935 739.9536,-154.6935 739.9536,4 -4,4"/>
<!-- q1 -->
<g id="node1" class="node">
<title>q1</title>
<ellipse fill="none" stroke="#000000" cx="111.6935" cy="-24.6935" rx="20.8887" ry="20.8887"/>
<text text-anchor="middle" x="111.6935" y="-20.4935" font-family="Times,serif" font-size="14.00" fill="#000000">q1</text>
</g>
<!-- q2 -->
<g id="node2" class="node">
<title>q2</title>
<ellipse fill="none" stroke="#000000" cx="195.295" cy="-61.6935" rx="20.8887" ry="20.8887"/>
<text text-anchor="middle" x="195.295" y="-57.4935" font-family="Times,serif" font-size="14.00" fill="#000000">q2</text>
</g>
<!-- q1&#45;&gt;q2 -->
<g id="edge2" class="edge">
<title>q1&#45;&gt;q2</title>
<path fill="none" stroke="#000000" d="M130.6639,-33.0893C141.3838,-37.8337 154.9933,-43.8569 166.956,-49.1513"/>
<polygon fill="#000000" stroke="#000000" points="165.5492,-52.3561 176.1102,-53.2027 168.3822,-45.955 165.5492,-52.3561"/>
<text text-anchor="middle" x="153.4942" y="-48.8935" font-family="Times,serif" font-size="14.00" fill="#000000">a</text>
</g>
<!-- q5 -->
<g id="node8" class="node">
<title>q5</title>
<ellipse fill="none" stroke="#000000" cx="451.6703" cy="-24.6935" rx="20.8568" ry="20.8568"/>
<ellipse fill="none" stroke="#000000" cx="451.6703" cy="-24.6935" rx="24.8884" ry="24.8884"/>
<text text-anchor="middle" x="451.6703" y="-20.4935" font-family="Times,serif" font-size="14.00" fill="#000000">q5</text>
</g>
<!-- q1&#45;&gt;q5 -->
<g id="edge3" class="edge">
<title>q1&#45;&gt;q5</title>
<path fill="none" stroke="#000000" d="M131.7598,-18.6445C148.5679,-14.1136 173.2764,-8.6935 195.295,-8.6935 195.295,-8.6935 195.295,-8.6935 363.2834,-8.6935 381.4483,-8.6935 401.3822,-12.0061 417.7144,-15.6168"/>
<polygon fill="#000000" stroke="#000000" points="417.3369,-19.1232 427.8721,-18.0007 418.9363,-12.3084 417.3369,-19.1232"/>
<text text-anchor="middle" x="278.8965" y="-12.8935" font-family="Times,serif" font-size="14.00" fill="#000000">b</text>
</g>
<!-- q3 -->
<g id="node6" class="node">
<title>q3</title>
<ellipse fill="none" stroke="#000000" cx="278.8965" cy="-116.6935" rx="20.8887" ry="20.8887"/>
<text text-anchor="middle" x="278.8965" y="-112.4935" font-family="Times,serif" font-size="14.00" fill="#000000">q3</text>
</g>
<!-- q2&#45;&gt;q3 -->
<g id="edge4" class="edge">
<title>q2&#45;&gt;q3</title>
<path fill="none" stroke="#000000" d="M212.6172,-73.0895C224.2751,-80.759 239.8549,-91.0087 252.9801,-99.6436"/>
<polygon fill="#000000" stroke="#000000" points="251.3185,-102.7399 261.5964,-105.312 255.1658,-96.8919 251.3185,-102.7399"/>
<text text-anchor="middle" x="237.0957" y="-94.8935" font-family="Times,serif" font-size="14.00" fill="#000000">a</text>
</g>
<!-- q4 -->
<g id="node3" class="node">
<title>q4</title>
<ellipse fill="none" stroke="#000000" cx="363.2834" cy="-61.6935" rx="20.8887" ry="20.8887"/>
<text text-anchor="middle" x="363.2834" y="-57.4935" font-family="Times,serif" font-size="14.00" fill="#000000">q4</text>
</g>
<!-- q4&#45;&gt;q2 -->
<g id="edge6" class="edge">
<title>q4&#45;&gt;q2</title>
<path fill="none" stroke="#000000" d="M342.3478,-61.6935C313.2215,-61.6935 260.2542,-61.6935 226.4711,-61.6935"/>
<polygon fill="#000000" stroke="#000000" points="226.2312,-58.1936 216.2311,-61.6935 226.2311,-65.1936 226.2312,-58.1936"/>
<text text-anchor="middle" x="278.8965" y="-65.8935" font-family="Times,serif" font-size="14.00" fill="#000000">a</text>
</g>
<!-- q4&#45;&gt;q5 -->
<g id="edge7" class="edge">
<title>q4&#45;&gt;q5</title>
<path fill="none" stroke="#000000" d="M382.462,-53.665C393.1987,-49.1705 406.8726,-43.4464 419.2258,-38.2752"/>
<polygon fill="#000000" stroke="#000000" points="420.8955,-41.3706 428.7683,-34.2805 418.1924,-34.9135 420.8955,-41.3706"/>
<text text-anchor="middle" x="405.4768" y="-49.8935" font-family="Times,serif" font-size="14.00" fill="#000000">b</text>
</g>
<!-- q6 -->
<g id="node4" class="node">
<title>q6</title>
<ellipse fill="none" stroke="#000000" cx="539.2718" cy="-24.6935" rx="20.8887" ry="20.8887"/>
<text text-anchor="middle" x="539.2718" y="-20.4935" font-family="Times,serif" font-size="14.00" fill="#000000">q6</text>
</g>
<!-- q7 -->
<g id="node5" class="node">
<title>q7</title>
<ellipse fill="none" stroke="#000000" cx="623.6587" cy="-63.6935" rx="20.8887" ry="20.8887"/>
<text text-anchor="middle" x="623.6587" y="-59.4935" font-family="Times,serif" font-size="14.00" fill="#000000">q7</text>
</g>
<!-- q6&#45;&gt;q7 -->
<g id="edge9" class="edge">
<title>q6&#45;&gt;q7</title>
<path fill="none" stroke="#000000" d="M558.4205,-33.5432C569.3178,-38.5794 583.1734,-44.9829 595.3102,-50.592"/>
<polygon fill="#000000" stroke="#000000" points="594.04,-53.8606 604.5858,-54.8788 596.9766,-47.5064 594.04,-53.8606"/>
<text text-anchor="middle" x="581.4652" y="-49.8935" font-family="Times,serif" font-size="14.00" fill="#000000">b</text>
</g>
<!-- q8 -->
<g id="node7" class="node">
<title>q8</title>
<ellipse fill="none" stroke="#000000" cx="711.2602" cy="-24.6935" rx="20.8568" ry="20.8568"/>
<ellipse fill="none" stroke="#000000" cx="711.2602" cy="-24.6935" rx="24.8884" ry="24.8884"/>
<text text-anchor="middle" x="711.2602" y="-20.4935" font-family="Times,serif" font-size="14.00" fill="#000000">q8</text>
</g>
<!-- q7&#45;&gt;q8 -->
<g id="edge10" class="edge">
<title>q7&#45;&gt;q8</title>
<path fill="none" stroke="#000000" d="M642.6669,-55.231C653.3082,-50.4935 666.8606,-44.4601 679.104,-39.0093"/>
<polygon fill="#000000" stroke="#000000" points="680.8497,-42.0634 688.5618,-34.7987 678.0027,-35.6685 680.8497,-42.0634"/>
<text text-anchor="middle" x="665.4594" y="-49.8935" font-family="Times,serif" font-size="14.00" fill="#000000">a</text>
</g>
<!-- q3&#45;&gt;q4 -->
<g id="edge5" class="edge">
<title>q3&#45;&gt;q4</title>
<path fill="none" stroke="#000000" d="M296.3815,-105.2974C308.1488,-97.6279 323.875,-87.3782 337.1236,-78.7434"/>
<polygon fill="#000000" stroke="#000000" points="339.3541,-81.4674 345.8207,-73.0749 335.5319,-75.603 339.3541,-81.4674"/>
<text text-anchor="middle" x="321.0899" y="-94.8935" font-family="Times,serif" font-size="14.00" fill="#000000">b</text>
</g>
<!-- q8&#45;&gt;q6 -->
<g id="edge11" class="edge">
<title>q8&#45;&gt;q6</title>
<path fill="none" stroke="#000000" d="M686.5359,-21.1174C673.9392,-19.4721 658.3621,-17.7073 644.3521,-16.8935 625.9889,-15.8267 621.3253,-15.7734 602.9652,-16.8935 592.1234,-17.5548 580.301,-18.8439 569.8176,-20.1865"/>
<polygon fill="#000000" stroke="#000000" points="569.3103,-16.7231 559.8665,-21.5257 570.244,-23.6606 569.3103,-16.7231"/>
<text text-anchor="middle" x="623.6587" y="-21.8935" font-family="Times,serif" font-size="14.00" fill="#000000">a</text>
</g>
<!-- q5&#45;&gt;q6 -->
<g id="edge8" class="edge">
<title>q5&#45;&gt;q6</title>
<path fill="none" stroke="#000000" d="M476.539,-24.6935C486.3752,-24.6935 497.7886,-24.6935 508.1625,-24.6935"/>
<polygon fill="#000000" stroke="#000000" points="508.4872,-28.1935 518.4872,-24.6935 508.4871,-21.1935 508.4872,-28.1935"/>
<text text-anchor="middle" x="497.471" y="-28.8935" font-family="Times,serif" font-size="14.00" fill="#000000">a</text>
</g>
<g id="node9" class="node">
<title></title>
</g>
<!-- &#45;&gt;q1 -->
<g id="edge1" class="edge">
<title>&#45;&gt;q1</title>
<path fill="none" stroke="#000000" d="M54.2637,-24.6935C62.7209,-24.6935 72.1012,-24.6935 80.7873,-24.6935"/>
<polygon fill="#000000" stroke="#000000" points="80.9294,-28.1936 90.9294,-24.6935 80.9293,-21.1936 80.9294,-28.1936"/>
</g>
<!--   -->
<g id="node10" class="node">
<title> </title>
<text text-anchor="middle" x="27" y="-74.4935" font-family="Times,serif" font-size="14.00" fill="#000000"> </text>
</g>
<!--  &#160; -->
<g id="node11" class="node">
<title> &#160;</title>
<text text-anchor="middle" x="27" y="-128.4935" font-family="Times,serif" font-size="14.00" fill="#000000"> &#160;</text>
</g>
</g>
</svg>
